<svg xmlns="http://www.w3.org/2000/svg" xmlns:xlink="http://www.w3.org/1999/xlink" viewBox="0 0 1120 630" enable-background="new 0 0 1120 630"><path fill="#f00" d="M273.68 542.937l.624-95.1 324.8 2.128-.623 95.1z"/><g fill="#fff"><path d="M337.7 479.6c0 9.3-8.6 15-19.6 15-3.9 0-5.9-.3-5.9-.3v11.3c0 5.2 2.3 5.2 5.5 5.2.3 0 .6.2.6.6v1.7c0 .3-.2.6-.6.6h-19.4c-.3 0-.6-.2-.6-.6v-1.7c0-.3.2-.6.6-.6 3.2 0 5.5 0 5.5-5.2v-32.2c0-5.2-2.1-5.2-5.2-5.2-.3 0-.6-.2-.6-.6v-1.7c0-.3.1-.5.6-.6.8-.1 7.4-.6 16.5-.6 16.9.1 22.6 7.6 22.6 14.9zm-25.5 10.7c1.1.3 2.8.4 5.3.4 5.5 0 11.3-3.9 11.3-10.8 0-6.2-3.5-11.4-12-11.4-2.4 0-4.6.4-4.6.4v21.4zM338.6 513.4c-.3 0-.6-.2-.6-.6v-1.7c0-.3.2-.6.6-.6 3.1 0 5.2 0 5.2-5.2V473c0-5.2-2.1-5.2-5.2-5.2-.3 0-.6-.2-.6-.6v-1.7c0-.3.2-.6.6-.6h18.7c.3 0 .6.2.6.6v1.7c0 .3-.2.6-.6.6-3.1 0-5.2 0-5.2 5.2v36.3h5.7c11.2 0 13.5-3 17-10h2.6c.4 0 .6.3.5.8l-3.7 14c-.1.3-.2.4-.6.4h-1.3c-.3 0-.6-.1-.8-.4-.4-.8-1.2-.6-5.8-.6h-27.1zM399.3 471.3l-1-2.6c-.2-.5-.1-.8.2-1l5.4-4.3c.4-.3.8-.3 1 .2l17.8 42c1.5 3.6 2.1 5.2 5.5 5.2.3 0 .6.2.6.6v1.5c0 .3-.2.6-.6.6h-18.4c-.3 0-.6-.2-.6-.6v-1.5c0-.3.2-.6.6-.6 4.8-.2 5.5-1.2.9-12.1h-18.2c-4.6 10.4-4.1 11.9 1.1 12.1.3 0 .6.2.6.6v1.5c0 .3-.2.6-.6.6h-14.1c-.3 0-.6-.2-.6-.6v-1.5c0-.3.2-.6.6-.6 3 0 3.8-2.1 5.7-6.5l14.1-33zm-4.9 22.8h14.4l-7.1-17.2-7.3 17.2zM437.6 497c1.3 9.4 6.4 13.7 13.3 13.7 6.4 0 9.5-3.6 9.5-7.9 0-5.1-4.2-7.3-10.4-9.2-6.4-2-15-4.9-15-14.8 0-7.2 4.6-14.7 17.8-14.7 6.1 0 10.6 1.6 13.6 2.7l-3 10.7c-.1.3-.3.5-.7.5h-1.8c-.8-6.1-3.7-9.8-9.8-9.8-6.2 0-9.1 3.7-9.1 7.3 0 5.5 6.8 7.1 11.5 8.6 8.2 2.6 14.4 5.9 14.4 15.1 0 8.8-5.7 15.3-18 15.3-7.5 0-13.7-2.4-18.2-4.7l3.2-12.3c.1-.4.3-.5.7-.5h2zM507.5 465c1 0 1.5-.1 1.9-.6.2-.3.3-.4.8-.4h1.5c.3 0 .5.1.6.5l2.6 13.7c.1.4-.1.5-.4.5H511c-1.8-5.9-4.1-9.5-10.8-9.5h-3.9v36.3c0 5.2 2.3 5.2 5.5 5.2.3 0 .6.2.6.6v1.7c0 .3-.2.6-.6.6h-19.4c-.3 0-.6-.2-.6-.6v-1.7c0-.3.2-.6.6-.6 3.2 0 5.5 0 5.5-5.2v-36.3H484c-6.6 0-9 3.6-10.8 9.5H470c-.3 0-.5-.1-.4-.5l2.6-13.7c.1-.3.2-.5.6-.5h1.3c.4 0 .6.1.8.4.3.6.8.6 1.9.6h30.7zM531.4 505.5c0 5.2 2.1 5.2 5.2 5.2.3 0 .6.2.6.6v1.7c0 .3-.2.6-.6.6h-18.7c-.3 0-.6-.2-.6-.6v-1.7c0-.3.2-.6.6-.6 3.1 0 5.2 0 5.2-5.2V473c0-5.2-2.1-5.2-5.2-5.2-.3 0-.6-.2-.6-.6v-1.7c0-.3.2-.6.6-.6h18.7c.3 0 .6.2.6.6v1.7c0 .3-.2.6-.6.6-3.1 0-5.2 0-5.2 5.2v32.5zM574.2 479.3c-1-6.3-4.8-10.7-11.1-10.7-7.9 0-15.3 6.9-15.3 18.7 0 5.7 1.7 10 4.2 12.9 3 3.5 7.5 5.4 12.2 5.4 7.4 0 12.8-4.6 16-11.2l1.9.6c.6.1.6.5.5.9-1 7.4-7.2 18.6-20.4 18.6-6.1 0-12.4-2.4-16.7-7.7-3.2-4-5.2-9.6-5.2-16.3 0-14.9 9.5-26.5 25.9-26.5 5.6 0 11.1 1.4 14.6 2.8l-4.2 12c-.1.3-.3.5-.7.5h-1.7z"/></g><path fill="#fff" d="M295.737 521.68l286.1 2.272-.046 5.8-286.1-2.27z"/><path fill="#f00" d="M167.516 606.585l3.326-66.214 738.44 37.088-3.327 66.214z"/><g fill="#fff"><path d="M213.5 563.3c-.4 6.7-6.8 10.4-14.6 10-2.8-.1-4.2-.5-4.2-.5l-.4 8.1c-.2 3.7 1.4 3.8 3.8 3.9.2 0 .4.2.4.4l-.1 1.2c0 .2-.2.4-.4.4l-13.9-.7c-.2 0-.4-.2-.4-.4l.1-1.2c0-.2.2-.4.4-.4 2.3.1 4 .2 4.2-3.5l1.2-23.1c.2-3.7-1.3-3.8-3.5-3.9-.2 0-.4-.2-.4-.4l.1-1.2c0-.2.1-.3.4-.4.6-.1 5.3-.1 11.9.2 11.9.7 15.6 6.3 15.4 11.5zm-18.7 6.8c.8.2 2 .4 3.7.5 4 .2 8.3-2.3 8.5-7.3.2-4.5-2-8.3-8.2-8.6-1.7-.1-3.3.1-3.3.1l-.7 15.3zM218.7 572c.2-3.3-1.1-3.5-2.8-3.9-.2-.1-.3-.1-.3-.4l.1-1 7.2-3.2 1 .1c.2 0 .3.1.3.3l-.2 3.8h.3c2.1-2.7 4.2-4.1 6.5-4 2 .1 3.6 1.4 3.4 3.7-.1 2-1.4 3.3-3.2 3.2-1.1-.1-1.9-.6-2.2-1.4-.1-.4-.3-.8-.8-.8-1.1-.1-3 1.3-4.3 2.9l-.6 11.1c-.2 3.3 1.5 3.7 3.1 3.9.2 0 .3.1.3.3l-.1 1.3c0 .2-.1.3-.3.3l-11.7-.6c-.2 0-.3-.1-.3-.3l.1-1.3c0-.2.1-.3.3-.3 1.6 0 3.3-.3 3.5-3.5l.7-10.2zM258.7 578c-.4 7.4-5.1 12.5-12.6 12.1-7.4-.4-11.6-5.9-11.2-13.3.4-7.4 5.1-12.5 12.6-12.1 7.4.3 11.6 5.8 11.2 13.3zm-6.1-.3c.3-6.4-1.4-10.1-5.3-10.3-4-.2-6 3.3-6.4 9.7-.3 6.4 1.4 10.1 5.3 10.3 4 .2 6.1-3.3 6.4-9.7zM274.9 590.8c-.2 0-.3-.1-.3-.3l.1-1.3c0-.2.1-.2.3-.3.6-.1 2.7-.1 2.9-3.6l.6-10.9c.1-2.6-1.3-4.1-3.8-4.2-2.7-.1-4.7 1.8-5.6 2.7l-.6 11.9c-.2 3.5 1.7 3.7 2.3 3.8.2.1.3.1.3.3l-.1 1.3c0 .2-.1.3-.3.3l-10.6-.6c-.2 0-.3-.1-.3-.3l.1-1.3c0-.2.1-.2.3-.3.6-.1 3-.1 3.2-3.6l.5-10.2c.2-3.3-1.1-3.6-2.8-3.9-.2 0-.3-.1-.3-.4l.1-1 7.1-3.2 1 .1c.2 0 .3.1.3.3l-.2 3.3h.3c1.5-1.6 4.1-3.7 7.7-3.5 3.4.2 5.2 2.3 5.9 4.2h.3c1.9-1.7 4.5-3.7 8.2-3.5 4 .2 6.4 3 6.2 7.1l-.6 12.3c-.2 3.5 2.4 3.8 3 3.9.2.1.3.1.3.3l-.1 1.3c0 .2-.1.3-.3.3l-11-.6c-.2 0-.3-.1-.3-.3l.1-1.3c0-.2.1-.2.3-.3.6-.1 2.8-.1 3-3.6l.6-10.9c.1-2.6-1.3-4.1-3.8-4.2-2.6-.1-4.6 1.8-5.5 2.6l-.6 12c-.2 3.5 1.8 3.7 2.5 3.9.2.1.3.1.3.3l-.1 1.3c0 .2-.1.3-.3.3l-10.3-.2zM311.5 587.1c-.2 3.5 1.8 3.7 3.4 3.9.2 0 .3.1.3.3l-.1 1.3c0 .2-.1.3-.3.3l-12.2-.6c-.2 0-.3-.1-.3-.3l.1-1.3c0-.2.1-.3.3-.3 1.6 0 3.6-.1 3.8-3.5l.5-10.4c.2-3.3-1.2-3.6-2.8-3.9-.2 0-.3-.1-.3-.4l.1-1 7.2-3.2 1.1.1c.2 0 .3.1.3.3l-1.1 18.7zm-1.5-29.7c2.1.1 3.6 1.8 3.5 3.9-.1 2-1.8 3.6-3.9 3.5-2-.1-3.6-1.8-3.5-3.9.2-2 1.9-3.6 3.9-3.5zM334.7 576.7c-.1.3-.2.4-.5.4l-1.2-.1c-.1-2.8-1.1-5.5-4.3-5.6-2.5-.1-4.2 1.2-4.3 3-.1 2.5 2.6 3.5 5.1 4.5 3.7 1.6 7.1 3.6 6.8 8.2-.2 4.1-3.2 7.5-9.7 7.2-3.4-.2-7-1.3-9.1-2.3l2.1-6.8c.1-.2.2-.3.4-.3l1.3.1c.4 4.1 2.1 6.7 5.5 6.8 2.1.1 4.1-.8 4.2-3.3.1-2.4-1.8-3.7-5.1-5-3.9-1.6-6.4-3.9-6.2-7.7.2-4.3 4-7.2 9.3-6.9 3.7.2 6.7 1.5 7.5 1.9l-1.8 5.9zM358 587c.4.1 1.1.4 1.3.6-.6 2.9-3.6 8.3-10.2 8-5.8-.3-10.5-4.8-10.1-12.7.4-7.7 5.4-13 12-12.7 6.4.3 9.1 5.6 8.8 11.8 0 .1-.1.2-.3.2l-15.6-.8c-.1 5.6 2.6 9 7 9.2 3.8.1 6.1-2.3 7.1-3.6zm-3.9-8c.2-3.4-1.2-6-4.1-6.1-2.5-.1-5 1.5-5.8 5.6l9.9.5zM378.8 579.1c-.1.3-.2.4-.5.4l-1.2-.1c-.1-2.8-1.1-5.5-4.3-5.6-2.5-.1-4.2 1.2-4.3 3-.1 2.5 2.6 3.5 5.1 4.5 3.7 1.6 7.1 3.6 6.8 8.2-.2 4.1-3.2 7.5-9.7 7.2-3.4-.2-7-1.3-9.1-2.3l2.1-6.8c.1-.2.2-.3.4-.3l1.3.1c.4 4.1 2.1 6.7 5.5 6.8 2.1.1 4.1-.8 4.2-3.3.1-2.4-1.8-3.7-5.1-5-3.9-1.6-6.4-3.9-6.2-7.7.2-4.3 4-7.2 9.3-6.9 3.7.2 6.7 1.5 7.5 1.9l-1.8 5.9zM421.2 586.5c-.4 7.4-5.1 12.5-12.6 12.1-7.4-.4-11.6-5.9-11.2-13.3.4-7.4 5.1-12.5 12.6-12.1 7.4.3 11.6 5.9 11.2 13.3zm-6.1-.3c.3-6.4-1.4-10.1-5.3-10.3-4-.2-6 3.3-6.4 9.7-.3 6.4 1.4 10.1 5.3 10.3 4 .2 6.1-3.3 6.4-9.7zM427.1 574.3c.5-8.6 4.3-10.8 9.1-10.5 4.4.2 5.8 2.4 5.6 5-.1 2.1-1.2 3.5-3.2 3.4-1.5-.1-2.8-1.1-2.7-3 .1-1.3.7-2 .7-2.5 0-.2-.2-.4-.8-.4-1.6-.1-3.4.6-3.7 6.3 0 .9-.1 2.5-.1 2.5l5.5.3c.2 0 .3.1.3.3l-.2 2.9c0 .2-.1.3-.3.3l-5.5-.3-.8 14.9c-.2 3.5 1.8 3.7 3.4 3.9.2 0 .3.1.3.3l-.1 1.3c0 .2-.1.3-.3.3l-12.2-.6c-.2 0-.3-.1-.3-.3l.1-1.3c0-.2.1-.3.3-.3 1.6 0 3.6-.1 3.8-3.5l.8-14.9-3.9-.2c-.2 0-.3-.1-.3-.3l.1-1.4c0-.2.1-.3.3-.4l4.1-1.8zM466 598.5c-1.5 1.4-3.4 2.9-6.8 2.8-4.4-.2-6.8-3.1-6.6-6.7.2-3.6 2.9-6 7.4-6.8l6.4-1.1.1-2.4c.1-2.8-.1-5.8-3.5-6-2.3-.1-3.3 1.2-3.3 1.7 0 .4.6 1.2.6 2.6-.1 1.8-1.4 2.9-3.2 2.8-2.1-.1-3.2-1.8-3.1-3.7.1-2.7 2.7-6 9.4-5.7 8.1.4 8.5 5.6 8 11.3l-.5 8.6c-.1 1.8.4 2.5 1.2 2.5.7 0 1.2-.4 1.4-.7.2-.1.3-.1.4 0l.7.6c.1.1.1.2 0 .4-.6 1.2-2.1 3.1-4.5 2.9-1.9-.1-3.1-1.4-3.6-3.2l-.5.1zm.2-9.2l-4.7 1.3c-1.7.5-3.2 1.4-3.4 3.4-.1 1.8 1.1 3.1 3.3 3.2 1.8.1 3.3-.6 4.4-1.4l.4-6.5zM498.3 581.5h.2c1.8-1.6 4.4-3.5 8.1-3.3 4.3.2 6.6 3.1 6.4 7.7l-.6 11.7c-.2 3.5 2.2 3.7 2.8 3.9.2.1.3.1.3.4l-.1 1.3c0 .2-.1.3-.3.3l-10.9-.6c-.2 0-.3-.1-.3-.3l.1-1.3c0-.2.1-.2.3-.3.6-.1 2.8-.1 3-3.6l.5-10.2c.2-3-1.1-4.8-3.7-4.9-2.7-.1-4.9 1.6-6 2.8l-.6 11.8c-.2 3.5 1.6 3.7 2.3 3.8.2.1.3.1.3.3l-.1 1.3c0 .2-.1.3-.3.3l-10.6-.6c-.2 0-.3-.1-.3-.3l.1-1.3c0-.2.1-.2.4-.3.6-.1 3-.1 3.2-3.6l1.1-21.6c.2-3.5-1.3-3.7-2.8-3.9-.2 0-.3-.1-.3-.3l.1-1 7.2-3 1.1.1c.2 0 .3.1.3.3l-.9 14.4zM540.7 592.8c-.4 7.4-5.1 12.5-12.6 12.1-7.4-.4-11.6-5.9-11.2-13.4.4-7.4 5.1-12.5 12.6-12.1 7.4.4 11.6 5.9 11.2 13.4zm-6.1-.4c.3-6.4-1.4-10.1-5.3-10.3-4-.2-6 3.3-6.4 9.7-.3 6.4 1.4 10.1 5.3 10.3 4 .2 6.1-3.2 6.4-9.7zM556.9 605.6c-.2 0-.3-.1-.3-.3l.1-1.3c0-.2.1-.2.3-.3.6-.1 2.7-.1 2.9-3.6l.6-10.9c.1-2.6-1.3-4.1-3.8-4.2-2.7-.1-4.7 1.8-5.6 2.7l-.6 11.9c-.2 3.5 1.7 3.7 2.3 3.8.2.1.3.1.3.3l-.1 1.3c0 .2-.1.3-.3.3l-10.6-.6c-.2 0-.3-.1-.3-.3l.1-1.3c0-.2.1-.2.3-.3.6-.1 3-.1 3.2-3.6l.5-10.2c.2-3.3-1.1-3.6-2.8-3.9-.2 0-.3-.1-.3-.4l.1-1 7.1-3.2 1 .1c.2 0 .3.1.3.3l-.2 3.3h.3c1.5-1.6 4.1-3.7 7.7-3.5 3.4.2 5.2 2.3 5.9 4.2h.3c1.9-1.7 4.5-3.7 8.2-3.5 4 .2 6.4 3 6.2 7.1l-.6 12.3c-.2 3.5 2.4 3.8 3 3.9.2.1.3.1.3.3l-.1 1.3c0 .2-.1.3-.3.3l-11-.6c-.2 0-.3-.1-.3-.3l.1-1.3c0-.2.1-.2.3-.3.6-.1 2.8-.1 3-3.6l.6-10.9c.1-2.6-1.3-4.1-3.8-4.2-2.6-.1-4.6 1.8-5.5 2.6l-.6 12c-.2 3.5 1.8 3.7 2.5 3.9.2.1.3.1.3.3l-.1 1.3c0 .2-.1.3-.3.3l-10.3-.2zM603 599.8c.4.1 1.1.4 1.3.6-.6 2.9-3.6 8.3-10.2 8-5.8-.3-10.5-4.8-10.1-12.7.4-7.7 5.4-13 12-12.7 6.4.3 9.1 5.6 8.8 11.8 0 .1-.1.2-.3.2l-15.6-.8c-.1 5.6 2.6 9 7 9.2 3.8.1 6.1-2.3 7.1-3.6zm-3.9-8c.2-3.4-1.2-6-4.1-6.1-2.5-.1-5 1.5-5.8 5.6l9.9.5zM635.5 609.7c-.2 0-.3-.1-.3-.3l.1-1.3c0-.2.1-.2.3-.3.6-.1 2.7-.1 2.9-3.6l.6-10.9c.1-2.6-1.3-4.1-3.8-4.2-2.7-.1-4.7 1.8-5.6 2.7l-.6 11.9c-.2 3.5 1.7 3.7 2.3 3.8.2.1.3.1.3.3l-.1 1.3c0 .2-.1.3-.3.3l-10.6-.6c-.2 0-.3-.1-.3-.3l.1-1.3c0-.2.1-.2.3-.3.6-.1 3-.1 3.2-3.6l.5-10.2c.2-3.3-1.2-3.6-2.8-3.9-.2 0-.3-.1-.3-.4l.1-1 7.1-3.2 1 .1c.2 0 .3.1.3.3l-.2 3.3h.3c1.5-1.6 4.1-3.7 7.7-3.5 3.4.2 5.2 2.3 5.9 4.2h.3c1.9-1.7 4.5-3.7 8.2-3.5 4 .2 6.4 3 6.2 7.1l-.6 12.3c-.2 3.5 2.4 3.8 3 3.9.2.1.3.1.3.3l-.1 1.3c0 .2-.1.3-.3.3l-11-.6c-.2 0-.3-.1-.3-.3l.1-1.3c0-.2.1-.2.3-.3.6-.1 2.8-.1 3-3.6l.6-10.9c.1-2.6-1.3-4.1-3.8-4.2-2.6-.1-4.6 1.8-5.5 2.6l-.6 12c-.2 3.5 1.8 3.7 2.5 3.9.2.1.3.1.3.3l-.1 1.3c0 .2-.1.3-.3.3l-10.3-.2zM676.6 609.5c-1.5 1.4-3.4 2.9-6.8 2.8-4.4-.2-6.8-3.1-6.6-6.7.2-3.6 2.9-6 7.4-6.8l6.4-1.1.1-2.4c.1-2.8-.1-5.8-3.5-6-2.3-.1-3.3 1.2-3.3 1.7 0 .4.6 1.2.6 2.6-.1 1.8-1.4 2.9-3.2 2.8-2.1-.1-3.2-1.8-3.1-3.7.1-2.7 2.7-6 9.4-5.7 8.1.4 8.5 5.6 8 11.3l-.5 8.6c-.1 1.8.4 2.5 1.2 2.5.7 0 1.2-.4 1.4-.7.2-.1.3-.1.4 0l.7.6c.1.1.1.2 0 .4-.6 1.2-2.1 3.1-4.5 2.9-1.9-.1-3.1-1.4-3.6-3.2l-.5.1zm.2-9.1l-4.7 1.3c-1.7.5-3.2 1.4-3.4 3.4-.1 1.8 1.1 3.1 3.3 3.2 1.8.1 3.3-.6 4.4-1.4l.4-6.5zM708.7 607.4c-.1 2.6 1.4 3.2 3.9 3.3l-.1 1.1c0 .2-.1.3-.3.3l-7.3 1.6c-.2 0-.3-.1-.3-.3l-.6-3h-.3c-1.8 1.8-4.2 3.3-7.5 3.1-5.5-.3-9.8-4.9-9.4-12.5.4-7.8 5.5-13.2 12.1-12.9 3.2.2 4.9 1.6 5.3 2h.3l.3-4.9c.2-3.3-1.5-3.4-3-3.5-.2 0-.3-.1-.3-.3l.1-1 7.3-2.7 1 .1c.2 0 .3.1.3.3l-1.5 29.3zm-4.6-9.8c.2-4-2-6.2-5.2-6.4-3.5-.2-6.6 2.2-6.9 8-.3 6.2 2.9 9.5 6.8 9.7 1.4.1 3.3-.2 4.7-1.2l.6-10.1zM733 606.6c.4.1 1.1.4 1.3.6-.6 2.9-3.6 8.3-10.3 8-5.8-.3-10.5-4.8-10.1-12.7.4-7.7 5.4-13 12-12.7 6.4.3 9.1 5.6 8.8 11.8 0 .1-.1.2-.3.2l-15.6-.8c-.1 5.6 2.6 9 7 9.2 3.9.1 6.2-2.3 7.2-3.6zm-4-7.9c.2-3.4-1.2-6-4.1-6.1-2.5-.1-5 1.5-5.8 5.6l9.9.5zM778.7 591c.1.4-.1.5-.4.5l-2-.1c-1-4.8-2.1-6.3-10.2-6.7l-3.9-.2-.6 12.2 4.5.2c4.5.2 5.2-1.5 5.5-3.8 0-.2.2-.4.4-.4l1.2.1c.2 0 .4.2.4.4l-.6 11.2c0 .2-.2.4-.4.4l-1.2-.1c-.2 0-.4-.2-.4-.4 0-2.4-.6-4.2-5.1-4.4l-4.5-.2-.6 10.9c-.2 3.7 1.4 3.8 3.8 3.9.2 0 .4.2.4.4l-.1 1.2c0 .2-.2.4-.4.4l-13.9-.7c-.2 0-.4-.2-.4-.4l.1-1.2c0-.2.2-.4.4-.4 2.3.1 4 .2 4.2-3.5l1.2-23.3c.2-3.7-1.5-3.8-3.8-3.9-.2 0-.4-.2-.4-.4l.1-1.2c0-.2.2-.4.4-.4l19 1c3.3.2 4 .4 4.3-.2.1-.2.3-.3.6-.3l1 .1c.2 0 .3.1.4.4l1 8.9zM786.9 609.5c-.2 3 1.2 4.6 4.1 4.8 2 .1 3.6-1.1 4.6-2.1l.5-10.4c.2-3.2-.9-3.3-2.6-3.6-.2-.1-.3-.1-.3-.4l.1-1 7-3 1 .1c.2 0 .3.1.3.3l-.9 17.9c-.1 2.6 1.4 3.2 3.9 3.3l-.1 1.1c0 .2-.1.3-.3.3l-7.6 1.6c-.2 0-.3 0-.4-.3l-.3-2.7h-.3c-1.6 1.6-3.7 3.2-6.7 3-4.5-.2-7.3-3.2-7.1-8.2l.5-9.3c.2-3.2-.9-3.3-2.6-3.6-.2-.1-.3-.1-.3-.4l.1-1 7.1-3 1 .1c.2 0 .3.1.3.3l-1 16.2zM814.3 588.7l-.3 6.3 6.2.3c.2 0 .3.1.3.3l-.2 2.9c0 .2-.1.3-.3.3l-6.2-.3-.7 14.2c-.1 2.2 1.1 2.8 2.2 2.9 1.4.1 2.9-1.1 3.8-2l1.4 1.3c-1.7 2.5-4 4.9-7.3 4.7-3.9-.2-5.2-2.8-5-6.1l.8-15.3-3.6-.2c-.2 0-.3-.1-.3-.3l.1-1.2 7.3-7.4c.4-.3.5-.4.9-.4h.9zM830.3 611.8c-.2 3 1.2 4.6 4.1 4.8 2 .1 3.6-1.1 4.6-2.1l.5-10.4c.2-3.2-.9-3.3-2.6-3.6-.2-.1-.3-.1-.3-.4l.1-1 7-3 1 .1c.2 0 .3.1.3.3l-.9 17.9c-.1 2.6 1.4 3.2 3.9 3.3l-.1 1.1c0 .2-.1.3-.3.3l-7.6 1.6c-.2 0-.3 0-.4-.3l-.3-2.7h-.3c-1.6 1.6-3.7 3.2-6.7 3-4.5-.2-7.3-3.2-7.1-8.2l.5-9.3c.2-3.2-.9-3.3-2.6-3.6-.2-.1-.3-.1-.3-.4l.1-1 7.1-3 1 .1c.2 0 .3.1.3.3l-1 16.2zM854.1 605.3c.2-3.3-1.1-3.5-2.8-3.9-.2-.1-.3-.1-.3-.4l.1-1 7.2-3.2 1 .1c.2 0 .3.1.3.3l-.2 3.8h.3c2.1-2.7 4.2-4.1 6.5-4 2 .1 3.6 1.4 3.4 3.7-.1 2-1.4 3.3-3.2 3.2-1.1-.1-1.9-.6-2.2-1.4-.1-.4-.3-.8-.8-.8-1.1-.1-3 1.3-4.3 2.9l-.6 11.1c-.2 3.3 1.5 3.7 3.1 3.9.2 0 .3.1.3.3l-.1 1.3c0 .2-.1.3-.3.3L850 621c-.2 0-.3-.1-.3-.3l.1-1.3c0-.2.1-.3.3-.3 1.6 0 3.3-.3 3.5-3.5l.5-10.3zM889.3 614.8c.4.1 1.1.4 1.3.6-.6 2.9-3.6 8.3-10.2 8-5.8-.3-10.5-4.8-10.1-12.7.4-7.7 5.4-13 12-12.7 6.4.3 9.1 5.6 8.8 11.8 0 .1-.1.2-.3.2l-15.6-.8c-.1 5.6 2.6 9 7 9.2 3.8.1 6.1-2.3 7.1-3.6zm-3.9-8c.2-3.4-1.2-6-4.1-6.1-2.5-.1-5 1.5-5.8 5.6l9.9.5z"/></g><path fill="#f00" d="M-1.2-94V48L1119 243V71.9L165.7-94zM-1.2 287.2v168.9L1119 382.6V213.8z"/><defs><path id="a" d="M-1.2-94H1119v758.5H-1.2z"/></defs><clipPath id="b"><use xlink:href="#a" overflow="visible"/></clipPath><g clip-path="url(#b)" fill="#fff"><path d="M118.2-8.9L131-28.5l-9-34.9c-1.9-7.5-3.4-10.2-7.3-11.3-.7-.3-1-.6-.9-1.3l.6-3.4c.1-.7.6-1 1.3-.9l27.6 4.8c.7.1 1 .6.9 1.3l-.6 3.4c-.1.7-.6 1-1.3.9-4.6-.4-5 3.5-3.9 7.6l4.1 15.9 8.1-12.1c3-4.5 4.2-8.8 0-10-.9-.3-1.1-.8-1-1.4l.6-3.3c.1-.7.6-1 1.3-.9l22.2 3.9c.7.1 1 .6.9 1.3l-.6 3.3c-.1.7-.6 1.2-1.3 1-5.8-.6-9 1.1-14.8 9.9l-12.8 19.1 8.5 32.7 1.2.2L186-50.3c5-7.6 2.8-11.2-3.4-12.7-.7-.1-1-.7-.9-1.4l.6-3.3c.1-.7.6-1 1.3-.9l27.2 4.7c.7.1 1 .6.9 1.3l-.6 3.3c-.1.7-.6 1.2-1.3 1-5.4-.5-8.5 1.2-14.3 10l-48.1 72.9c-.4.6-.8 1.1-1.9.9-1.1-.2-1.3-.8-1.4-1.5l-10.7-41.9-23.6 36c-.4.6-.8 1.1-1.9.9-1.1-.2-1.3-.8-1.4-1.5l-22-87.4c-2.1-8.7-3.3-10.1-8.7-11.5-.7-.1-1-.6-.9-1.3l.6-3.4c.1-.7.6-1 1.3-.9l30.6 5.3c.7.1 1 .6.9 1.3l-.6 3.4c-.1.7-.6 1-1.3.9-5.4-.5-5.5 3.3-3.8 9.9L117-9.1l1.2.2zM233.4-20.8l.7.1c5.6-3.9 13.4-8.4 23.6-6.6 11.9 2.1 17.2 10.9 15 23.4l-5.6 32.3c-1.7 9.6 4.8 11.1 6.5 11.7.7.3.8.3.7 1.1l-.6 3.5c-.1.7-.3.8-1 .7l-30.2-5.2c-.7-.1-.8-.3-.7-1l.6-3.7c.1-.7.3-.7 1-.7 1.8 0 7.8.6 9.4-8.9l4.9-28.1c1.4-8.3-1.4-13.6-8.5-14.8-7.4-1.3-14 2.9-17.6 5.7l-5.7 32.6c-1.7 9.6 3.3 10.8 5 11.4.7.3.9.3.8 1l-.6 3.7c-.1.7-.3.8-1 .7L200.9 33c-.7-.1-.8-.3-.7-1l.6-3.7c.1-.7.4-.6 1.1-.7 1.8 0 8.3.7 10-8.8l10.4-59.6c1.7-9.7-2.4-10.7-6.5-11.7-.7-.1-.8-.3-.7-1l.5-2.9 20.8-5.8 3 .5c.7.1.8.3.7 1l-6.7 39.9zM345.8 24.2c-3.6 20.5-18.4 32.9-38.9 29.4-20.5-3.6-30.2-20.3-26.6-40.8 3.6-20.5 18.4-32.9 38.9-29.4 20.4 3.6 30.1 20.3 26.6 40.8zm-16.7-2.9c3.1-17.7-.4-28.5-11.3-30.4C306.9-11 300-2 296.9 15.7c-3.1 17.7.4 28.5 11.3 30.4 10.9 1.9 17.8-7 20.9-24.8zM417 54.5c-1.8 10.2 2.3 10.9 8.5 12 .7.1 1 .6.9 1.3l-.6 3.3c-.1.7-.6 1-1.3.9l-36.8-6.4c-.7-.1-1-.6-.9-1.3l.6-3.3c.1-.7.6-1 1.3-.9 6.1 1.1 10.2 1.8 12-8.5l11.2-64.1c1.8-10.2-2.3-10.9-8.5-12-.7-.1-1-.6-.9-1.3l.6-3.3c.1-.7.6-1 1.3-.9l36.8 6.4c.7.1 1 .6.9 1.3l-.6 3.3c-.1.7-.6 1-1.3.9-6.1-1.1-10.2-1.8-12 8.5L417 54.5zM486.7 34c-.4.8-.7 1-1.4.9l-3.4-.6c.5-7.9-1.2-15.5-10.1-17.1-7-1.2-12.1 2-13 6.7-1.2 7 5.9 10.4 12.6 14.3 9.8 5.6 18.4 12.3 16.2 25-2 11.3-11.5 19.8-29.3 16.7-9.4-1.6-19.1-6-24.4-9.3l8.2-18.1c.3-.7.6-.9 1.3-.8l3.5.6c-.3 11.5 3.6 19.2 12.8 20.8 5.7 1 11.7-.9 12.9-7.6 1.1-6.5-3.9-10.8-12.6-15.7-10.3-5.7-16.3-12.8-14.5-23.5 2-11.7 13.4-18.6 28.2-16 10.1 1.8 18.1 6.5 20.3 7.8L486.7 34zM620.3 37.1c-3.2 18.4-22.2 26.6-43.9 22.9-7.6-1.3-11.5-2.7-11.5-2.7L561 79.5c-1.8 10.2 2.7 11 9.1 12.1.7.1 1 .6.9 1.3l-.6 3.3c-.1.7-.6 1-1.3.9L531 90.5c-.7-.1-1-.6-.9-1.3l.6-3.3c.1-.7.6-1 1.3-.9 6.4 1.1 10.9 1.9 12.7-8.3l11.1-63.6c1.8-10.2-2.3-10.9-8.5-12-.7-.1-1-.6-.9-1.3l.6-3.3c.1-.5.3-.9 1.3-.9 1.7 0 14.8 1.4 32.8 4.6 33.1 5.8 41.7 22.6 39.2 36.9zm-54 12.6c2.1.9 5.5 1.8 10.2 2.6 10.9 1.9 23.7-3.7 26.1-17.4 2.1-12.3-2.9-23.7-19.8-26.6-4.6-.8-9.1-.7-9.1-.7l-7.4 42.1zM639.6 86.2c-1.4 8.2 1.9 13.3 9.7 14.6 5.6 1 10.4-1.8 13.4-4.4l5-28.5c1.5-8.9-1.3-9.5-6-10.9-.7-.3-.8-.4-.7-1.1l.5-2.7 20.3-5.9 2.9.5c.7.1.8.3.7 1l-8.6 49.4c-1.2 7.1 2.8 9.2 9.6 10.4l-.5 3.1c-.1.5-.4.8-1 .8l-21.6 1.9c-.6 0-1-.2-1-.9l.1-7.7-1-.2c-5 3.8-11.3 7.6-19.6 6.1-12.4-2.2-19.3-11.4-16.9-25l4.4-25.5c1.5-8.9-1.3-9.5-6-10.9-.7-.3-.8-.4-.7-1.1l.5-2.7 20.6-5.8 2.9.5c.7.1.8.3.7 1l-7.7 44zM715.6 106.6c-1.7 9.6 3.7 10.9 8 11.9.7.1.8.3.7 1l-.6 3.7c-.1.7-.3.8-1 .7l-33.6-5.8c-.7-.1-.8-.3-.7-1l.6-3.7c.1-.7.3-.8 1-.7 4.4.5 9.9 1 11.6-8.5L712 44.6c1.6-9.1-2-10.3-6.5-11.7-.5-.1-.8-.3-.7-1.1l.5-2.7 20.8-5.8 3 .5c.7.1.8.3.7 1l-14.2 81.8zM754.2 113.3c-1.7 9.6 3.7 10.9 8 11.9.7.1.8.3.7 1l-.6 3.7c-.1.7-.3.8-1 .7l-33.6-5.8c-.7-.1-.8-.3-.7-1l.6-3.7c.1-.7.3-.8 1-.7 4.4.5 9.9 1 11.6-8.5l10.4-59.6c1.6-9.1-2-10.3-6.5-11.7-.5-.1-.8-.3-.7-1.1l.5-2.7 20.8-5.8 3 .5c.7.1.8.3.7 1l-14.2 81.8zM793.1 120.1c-1.7 9.6 3.7 10.9 8 11.9.7.1.8.3.7 1l-.6 3.7c-.1.7-.3.8-1 .7l-33.6-5.8c-.7-.1-.8-.3-.7-1l.6-3.7c.1-.7.3-.8 1-.7 4.4.5 9.9 1 11.6-8.5l5-28.8c1.6-9.1-2-10.5-6.5-11.7-.5-.1-.8-.3-.7-1.1l.5-2.7 21-6.5 3 .5c.7.1.8.3.7 1l-9 51.7zm5.7-82.8c5.7 1 9.5 6.3 8.5 12-1 5.6-6.3 9.3-12 8.3-5.6-1-9.3-6.3-8.3-11.9.9-5.7 6.2-9.4 11.8-8.4zM871.6 133.7c-1.7 9.6 5.4 11.2 7.1 11.8.7.3.8.3.7 1.1l-.6 3.5c-.1.7-.3.8-1 .7l-30.7-5.3c-.7-.1-.8-.3-.7-1l.6-3.7c.1-.7.3-.7 1-.7 1.8 0 7.8.6 9.4-8.9l4.9-28.1c1.4-8.3-1.4-13.6-8.5-14.8-7.4-1.3-14 2.8-17.6 5.7l-5.7 32.6c-1.7 9.6 3.5 10.9 5.2 11.4.7.3.8.3.7 1l-.6 3.7c-.1.7-.3.8-1 .7l-29.2-5.1c-.7-.1-.8-.3-.7-1l.6-3.7c.1-.7.3-.7 1-.7 1.8 0 8.4.8 10.1-8.8l4.9-28.1c1.6-9.1-2-10.5-6.5-11.7-.7-.1-.8-.4-.7-1.1l.5-2.7 20.8-6.5 2.9.5c.7.1.8.3.7 1l-1.6 9.3 1 .2c5.4-4.1 13.2-8.8 23.7-7 11.9 2.1 17.2 10.9 15 23.4l-5.7 32.3zM921.9 88.4c4.4.8 8.2 2.1 11.5 4l22 3.8c.7.1.8.3.7 1l-1.4 7.9c-.1.7-.3.8-1 .7l-9.6-1.7c1.4 3.5 2.3 8 1.4 12.9-2.3 13.2-14.4 21.3-31.9 18.2-3.3-.6-6.1-1.3-8.7-2.4-1.8 1.5-3.4 3.5-3.7 4.8-.4 2 1.1 3.4 3.4 3.8l19.1 3.3c14.1 2.4 22.1 7.8 20 19.4-2.6 14.3-19.4 24.7-41.6 20.9-16.5-2.9-24.7-9.9-23.1-19.3.8-4.5 7-9.6 13-12.5-5.2-2.5-7-6-6.2-10.2.8-4.6 5.4-9.3 12.9-13.5-7.2-5.2-10.4-12.9-8.8-22.2 2.4-12.8 14.8-21.9 32-18.9zm-22.6 66.9c-2.5 2.4-4.4 4.9-5 8.3-1 5.9 1.2 12.4 13.6 14.6 9.7 1.7 20.6-2.6 21.9-10.5.8-4.6-1.7-7.3-11.4-9l-18.3-3.2-.8-.2zm15.8-26.9c7 1.2 13.2-3.8 15-14.3 1.8-10.1-1.4-17.7-9.2-19-7.4-1.3-13.3 4.7-15.1 14.8-1.8 10.5 1.1 17.1 9.3 18.5z"/></g><g fill="#fff"><path d="M273.4 304.1l1.2 17.6 17.3-1.1c.7 0 .8.1.9.8l.5 8c0 .7-.1.8-.8.9l-17.3 1.1 2.6 39.5c.4 6.2 4.1 7.5 7 7.3 3.9-.3 7.6-4.1 9.8-6.9l4.4 3.2c-4 7.5-9.6 14.9-18.7 15.5-10.9.7-15.4-5.9-16-15.2l-2.8-42.6-10.1.7c-.7 0-.8-.1-.9-.8l-.2-3.5 17.9-23c.9-1 1.3-1.3 2.4-1.4l2.8-.1zM320.6 327.2h.7c4.5-5.2 11.1-11.3 21.4-12 12-.8 19.3 6.5 20.1 19.2l2.1 32.8c.6 9.7 7.3 9.7 9.1 9.8.7.1.8.1.9.9l.2 3.6c0 .7-.1.8-.8.9l-30.5 2c-.7 0-.8-.1-.9-.8l-.2-3.7c0-.7.1-.7.8-.9 1.8-.4 7.7-1.2 7.1-10.9l-1.9-28.5c-.6-8.4-4.6-12.9-11.8-12.4-7.5.5-12.9 6.1-15.7 9.6l2.2 33c.6 9.7 5.8 9.8 7.6 9.9.7.1 1 .1 1 .8l.2 3.7c0 .7-.1.8-.8.9l-29.6 1.9c-.7 0-.8-.1-.9-.8l-.2-3.7c0-.7.2-.7.9-.9 1.8-.4 8.2-1.2 7.6-10.9l-4-60.4c-.6-9.8-4.8-9.8-9.1-9.8-.7 0-.8-.1-.9-.8l-.2-2.9 18.9-10.5 3-.2c.7 0 .8.1.9.8l2.8 40.3zM428.3 355.8c1.3.2 3.1.8 3.8 1.1-.8 8.2-7.3 24.2-25.8 25.4-16.3 1.1-30.8-9.9-32.2-32-1.4-21.4 10.6-37.9 29.2-39.1 17.8-1.2 27.1 12.5 28.2 29.8 0 .4-.2.7-.8.7l-43.7 2.9c1.6 15.4 10.2 24 22.3 23.2 11-.6 16.7-7.9 19-12zm-13.5-20.7c-.6-9.4-5.2-16.2-13.5-15.6-7 .5-13.4 5.9-14.3 17.5l27.8-1.9zM489.6 341.8c3.9 18.6 14.6 26.5 28.5 25.6 12.9-.8 18.5-8.4 17.9-17.1-.7-10.2-9.4-14-21.9-17-13.1-3.2-30.6-7.8-31.9-27.6-.9-14.4 7.2-30 33.7-31.8 12.2-.8 21.5 1.8 27.6 3.6l-4.7 21.8c-.2.7-.6 1-1.3 1.1l-3.6.2c-2.5-12.1-8.7-19.1-20.9-18.3-12.3.8-17.6 8.6-17.1 15.8.7 11.1 14.6 13.3 24.1 15.6 16.8 4 29.7 9.9 30.9 28.4 1.2 17.7-9.3 31.4-34.1 33-15.1 1-27.7-3-37-7l4.9-25c.2-.8.6-1 1.3-1.1l3.6-.2zM574.1 284.4l1.2 17.6 17.3-1.1c.7 0 .8.1.9.8l.5 8c0 .7-.1.8-.8.9l-17.3 1.1 2.6 39.5c.4 6.2 4.1 7.5 7 7.3 3.9-.3 7.6-4.1 9.8-6.9l4.4 3.2c-4 7.5-9.6 14.9-18.7 15.5-10.9.7-15.4-5.9-16-15.2l-2.8-42.6-10.1.7c-.7 0-.8-.1-.9-.8l-.2-3.5 17.9-23c.9-1 1.3-1.3 2.4-1.4l2.8-.1zM610.2 322.5c-.6-9.1-4.2-9.4-9.1-9.8-.7-.1-.8-.2-.9-.9l-.2-2.8 19-11.2 2.9-.2c.7 0 .8.1.9.8l.7 10.6 1-.1c5-8.1 10.4-12.9 16.8-13.3 5.7-.4 10.3 2.8 10.7 9.2.4 5.5-2.7 9.6-8 10-3.2.2-5.3-1-6.6-3.2-.5-.9-1.1-2-2.3-1.9-3.2.2-7.9 4.7-10.9 9.5l2 31c.6 9.1 5.5 9.8 9.9 9.8.7 0 .8.1.9.8l.2 3.7c0 .7-.1.8-.8.9l-32.6 2.1c-.7 0-.8-.1-.9-.8l-.2-3.7c0-.7.1-.8.8-.9 4.4-.6 9.2-1.9 8.6-11l-1.9-28.6zM682.6 346.4c.6 9.7 6.2 9.7 10.6 9.7.7 0 .8.1.9.8l.2 3.7c0 .7-.1.8-.8.9l-34 2.2c-.7 0-.8-.1-.9-.8l-.2-3.7c0-.7.1-.8.8-.9 4.4-.6 9.9-1.3 9.3-11l-1.9-29.2c-.6-9.3-4.4-9.7-9.1-9.8-.6 0-.8-.1-.9-.9l-.2-2.8 18.8-11.2 3-.2c.7 0 .8.1.9.8l3.5 52.4zm-14-81.8c5.8-.4 10.7 3.9 11 9.7.4 5.7-3.9 10.5-9.7 10.9-5.7.4-10.5-3.9-10.9-9.6-.3-5.8 3.9-10.6 9.6-11zM762.2 341.2c.6 9.7 7.8 9.6 9.7 9.8.7.1.8.1.9.9l.2 3.6c0 .7-.1.8-.8.9l-31.1 2c-.7 0-.8-.1-.9-.8l-.2-3.7c0-.7.1-.7.8-.9 1.8-.4 7.7-1.2 7.1-10.9l-1.9-28.5c-.6-8.4-4.6-12.9-11.8-12.4-7.5.5-12.9 6-15.7 9.6l2.2 33c.6 9.7 5.9 9.7 7.7 9.9.7.1.8.1.9.8l.2 3.7c0 .7-.1.8-.8.9l-29.6 1.9c-.7 0-.8-.1-.9-.8l-.2-3.7c0-.7.1-.7.8-.9 1.8-.4 8.4-1.2 7.8-10.9l-1.9-28.5c-.6-9.3-4.4-9.7-9.1-9.8-.7 0-.8-.2-.9-.9l-.2-2.8 18.7-11.2 2.9-.2c.7 0 .8.1.9.8l.6 9.4 1-.1c4.2-5.3 10.8-11.7 21.4-12.4 12-.8 19.3 6.5 20.1 19.2l2.1 33zM800.4 285.2c4.4-.3 8.5.1 12.2 1.1l22.3-1.5c.7 0 .8.1.9.8l.5 8c0 .7-.1.8-.8.9l-9.7.6c2.1 3.1 4.1 7.2 4.4 12.2.9 13.4-9 24-26.7 25.2-3.3.2-6.2.1-9-.2-1.4 1.9-2.5 4.2-2.4 5.6.1 2.1 1.9 3.1 4.2 2.9l19.3-1.3c14.2-.9 23.3 2.4 24 14.1.8 14.5-13 28.6-35.5 30.1-16.7 1.1-26.3-3.8-27-13.4-.3-4.6 4.6-11 9.7-15.2-5.6-1.2-8.2-4.2-8.5-8.5-.3-4.7 3.1-10.3 9.4-16.2-8.3-3.3-13.2-10.1-13.8-19.5-.8-12.8 9.1-24.5 26.5-25.7zm2.8 40.5c7-.5 11.9-6.7 11.2-17.4-.7-10.2-5.5-16.8-13.4-16.3-7.5.5-11.8 7.7-11.2 17.9.7 10.7 5.1 16.4 13.4 15.8zm-9 29.9c-1.9 2.9-3.1 5.8-2.9 9.2.4 5.9 4.1 11.8 16.7 11 9.8-.6 19.4-7.4 18.8-15.4-.3-4.7-3.4-6.7-13.2-6.1l-18.5 1.2-.9.1zM887.5 300.6c-.2.8-.5 1.1-1.2 1.2l-3.5.2c-1.3-7.8-4.9-14.8-13.8-14.2-7 .5-11.3 4.8-11 9.6.5 7 8.2 8.8 15.6 10.9 10.9 3.2 20.8 7.7 21.6 20.5.8 11.5-6.5 21.9-24.6 23.1-9.5.6-19.9-1.3-25.9-3.3l3.7-19.5c.1-.7.4-1 1-1l3.6-.2c2.4 11.2 8 17.8 17.4 17.2 5.8-.4 11.1-3.6 10.7-10.4-.4-6.6-6.3-9.6-15.9-12.3-11.3-3.1-18.9-8.6-19.6-19.4-.8-11.9 8.6-21.2 23.7-22.2 10.2-.7 19.2 2.1 21.6 2.8l-3.4 17zM915.6 317.5c-.7 0-.8-.1-.9-.8l-.2-3c-1.4-21.1 15-27.6 13.9-44.5-.4-6.6-3.5-13.5-12.9-12.9-7.2.5-9.7 4.8-9.6 5.9.1 1.2 3.9 2.7 4.3 7.9.3 4.8-2.6 9.1-8 9.4-5.8.4-9-4-9.4-9.5-.6-9.1 6.7-20.6 25.2-21.8 21-1.4 26.6 12.3 27.2 21 1.3 19.5-22.5 25.3-21.2 44.8l.1 2.1c0 .7-.1.8-.8.9l-7.7.5zm5.4 12.1c5.4-.4 9.8 3.5 10.2 8.9.3 5.3-3.5 9.7-8.9 10-5.3.3-9.7-3.5-10-8.8-.4-5.3 3.5-9.7 8.7-10.1z"/></g><path fill="#00C34B" d="M1012.3-94L-1.2 66.5v170.6L1119 59.7V-94zM675.1 427.7l44 162.6 399.9-108V307.7zM122.8 168l1.1 168.5L1119 330V161.5z"/><defs><path id="c" d="M-1.2-94H1119v758.5H-1.2z"/></defs><clipPath id="d"><use xlink:href="#c" overflow="visible"/></clipPath><g clip-path="url(#d)" fill="#fff"><path d="M264.8 46.8c2.1-.3 3-.6 3.5-1.8.3-.7.6-.9 1.4-1.1l2.9-.5c.7-.1 1 .1 1.2.8l9.4 26.3c.3.8-.1 1-.7 1.1l-6.4 1c-5.4-11.1-11.2-17.4-24.3-15.4l-7.8 1.2 11.4 71.8c1.6 10.3 6.1 9.5 12.6 8.5.7-.1 1.2.2 1.3.9l.5 3.3c.1.7-.2 1.2-.9 1.3l-38.3 6.1c-.7.1-1.2-.2-1.3-.9l-.5-3.3c-.1-.7.2-1.2.9-1.3 6.4-1 10.9-1.7 9.3-12L227.6 61l-7.8 1.2c-13.1 2.1-16.7 9.9-18.4 22.1l-6.4 1c-.5.1-1 0-1-.8l.8-27.9c0-.7.3-1 .9-1.1l2.6-.4c.8-.1 1.1 0 1.6.6.9 1 1.8 1 3.9.6l61-9.5zM311.3 78.3l.7-.1c4-5.5 10-12.2 20.2-13.9C344.1 62.4 352 69 354 81.6l5.1 32.4c1.5 9.6 8.1 8.9 10 8.9.7 0 .8 0 1 .8l.6 3.6c.1.7 0 .8-.7 1l-30.2 4.8c-.7.1-.8 0-1-.7l-.6-3.7c-.1-.7 0-.7.7-1 1.7-.6 7.6-1.9 6-11.5L340.4 88c-1.3-8.3-5.8-12.4-12.9-11.3-7.4 1.2-12.3 7.3-14.8 11l5.2 32.7c1.5 9.6 6.6 9.2 8.5 9.2.7 0 1 0 1.1.7l.6 3.7c.1.7 0 .8-.7 1l-29.3 4.6c-.7.1-.8 0-1-.7l-.6-3.7c-.1-.7.2-.7.8-1 1.7-.6 8.1-2 6.6-11.6L294.6 63c-1.5-9.7-5.7-9.3-10-8.9-.7.1-.8 0-1-.7l-.5-2.9L301 38.3l3-.5c.7-.1.8 0 1 .7l6.3 39.8zM421.2 96.9c1.3.1 3.2.5 3.9.8-.1 8.3-5.1 24.8-23.4 27.7-16.1 2.6-31.5-7.1-35-28.9-3.4-21.2 7.1-38.7 25.5-41.6 17.6-2.8 28.1 10 30.8 27.1.1.4-.2.7-.7.8l-43.2 6.8c3 15.2 12.3 23 24.4 21.1 10.8-1.7 15.7-9.5 17.7-13.8zm-15.4-19.4c-1.5-9.3-6.7-15.6-14.9-14.3-7 1.1-12.8 7.1-12.6 18.7l27.5-4.4zM575.2 20.9c1.9 12-6.5 20-13 23.5 8.7 1 22.9 5.6 25.4 21.4 2 12.9-2.7 29-37.7 34.6-17.1 2.7-35.1 5-36.8 5-1 0-1.2-.2-1.3-.9l-.5-3.3c-.1-.7.2-1.2.9-1.3 6.2-1 10.9-1.7 9.3-12l-10.1-63.5c-1.6-10.3-5.7-9.6-11.9-8.6-.7.1-1.2-.2-1.3-.9l-.5-3.3c-.1-.5 0-1 .9-1.3 1.7-.6 15.8-3.6 33.9-6.5 29.6-4.6 40.6 3.7 42.7 17.1zm-43.5 24.7l10.1-1.6c11.1-1.8 17.4-9.9 15.9-19.3-1.7-10.5-10.2-15.5-22.8-13.5-4.8.8-8.4 2.2-8.4 2.2l5.2 32.2zm7.6 47.9s4.4.1 9.2-.6c14.1-2.2 23.2-9.6 20.8-24.2-2.2-14.1-12.6-18.6-26.2-16.5L533 53.8l6.3 39.7zM635.5 79.5c-3.2 4.7-7.7 10-17 11.5-12 1.9-20.4-4.6-21.9-14.5-1.6-10 4.6-18.1 16.2-22.8l16.7-6.7-1-6.6c-1.2-7.7-3.6-15.8-12.9-14.4-6.3 1-8.3 5.1-8.1 6.5.2 1.1 2.4 2.8 3 6.7.8 5.1-2.3 8.8-7 9.5-5.7.9-9.9-3.1-10.7-8.4-1.2-7.5 4-18 22.5-20.9 22.4-3.6 26.4 10.3 28.6 26.3l3.5 23.8c.6 4.9 2.5 6.6 4.6 6.3 1.9-.3 2.9-1.9 3.5-2.7.3-.5.8-.5 1.1-.3l2.3 1.3c.3.2.4.5.2 1.1-1 3.5-3.9 9.6-10.7 10.7-5.3.8-9.3-2-11.7-6.7l-1.2.3zm-4.8-25l-12 6.4c-4.3 2.2-8.1 5.6-7.2 11.2.8 5.1 4.9 7.8 10.8 6.9 4.9-.8 8.5-3.6 11.3-6.4l-2.9-18.1zM668.3-4.7l2.8 17.4 17.1-2.7c.7-.1.8 0 1 .7l1.3 7.9c.1.7 0 .8-.7 1l-17.1 2.7 6.2 39.1c1 6.2 4.8 7.1 7.6 6.6 3.8-.6 7.2-4.8 9.1-7.8l4.6 2.8c-3.3 7.8-8.2 15.7-17.2 17.2-10.8 1.7-15.9-4.5-17.3-13.7L659 24.4 649 26c-.7.1-.8 0-1-.7l-.5-3.4 15.8-24.5c.8-1.1 1.2-1.4 2.3-1.6l2.7-.5zM715.5-12.2l2.8 17.4 17.1-2.7c.7-.1.8 0 1 .7l1.3 7.9c.1.7 0 .8-.7 1l-17.1 2.7 6.2 39.1c1 6.2 4.8 7.1 7.6 6.6 3.8-.6 7.2-4.8 9.1-7.8l4.6 2.8c-3.3 7.8-8.2 15.7-17.2 17.2-10.8 1.7-15.9-4.5-17.3-13.7l-6.7-42.1-10 1.6c-.7.1-.8 0-1-.7l-.5-3.4 15.8-24.5c.8-1.1 1.2-1.4 2.3-1.6l2.7-.5zM773 48.5c1.5 9.6 7.1 9.1 11.5 8.7.7-.1.8 0 1 .7l.6 3.7c.1.7 0 .8-.7 1l-33.7 5.3c-.7.1-.8 0-1-.7l-.6-3.7c-.1-.7 0-.8.7-1 4.3-1 9.7-2.2 8.2-11.8l-9.5-59.8c-1.5-9.2-5.2-9.1-10-8.9-.5.1-.8 0-1-.8l-.4-2.7L756-33.8l3-.5c.7-.1.8 0 1 .7l13 82.1zM836.3 31.2c1.3.1 3.2.5 3.9.8-.1 8.3-5.1 24.8-23.4 27.7-16.1 2.6-31.5-7.1-35-28.9-3.4-21.2 7.1-38.7 25.5-41.6 17.6-2.8 28.1 10 30.8 27.1.1.4-.2.7-.7.8l-43.2 6.8c3 15.2 12.3 23 24.4 21.1 10.7-1.8 15.7-9.6 17.7-13.8zm-15.5-19.4c-1.5-9.3-6.7-15.6-14.9-14.3-7 1.1-12.8 7.1-12.6 18.7l27.5-4.4z"/></g><g clip-path="url(#d)" fill="#fff"><path d="M781 505.9c2.7 10 6.7 8.9 12.7 7.3.7-.2 1.2.1 1.4.8l.9 3.2c.2.7-.1 1.2-.8 1.4l-36.1 9.8c-.7.2-1.2-.1-1.4-.8l-.9-3.2c-.2-.7.1-1.2.8-1.4 6-1.6 10-2.7 7.3-12.7l-17-62.8c-2.7-10-6.7-8.9-12.7-7.3-.7.2-1.2-.1-1.4-.8l-.9-3.2c-.2-.7.1-1.2.8-1.4l36.1-9.8c.7-.2 1.2.1 1.4.8l.9 3.2c.2.7-.1 1.2-.8 1.4-6 1.6-10 2.7-7.3 12.7l17 62.8zM835.5 457.9c-.1.9-.2 1.2-.9 1.4l-3.3.9c-2.9-7.4-7.7-13.6-16.4-11.2-6.8 1.8-10.2 6.9-8.9 11.6 1.8 6.8 9.8 7 17.4 7.6 11.3 1 21.9 3.4 25.2 15.8 3 11.1-2 22.8-19.5 27.5-9.2 2.5-19.8 2.6-26 1.9l-.2-19.9c0-.7.1-1 .8-1.2l3.5-.9c4.6 10.5 11.3 15.9 20.4 13.4 5.6-1.5 10.2-5.8 8.4-12.3-1.7-6.4-8.1-8.1-18-8.9-11.7-.9-20.2-4.7-23-15.2-3.1-11.5 4.2-22.5 18.8-26.5 9.9-2.7 19.2-1.7 21.7-1.6v17.6zM981.4 418.1c7.2 26.7-4.6 53.6-34 61.6s-53.2-9.3-60.4-36 4.6-53.6 34-61.6 53.2 9.2 60.4 36zm-19.3 5.2c-7.2-26.7-22.3-37.7-39-33.2s-24.2 21.6-16.9 48.3 22.3 37.7 39 33.2 24.2-21.6 16.9-48.3zM1058.6 431c2.5 9.4 9.6 7.9 11.4 7.7.7 0 .8-.1 1.1.7l.9 3.5c.2.7.1.8-.6 1l-30.1 8.1c-.7.2-.8.1-1-.6l-1-3.6c-.2-.7 0-.7.6-1 1.7-.7 7.3-2.7 4.8-12.1l-7.4-27.5c-2.2-8.2-7-11.7-14-9.8-7.2 2-11.5 8.4-13.5 12.6l8.6 32c2.5 9.4 7.7 8.4 9.5 8.2.7 0 .8-.1 1 .6l1 3.6c.2.7.1.8-.6 1l-28.6 7.7c-.7.2-.8.1-1-.6l-1-3.6c-.2-.7 0-.7.6-1 1.7-.7 8-2.9 5.4-12.2l-7.4-27.5c-2.4-9-6.2-8.7-10.9-7.8-.7.2-.9-.1-1.1-.7l-.7-2.7 16.1-14.7 2.8-.8c.7-.2.8-.1 1 .6l2.5 9.1.9-.3c3.1-6 8.2-13.6 18.5-16.3 11.6-3.1 20.2 2.6 23.5 14.9l8.7 31.5zM1076.5 408.9s0-.6-.6-2.1c-9.6-30.1-17.6-39.3-19.5-46.2-2.6-9.6 1.2-14.7 6.7-16.2s11.3 1 13.9 10.6c1.9 7-.5 18.9 6.4 49.8l.6 2.1-7.5 2zm7.8 14.1c5.2-1.4 10.3 1.5 11.7 6.7 1.4 5.1-1.6 10.2-6.8 11.6-5.1 1.4-10.2-1.6-11.5-6.6-1.4-5.3 1.5-10.4 6.6-11.7z"/></g><g fill="#fff"><path d="M442.3 215.6c-.2-24.1 10.2-30.7 23.6-30.8 12.2-.1 16.5 5.8 16.6 12.9 0 6-2.8 10-8.2 10-4.3 0-8.1-2.6-8.1-8 0-3.6 1.6-5.8 1.6-7.1 0-.7-.6-1-2.2-1-4.6 0-9.4 2.1-9.3 18.1 0 2.6.2 6.9.2 6.9l15.4-.1c.7 0 .8.1.8.8l.1 8c0 .7-.1.8-.8.8l-15.4.1.3 41.7c.1 9.7 5.6 10.1 10 10.3.7 0 .8.1.8.8v3.7c0 .7-.1.8-.8.8l-34.1.2c-.7 0-.8-.1-.8-.8v-3.7c0-.7.1-.8.8-.8 4.4-.3 10-.8 9.9-10.5l-.3-41.7-10.8.1c-.7 0-.8-.1-.8-.8v-4c0-.7.3-.8.8-1.1l10.7-4.8zM540.4 249.9c.1 20.8-12.2 35.7-33 35.8-20.8.1-33.3-14.6-33.5-35.4-.1-20.8 12.2-35.7 33-35.8 20.8-.1 33.4 14.6 33.5 35.4zm-16.9.1c-.1-18-5.4-27.9-16.5-27.9-11.1.1-16.3 10.1-16.2 28.1.1 18 5.4 27.9 16.5 27.9 11.1-.1 16.3-10.1 16.2-28.1zM553.5 239c-.1-9.1-3.7-9.7-8.5-10.3-.7-.1-.8-.3-.8-1v-2.8l19.6-10.1h2.9c.7 0 .8.1.8.8l.1 10.7h1c5.5-7.8 11.1-12.3 17.5-12.3 5.7 0 10.1 3.4 10.2 9.8 0 5.5-3.3 9.4-8.5 9.5-3.2 0-5.3-1.4-6.4-3.6-.4-1-1-2.1-2.2-2.1-3.2 0-8.1 4.2-11.4 8.8l.2 31c.1 9.1 4.9 10.1 9.3 10.3.7 0 .8.1.8.8v3.7c0 .7-.1.8-.8.8l-32.7.2c-.7 0-.8-.1-.8-.8v-3.7c0-.7.1-.8.8-.8 4.4-.3 9.3-1.3 9.2-10.4l-.3-28.5zM718.9 214.3c.1 18.7-17.1 30.2-39.1 30.3-7.8.1-11.8-.6-11.8-.6l.1 22.6c.1 10.4 4.6 10.4 11.1 10.3.7 0 1.1.4 1.1 1.1v3.3c0 .7-.4 1.1-1.1 1.1l-38.8.3c-.7 0-1.1-.4-1.1-1.1v-3.3c0-.7.4-1.1 1.1-1.1 6.5 0 11.1-.1 11-10.5l-.4-64.5c-.1-10.4-4.2-10.4-10.5-10.3-.7 0-1.1-.4-1.1-1.1v-3.3c0-.6.1-1 1.1-1.1 1.7-.3 14.8-1.2 33.1-1.3 33.7-.3 45.2 14.7 45.3 29.2zm-51 22c2.2.5 5.7.8 10.5.8 11.1-.1 22.7-7.9 22.6-21.8-.1-12.5-7.1-22.8-24.2-22.7-4.7 0-9.1.9-9.1.9l.2 42.8zM744.1 266.3c.1 9.7 5.6 10.1 10 10.3.7 0 .8.1.8.8v3.7c0 .7-.1.8-.8.8l-34.1.2c-.7 0-.8-.1-.8-.8v-3.7c0-.7.1-.8.8-.8 4.4-.3 10-.8 9.9-10.5l-.4-60.5c-.1-9.3-3.8-9.8-8.5-10.3-.6 0-.8-.1-.8-1v-2.8l19.5-9.4h3c.7 0 .8.1.8.8l.6 83.2zM796.4 275.1c-3.9 4.2-9.1 8.8-18.5 8.8-12.2.1-19.4-7.6-19.5-17.6-.1-10.1 7.2-17.2 19.4-20.1l17.6-4.1v-6.6c-.1-7.8-1.2-16.2-10.6-16.1-6.4 0-9 3.8-9 5.2 0 1.1 2 3.2 2 7.1 0 5.1-3.5 8.3-8.4 8.4-5.8 0-9.3-4.5-9.3-9.9 0-7.6 6.7-17.2 25.4-17.3 22.7-.1 24.6 14.1 24.3 30.3l-.1 24.1c-.1 5 1.4 6.9 3.6 6.9 1.9 0 3.2-1.4 3.9-2.1.4-.4.8-.4 1.1-.1l2.1 1.6c.3.3.3.6 0 1.1-1.5 3.3-5.3 8.9-12.1 8.9-5.4 0-8.9-3.4-10.6-8.4l-1.3-.1zm-1-25.5l-12.9 4.5c-4.6 1.6-8.8 4.4-8.8 10 0 5.1 3.7 8.4 9.6 8.4 5 0 9-2.3 12.2-4.7l-.1-18.2zM870.5 233.2c-.3.8-.5 1.1-1.2 1.1h-3.5c-.9-7.9-4-15.1-13-15-7.1 0-11.6 4.1-11.6 8.9 0 7.1 7.7 9.2 14.9 11.8 10.7 3.8 20.3 8.9 20.4 21.8.1 11.5-7.8 21.5-25.9 21.6-9.6.1-19.8-2.5-25.7-4.8l4.9-19.3c.1-.7.4-1 1.1-1h3.6c1.7 11.3 6.9 18.2 16.3 18.2 5.8 0 11.3-3 11.3-9.8 0-6.6-5.7-9.9-15.2-13.2-11.1-3.8-18.3-9.7-18.4-20.5-.1-11.9 9.8-20.7 24.9-20.8 10.2-.1 19 3.2 21.4 4l-4.3 17zM905 196.2l.1 17.6 17.3-.1c.7 0 .8.1.8.8l.1 8c0 .7-.1.8-.8.8l-17.3.1.3 39.6c0 6.2 3.7 7.7 6.6 7.7 3.9 0 7.9-3.7 10.2-6.3l4.2 3.4c-4.4 7.2-10.4 14.3-19.6 14.4-10.9.1-15-6.8-15.1-16.1l-.3-42.7-10.1.1c-.7 0-.8-.1-.8-.8v-3.5l19.2-21.9c1-1 1.4-1.3 2.5-1.3l2.7.2zM953.1 264.9c.1 9.7 5.6 10.1 10 10.3.7 0 .8.1.8.8v3.7c0 .7-.1.8-.8.8l-34.1.2c-.7 0-.8-.1-.8-.8v-3.7c0-.7.1-.8.8-.8 4.4-.3 10-.8 9.9-10.5l-.2-29.2c-.1-9.3-3.8-9.9-8.5-10.3-.6 0-.8-.1-.8-1v-2.8l19.5-10.1h3c.7 0 .8.1.8.8l.4 52.6zm-9.1-82.5c5.8 0 10.4 4.5 10.5 10.3 0 5.7-4.5 10.3-10.3 10.3-5.7 0-10.3-4.5-10.3-10.2-.1-5.8 4.4-10.4 10.1-10.4zM998.7 211.3c8.7-.1 17.1 2.7 22.2 4.7l-7.3 20.1c-.3.7-.7.8-1.4.8h-2.8c-1-9.3-4.1-17.7-13.8-17.6-8.9.1-17.3 8.1-17.2 23.1.1 16.1 8.7 24.9 21.4 24.8 10.9-.1 16.2-6.6 18.4-10 1.2.3 3.1.9 3.7 1.4-1.6 7.8-7.6 23.7-26.6 23.9-15.5.1-30-10.2-30.1-33.7-.1-22.2 13.6-37.4 33.5-37.5z"/></g><path fill="#005FFF" d="M405.9-94L-1.2 484.8v179.7h79.6L612-94z"/><defs><path id="e" d="M-1.2-94H1119v758.5H-1.2z"/></defs><clipPath id="f"><use xlink:href="#e" overflow="visible"/></clipPath><g clip-path="url(#f)" fill="#fff"><path d="M102 517.7c8.5 6 10.9 2.6 14.5-2.5.4-.6 1-.7 1.5-.3l2.7 1.9c.6.4.7 1 .3 1.5l-21.5 30.6c-.4.6-1 .7-1.5.3l-2.7-1.9c-.6-.4-.7-1-.3-1.5 3.6-5.1 6-8.5-2.5-14.5l-53.2-37.5c-8.5-6-10.9-2.6-14.5 2.5-.4.6-1 .7-1.5.3l-2.7-1.9c-.6-.4-.7-1-.3-1.5l21.5-30.6c.4-.6 1-.7 1.5-.3l2.7 1.9c.6.4.7 1 .3 1.5-3.6 5.1-6 8.5 2.5 14.5l53.2 37.5zM66.9 447.9L81.3 458l10-14.2c.4-.6.6-.6 1.2-.2l6.6 4.6c.6.4.6.6.2 1.2l-10 14.2 32.4 22.8c5.1 3.6 8.4 1.5 10.1-.9 2.2-3.2 1.6-8.5.8-12l5.2-1.4c3.3 7.8 5.6 16.8.4 24.3-6.3 8.9-14.3 8.2-21.9 2.9l-34.9-24.5-5.8 8.3c-.4.6-.6.6-1.2.2l-2.8-2-6.6-28.4c-.2-1.4-.2-1.9.4-2.8l1.5-2.2zM177.1 410.9c8.5 6 10.9 2.6 14.5-2.5.4-.6 1-.7 1.5-.3l2.7 1.9c.6.4.7 1 .3 1.5l-21.5 30.6c-.4.6-1 .7-1.5.3l-2.7-1.9c-.6-.4-.7-1-.3-1.5 3.6-5.1 6-8.5-2.5-14.5L114.4 387c-8.5-6-10.9-2.6-14.5 2.5-.4.6-1 .7-1.5.3l-2.7-1.9c-.6-.4-.7-1-.3-1.5l21.5-30.6c.4-.6 1-.7 1.5-.3l2.7 1.9c.6.4.7 1 .3 1.5-3.6 5.1-6 8.5 2.5 14.5l53.2 37.5zM188.3 339.1c.5.7.6 1.1.2 1.7l-2 2.8c-6.9-3.9-14.6-5.5-19.8 1.8-4.1 5.8-3.4 11.8.6 14.6 5.8 4.1 12-.9 18.3-5.3 9.3-6.5 19-11.4 29.5-3.9 9.4 6.6 13 18.8 2.6 33.6-5.5 7.8-13.5 14.7-18.8 18.1L186 387.4c-.5-.5-.6-.9-.2-1.5l2.1-2.9c10.2 5.2 18.9 5 24.3-2.7 3.3-4.8 4.2-11-1.4-14.9-5.4-3.8-11.4-1.1-19.6 4.7-9.5 6.8-18.6 9.3-27.4 3.1-9.7-6.9-11.1-20-2.5-32.4 5.9-8.4 13.6-13.6 15.7-15.1l11.3 13.4zM221 207.8c1.2-1.7 1.6-2.6 1.1-3.8-.3-.7-.3-1 .2-1.7l1.7-2.4c.4-.6.8-.6 1.4-.3l25.4 11.6c.8.4.6.8.3 1.2l-3.7 5.3c-11.7-3.8-20.3-4.1-28 6.8l-4.5 6.5 59.5 41.8c8.5 6 11.1 2.2 14.9-3.1.4-.6 1-.7 1.5-.3l2.7 1.9c.6.4.7 1 .3 1.5l-22.3 31.7c-.4.6-1 .7-1.5.3l-2.7-1.9c-.6-.4-.7-1-.3-1.5 3.7-5.3 6.4-9.1-2.1-15l-59.5-41.8-4.5 6.5c-7.7 10.9-4.5 18.9 3.1 28.6l-3.7 5.3c-.3.5-.7.7-1.3.1l-19.5-20c-.5-.5-.6-.9-.2-1.5l1.5-2.2c.5-.7.8-.8 1.6-.8 1.3.1 2-.6 3.2-2.3l35.4-50.5zM237.7 181.5c3.3-4.8 9.7-5.9 14.5-2.5 4.6 3.3 5.8 9.6 2.4 14.4-3.3 4.6-9.6 5.8-14.3 2.5-4.7-3.4-5.8-9.8-2.6-14.4zm72.5 40.5c7.9 5.6 11.5 1.3 14.2-2.2.4-.6.6-.6 1.2-.2l3.1 2.2c.6.4.6.6.2 1.2l-19.6 27.9c-.4.6-.6.6-1.2.2l-3.1-2.2c-.6-.4-.6-.6-.2-1.2 2.3-3.8 5.2-8.6-2.8-14.1l-23.9-16.8c-7.6-5.3-10.3-2.7-13.4.9-.3.5-.6.6-1.3.1l-2.3-1.6 3.1-21.7 1.8-2.5c.4-.6.6-.6 1.2-.2l43 30.2zM355.9 184.4c-.4.6-.6.6-1.2.2l-3.1-2.2c-.6-.4-.5-.5-.2-1.2.8-1.6 3.7-6.5-4.2-12.1l-24.9-17.5c-5.9-4.1-11.6-2.9-15.6 2.6-4.4 6.2-2.6 13.8-1.8 17.2l27.2 19.1c7.9 5.6 11.3 1.5 12.6.2.5-.5.6-.6 1.2-.2l3.1 2.2c.6.4.6.6.2 1.2l-17.1 24.2c-.4.6-.6.6-1.2.2l-3.1-2.2c-.6-.4-.5-.5-.2-1.2.8-1.6 4.3-7.3-3.6-12.9l-23.3-16.4c-7.6-5.3-10.3-2.7-13.4.9-.4.6-.7.5-1.3.1l-2.3-1.6 3-21.6 1.7-2.4c.4-.6.6-.6 1.2-.2l7.6 5.3.6-.8c-1.5-5.8-2.6-15.1 3.2-23.3 5.5-7.8 13.1-9 18.8-7.8l.5-.7c-1.1-7.1-2.1-16 3.9-24.5 6.4-9.1 16.7-10.8 26-4.2l28.2 19.8c7.9 5.6 12.4-.1 13.7-1.4.5-.5.6-.6 1.2-.2l3.1 2.2c.6.4.6.6.2 1.2l-17.8 25.3c-.4.6-.6.6-1.2.2l-3.1-2.2c-.6-.4-.5-.5-.2-1.2.8-1.6 3.9-6.7-4-12.3l-24.9-17.5c-5.9-4.1-11.6-3.1-15.6 2.6-4.2 6-2.5 13.5-1.8 16.8l27.4 19.3c7.9 5.6 11.5 1.2 12.8-.1.5-.5.6-.6 1.2-.2l3.1 2.2c.6.4.6.6.2 1.2l-16.8 23.9zM409.8 67.8c.9-.9 2.5-1.9 3.3-2.3 5.9 5.8 14.3 20.9 3.6 36.1-9.4 13.4-27 17.7-45.2 5-17.6-12.4-22.9-32-12.1-47.3 10.3-14.6 26.7-13.2 40.9-3.2.3.2.4.6.1 1.1L375.2 93c13 8.5 25.1 7.2 32.1-2.8 6.3-9 4.2-18 2.5-22.4zm-24.7-2.4c-7.7-5.4-15.9-6.1-20.7.7-4.1 5.8-3.8 14.1 4.6 22.1l16.1-22.8zM401.3-27.4l14.4 10.1 10-14.2c.4-.6.6-.6 1.2-.2l6.6 4.6c.6.4.6.6.2 1.2l-10 14.2L456 11.1c5.1 3.6 8.4 1.5 10.1-.9 2.2-3.2 1.6-8.5.8-12l5.2-1.4c3.3 7.8 5.6 16.8.4 24.3-6.3 8.9-14.3 8.2-21.9 2.9L415.7-.5l-5.8 8.3c-.4.6-.6.6-1.2.2l-2.8-2-6.6-28.4c-.2-1.4-.2-1.9.4-2.8l1.6-2.2z"/></g><path fill="#005FFF" d="M1085-94L336.9 329.3l83 146.6L1119 80.4V-94z"/><defs><path id="g" d="M-1.2-94H1119v758.5H-1.2z"/></defs><clipPath id="h"><use xlink:href="#g" overflow="visible"/></clipPath><g clip-path="url(#h)" fill="#fff"><path d="M452.9 292.2c1.8-1 2.6-1.6 2.6-2.9 0-.8.2-1.1.9-1.5l2.5-1.4c.6-.3 1-.2 1.4.3l18 21.3c.5.7.2 1-.2 1.3l-5.7 3.2c-8.9-8.5-16.6-12.4-28.1-5.9l-6.9 3.9 35.8 63.3c5.1 9 9.1 6.8 14.8 3.6.6-.3 1.2-.2 1.5.4l1.6 2.9c.3.6.2 1.2-.4 1.5L457 401.3c-.6.3-1.2.2-1.5-.4l-1.6-2.9c-.3-.6-.2-1.2.4-1.5 5.7-3.2 9.6-5.5 4.5-14.5L423 318.7l-6.9 3.9c-11.6 6.5-12.1 15.1-9.5 27.2L401 353c-.5.3-.9.4-1.2-.4l-9-26.4c-.2-.7-.1-1 .5-1.4l2.3-1.3c.7-.4 1-.4 1.7 0 1.1.6 2.1.3 3.9-.8l53.7-30.5zM543.1 345c-1.3 5.5-3.7 12.1-11.9 16.7-10.6 6-20.7 2.8-25.6-5.9-5-8.8-2.1-18.6 7.2-27l13.3-12.2-3.3-5.8c-3.8-6.8-8.9-13.6-17.1-8.9-5.5 3.1-6 7.7-5.3 8.9.5 1 3.3 1.8 5.2 5.2 2.5 4.5 1 9-3.3 11.4-5.1 2.9-10.3.6-13-4.1-3.8-6.6-2.5-18.3 13.7-27.5 19.8-11.2 28.4.3 36 14.7l11.6 21.1c2.3 4.4 4.6 5.3 6.5 4.3 1.7-1 2.1-2.8 2.4-3.7.2-.6.5-.8.9-.7l2.6.4c.4.1.5.3.5 1 .3 3.6-.3 10.4-6.2 13.7-4.7 2.7-9.4 1.4-13.3-2.2l-.9.6zm-13.3-21.8l-9 10.2c-3.2 3.6-5.6 8.1-2.8 13 2.5 4.5 7.3 5.6 12.5 2.6 4.3-2.5 6.7-6.4 8.4-10l-9.1-15.8zM540.2 266.6c-4.8-8.6-8.6-6.8-12.5-4.9-.6.3-.8.3-1.1-.3l-1.4-2.5c4.1-6 8.3-11.7 12.4-17.7l2.7-1.5c.6-.3.8-.3 1.1.3l29.7 52.6 7.6-22c1.8-5.8-.9-8.1-5.8-5.8-.6.3-.9.2-1.2-.4l-1.8-3.1c-.3-.6-.3-.8.3-1.1l26.2-14.8c.6-.3.8-.3 1.1.3l1.7 3c.4.7.4.9-.2 1.4-3.2 2.3-7.3 5.7-10.9 16.4l-6.2 18 32.6 12.4c4.2 1.6 10.7 2.9 15.6.4.6-.3.8-.3 1.1.3l1.8 3.3c.3.6.3.8-.3 1.1l-28.4 16.1c-.6.3-.8.3-1.1-.3l-1.8-3.3c-.3-.6-.1-.7.4-1.2 2.6-1.9 2.2-4.3-4.6-7l-23.5-8.8 8.5 14.9c4.8 8.4 9.4 6.3 11.1 5.6.7-.2.9-.4 1.3.2l1.8 3.3c.3.6.3.8-.3 1.1l-25.8 14.6c-.6.3-.8.3-1.1-.3l-1.8-3.3c-.3-.6-.1-.7.4-1.2 1.4-1.1 6.9-4.7 2.1-13.1l-29.7-52.7zM668.6 255.2c1.2-.4 3.1-.7 3.9-.6 2.8 7.8 3.9 25-12.2 34.1-14.2 8-32 4.4-42.9-14.9-10.6-18.7-6.9-38.7 9.3-47.9 15.6-8.8 29.8-.5 38.3 14.6.2.4.1.7-.4 1l-38.1 21.6c8.1 13.2 19.6 17.2 30.2 11.2 9.6-5.4 11.5-14.4 11.9-19.1zm-21.3-12.8c-4.6-8.2-11.7-12.3-19-8.2-6.1 3.5-9.5 11.1-5.3 21.9l24.3-13.7zM750.8 156.5c-7.9-10-18.9-14-30-7.7-13.7 7.8-19.8 27.1-8.2 47.7 5.6 9.9 12.8 15.7 20.1 18.4 8.7 3.2 18.3 2 26.7-2.7 12.9-7.3 17.8-20.6 16.9-35.4l3.9-.9c1.1-.3 1.4.3 1.7 1.1 5.6 13.9 5.8 39.5-17.2 52.5-10.6 6-24.1 8.1-36.7 3.1-9.6-3.8-18.5-11.6-25.1-23.3-14.7-25.9-9.5-55.6 19.1-71.7 9.8-5.5 20.8-8.6 28.2-9.6l4.5 25.1c.1.7-.1 1.2-.7 1.5l-3.2 1.9zM793.2 143.8l.6-.3c1.8-6.6 5.1-15 14.1-20.1 10.5-5.9 20.2-2.5 26.5 8.6l16.2 28.6c4.8 8.4 10.8 5.5 12.5 4.9.7-.2.8-.3 1.2.4l1.8 3.1c.3.6.3.8-.3 1.1L839 185.2c-.6.3-.8.3-1.1-.3l-1.8-3.3c-.3-.6-.2-.7.3-1.1 1.4-1.1 6.4-4.4 1.6-12.9l-14-24.8c-4.2-7.4-9.7-9.6-16-6.1-6.5 3.7-9 11.1-10 15.5l16.3 28.8c4.8 8.4 9.4 6.3 11.1 5.6.7-.2.9-.4 1.3.2l1.8 3.3c.3.6.3.8-.3 1.1l-25.8 14.6c-.6.3-.8.3-1.1-.3l-1.8-3.3c-.3-.6-.1-.7.4-1.2 1.4-1.1 6.9-4.7 2.1-13.1l-29.8-52.7c-4.8-8.6-8.6-6.8-12.5-4.9-.6.3-.8.3-1.1-.3l-1.4-2.5 12.4-17.7 2.7-1.5c.6-.3.8-.3 1.1.3l19.8 35.2zM899 143.6c-1.3 5.5-3.7 12.1-11.9 16.7-10.6 6-20.7 2.8-25.6-5.9-5-8.8-2.1-18.6 7.2-27l13.3-12.2-3.3-5.8c-3.8-6.8-8.9-13.6-17.1-8.9-5.5 3.1-6 7.7-5.3 8.9.5 1 3.3 1.8 5.2 5.2 2.5 4.5 1 9-3.3 11.4-5.1 2.9-10.3.6-13-4.1-3.8-6.6-2.5-18.3 13.7-27.5 19.8-11.2 28.4.3 36 14.7l11.6 21.1c2.3 4.4 4.6 5.3 6.5 4.3 1.7-1 2.1-2.8 2.4-3.7.2-.6.5-.8.9-.7l2.6.4c.4.1.5.3.5 1 .3 3.6-.3 10.4-6.2 13.7-4.7 2.7-9.4 1.4-13.3-2.2l-.9.6zm-13.3-21.8l-9 10.2c-3.2 3.6-5.6 8.1-2.8 13 2.5 4.5 7.3 5.6 12.5 2.6 4.3-2.5 6.7-6.4 8.4-10l-9.1-15.8zM913.5 92.1c-4.5-8-7.9-6.7-12.5-4.9-.7.2-.9.2-1.2-.4l-1.4-2.4L910.7 66l2.5-1.4c.6-.3.8-.3 1.1.3l5.3 9.3.8-.5c1-9.5 3.8-16.1 9.3-19.3 4.9-2.8 10.5-2 13.6 3.6 2.7 4.8 1.7 9.8-2.8 12.4-2.8 1.6-5.3 1.4-7.3 0-.8-.6-1.9-1.3-3-.7-2.8 1.6-5.1 7.6-5.7 13.3l15.3 27c4.5 8 9.2 6.4 13.2 4.5.6-.3.8-.3 1.1.3l1.8 3.3c.3.6.3.8-.3 1.1l-28.4 16.1c-.6.3-.8.3-1.1-.3l-1.8-3.3c-.3-.6-.3-.8.3-1.1 3.7-2.4 7.5-5.7 3-13.6l-14.1-24.9zM966.9 33.5c3.9-2.2 7.7-3.6 11.4-4.2l19.4-11c.6-.3.8-.3 1.1.3l4 7c.3.6.3.8-.3 1.1l-8.4 4.8c3.3 1.8 6.8 4.7 9.3 9.1 6.6 11.7 2.4 25.6-13.1 34.3-2.9 1.6-5.6 2.8-8.2 3.7-.4 2.3-.4 4.9.2 6.1 1 1.8 3 2 5.1.8l16.9-9.5c12.4-7 22-8 27.7 2.3 7 12.7.7 31.4-18.9 42.5-14.6 8.3-25.4 8-30.1-.3-2.2-4-.7-11.9 2.1-17.9-5.6 1.4-9.2-.2-11.3-3.9-2.3-4.1-1.7-10.6 1.4-18.6-8.9.6-16.2-3.4-20.9-11.6-6.5-11.6-2.6-26.5 12.6-35zM987 68.7c6.1-3.5 7.8-11.3 2.5-20.5-5-8.9-12.3-12.8-19.2-8.9-6.5 3.7-7.3 12.1-2.3 21 5.3 9.3 11.7 12.5 19 8.4zm4.8 30.8c-.4 3.4-.3 6.5 1.4 9.5 2.9 5.2 8.8 8.9 19.8 2.6 8.6-4.8 14.2-15.1 10.3-22-2.3-4.1-5.9-4.6-14.5.2l-16.2 9.1-.8.6zM1068.2 29.1c1.2-.4 3.1-.7 3.9-.6 2.8 7.8 3.9 25-12.2 34.1-14.2 8-32 4.4-42.9-14.9-10.6-18.7-6.9-38.7 9.3-47.9 15.6-8.8 29.8-.5 38.3 14.6.2.4.1.7-.4 1l-38 21.6c8.1 13.2 19.6 17.2 30.2 11.2 9.5-5.4 11.4-14.4 11.8-19.1zm-21.3-12.8c-4.6-8.2-11.7-12.3-19-8.2-6.1 3.5-9.5 11.1-5.3 21.9l24.3-13.7zM1080.1 11.4s-.2-.6-1.1-1.9c-16.8-26.8-26.8-33.7-30.4-39.9-4.9-8.7-2.5-14.5 2.5-17.3s11.2-1.9 16.1 6.8c3.5 6.3 4.2 18.5 18.6 46.6l1.1 1.9-6.8 3.8zm11.1 11.7c4.7-2.7 10.4-1.1 13 3.6 2.6 4.6 1 10.2-3.7 12.9-4.6 2.6-10.2 1-12.8-3.6-2.7-4.6-1.1-10.3 3.5-12.9z"/></g></svg>