<svg xmlns="http://www.w3.org/2000/svg" xmlns:xlink="http://www.w3.org/1999/xlink" viewBox="0 0 520 768" enable-background="new 0 0 520 768" style="background: white"><path fill="#f00" d="M13.8 703.9l2.5 45.4L520 721.8v-45.6zM103.442 683.288l-2.418-65.154 222.544-8.257 2.418 65.154z"/><g fill="#fff"><path d="M145.4 637.9c.3 6.4-5.5 10.5-13 10.9-2.7.1-4-.1-4-.1l.3 7.7c.2 3.6 1.7 3.5 3.9 3.4.2 0 .4.1.4.4v1.1c0 .2-.1.4-.4.4l-13.3.6c-.2 0-.4-.1-.4-.4v-1.1c0-.2.1-.4.4-.4 2.2-.1 3.8-.2 3.6-3.7l-1-22.1c-.2-3.5-1.6-3.5-3.7-3.4-.2 0-.4-.1-.4-.4v-1.1c0-.2 0-.3.4-.4.6-.1 5-.6 11.3-.9 11.6-.5 15.7 4.5 15.9 9.5zm-17.1 8.1c.8.2 2 .2 3.6.1 3.8-.2 7.6-3 7.4-7.7-.2-4.3-2.7-7.7-8.6-7.5-1.6.1-3.1.4-3.1.4l.7 14.7zM147 661.1c-.2 0-.4-.1-.4-.4v-1.1c0-.2.1-.4.4-.4 2.1-.1 3.6-.2 3.4-3.7l-1-22.3c-.2-3.6-1.6-3.5-3.7-3.4-.2 0-.4-.1-.4-.4v-1.1c0-.2.1-.4.4-.4l12.8-.6c.2 0 .4.1.4.4v1.1c0 .2-.1.4-.4.4-2.1.1-3.6.2-3.4 3.7l1.1 24.9 3.9-.2c7.7-.3 9.1-2.5 11.3-7.3l1.8-.1c.3 0 .4.2.4.5l-2.1 9.7c0 .2-.1.3-.4.3h-.9c-.2 0-.4 0-.5-.3-.3-.6-.9-.4-4-.3l-18.7 1zM187.4 630.4l-.8-1.7c-.2-.3-.1-.5.1-.7l3.6-3.1c.3-.2.6-.2.7.1l13.5 28.3c1.1 2.4 1.6 3.5 3.9 3.4.2 0 .4.1.4.4v1c0 .2-.1.4-.4.4l-12.6.5c-.2 0-.4-.1-.4-.4v-1c0-.2.1-.4.4-.4 3.3-.3 3.7-1 .3-8.3l-12.5.5c-2.8 7.3-2.5 8.3 1.1 8.3.2 0 .4.1.4.4v1c0 .2-.1.4-.4.4l-9.7.4c-.2 0-.4-.1-.4-.4v-1c0-.2.1-.4.4-.4 2-.1 2.5-1.6 3.7-4.6l8.7-23.1zm-2.7 15.8l9.9-.4-5.3-11.6-4.6 12zM214.3 646.8c1.2 6.4 4.8 9.2 9.5 9 4.4-.2 6.4-2.7 6.2-5.7-.2-3.5-3.1-4.8-7.4-6-4.5-1.2-10.4-2.9-10.7-9.7-.2-4.9 2.7-10.2 11.8-10.6 4.2-.2 7.3.8 9.4 1.4l-1.8 7.4c-.1.2-.2.3-.5.4l-1.2.1c-.8-4.1-2.9-6.6-7-6.4-4.2.2-6.1 2.8-6 5.3.2 3.8 4.9 4.7 8.1 5.5 5.7 1.5 10.1 3.6 10.3 9.9.3 6.1-3.4 10.7-11.9 11.1-5.2.2-9.4-1.2-12.6-2.7l1.9-8.5c.1-.3.2-.3.5-.4l1.4-.1zM261.3 622.9c.7 0 1-.1 1.3-.5.1-.2.2-.3.5-.3h1c.2 0 .3.1.4.3l2.2 9.3c.1.3-.1.3-.3.3l-2.2.1c-1.4-4-3.1-6.4-7.7-6.2l-2.7.1 1.1 24.9c.2 3.6 1.7 3.5 3.9 3.4.2 0 .4.1.4.4v1.1c0 .2-.1.4-.4.4l-13.3.6c-.2 0-.4-.1-.4-.4v-1.1c0-.2.1-.4.4-.4 2.2-.1 3.8-.2 3.6-3.7l-1.1-24.9-2.7.1c-4.5.2-6 2.7-7.1 6.8l-2.2.1c-.2 0-.3 0-.3-.3l1.3-9.5c0-.2.1-.3.4-.3h.9c.3 0 .4 0 .5.3.3.4.6.4 1.3.4l21.2-1zM278.8 649.9c.2 3.6 1.6 3.5 3.7 3.4.2 0 .4.1.4.4v1.1c0 .2-.1.4-.4.4l-12.8.6c-.2 0-.4-.1-.4-.4v-1.1c0-.2.1-.4.4-.4 2.1-.1 3.6-.2 3.4-3.7l-1-22.3c-.2-3.6-1.6-3.5-3.7-3.4-.2 0-.4-.1-.4-.4V623c0-.2.1-.4.4-.4l12.8-.6c.2 0 .4.1.4.4v1.1c0 .2-.1.4-.4.4-2.1.1-3.5.2-3.4 3.7l1 22.3zM307.4 630.6c-.9-4.3-3.6-7.2-7.9-7-5.4.2-10.3 5.2-9.9 13.3.2 3.9 1.5 6.8 3.3 8.7 2.1 2.3 5.3 3.5 8.5 3.3 5.1-.2 8.6-3.5 10.7-8.1l1.3.3c.4.1.4.3.4.6-.4 5.1-4.4 13-13.4 13.3-4.2.2-8.6-1.3-11.7-4.8-2.3-2.6-3.8-6.4-4-11-.4-10.2 5.7-18.4 17-18.9 3.8-.2 7.7.6 10.1 1.5l-2.5 8.4c-.1.2-.2.3-.5.4h-1.4z"/></g><defs><path id="a" d="M0 0h520v768H0z"/></defs><clipPath id="b"><use xlink:href="#a" overflow="visible"/></clipPath><g clip-path="url(#b)" fill="#fff"><path d="M44.5 716.4c.2 4.6-3.9 7.6-9.3 7.9-1.9.1-2.9 0-2.9 0l.3 5.5c.1 2.5 1.3 2.5 2.8 2.4.2 0 .3.1.3.3v.8c0 .2-.1.3-.3.3l-9.5.5c-.2 0-.3-.1-.3-.3v-.8c0-.2.1-.3.3-.3 1.6-.1 2.7-.1 2.6-2.7l-.8-15.8c-.1-2.5-1.2-2.5-2.7-2.4-.2 0-.3-.1-.3-.3v-.8c0-.1 0-.2.3-.3.4-.1 3.6-.5 8.1-.7 8.3-.4 11.2 3.2 11.4 6.7zm-12.2 6c.6.1 1.4.1 2.6.1 2.7-.1 5.5-2.2 5.3-5.6-.2-3.1-2-5.5-6.2-5.3-1.2.1-2.2.3-2.2.3l.5 10.5zM48.7 722c-.1-2.2-1-2.3-2.2-2.4-.2 0-.2-.1-.2-.2v-.7L51 716h.7c.2 0 .2 0 .2.2l.1 2.6h.2c1.3-2 2.6-3.1 4.2-3.2 1.4-.1 2.5.7 2.6 2.3.1 1.4-.7 2.4-2 2.4-.8 0-1.3-.3-1.6-.8-.1-.2-.3-.5-.6-.5-.8 0-2 1.1-2.7 2.3l.4 7.6c.1 2.2 1.3 2.4 2.4 2.4.2 0 .2 0 .2.2v.9c0 .2 0 .2-.2.2l-8 .4c-.2 0-.2 0-.2-.2v-.9c0-.2 0-.2.2-.2 1.1-.1 2.3-.4 2.1-2.7l-.3-7zM76.4 723.2c.3 5.1-2.6 8.9-7.7 9.2-5.1.3-8.3-3.2-8.6-8.3-.3-5.1 2.6-8.9 7.7-9.2 5.1-.2 8.3 3.2 8.6 8.3zm-4.2.2c-.2-4.4-1.7-6.8-4.4-6.6s-3.9 2.7-3.6 7.1 1.6 6.8 4.4 6.6 3.9-2.6 3.6-7.1zM88.3 730.8c-.2 0-.2 0-.2-.2v-.9c0-.2 0-.2.2-.2.4-.1 1.8-.3 1.7-2.6l-.4-7.5c-.1-1.8-1.2-2.7-2.9-2.6-1.9.1-3 1.6-3.6 2.3l.4 8.1c.1 2.4 1.4 2.4 1.9 2.5.2 0 .2 0 .2.2v.9c0 .2 0 .2-.2.2l-7.3.4c-.2 0-.2 0-.2-.2v-.9c0-.2 0-.2.2-.2.4-.1 2.1-.3 1.9-2.7l-.4-7c-.1-2.3-1-2.4-2.2-2.4-.2 0-.2-.1-.2-.2v-.7l4.6-2.7h.7c.2 0 .2 0 .2.2l.1 2.3h.2c.9-1.2 2.5-2.8 5-2.9 2.3-.1 3.7 1.2 4.3 2.5h.2c1.2-1.3 2.8-2.8 5.3-3 2.7-.1 4.6 1.6 4.8 4.4l.4 8.5c.1 2.4 1.9 2.4 2.3 2.4.2 0 .2 0 .2.2v.9c0 .2 0 .2-.2.2l-7.6.4c-.2 0-.2 0-.2-.2v-.9c0-.2 0-.2.2-.2.4-.1 1.9-.3 1.8-2.6l-.4-7.5c-.1-1.8-1.2-2.7-2.9-2.6-1.8.1-3 1.6-3.5 2.2l.4 8.2c.1 2.4 1.5 2.4 2 2.4.2 0 .2 0 .2.2v.9c0 .2 0 .2-.2.2l-6.8.2zM113.1 725.7c.1 2.4 1.5 2.4 2.6 2.4.2 0 .2 0 .2.2v.9c0 .2 0 .2-.2.2l-8.4.4c-.2 0-.2 0-.2-.2v-.9c0-.2 0-.2.2-.2 1.1-.1 2.4-.3 2.3-2.7l-.4-7.2c-.1-2.3-1-2.4-2.2-2.4-.1 0-.2 0-.2-.2v-.7l4.7-2.7h.7c.2 0 .2 0 .2.2l.7 12.9zm-3.2-20.2c1.4-.1 2.6 1 2.7 2.4.1 1.4-1 2.6-2.4 2.6-1.4.1-2.6-1-2.6-2.4-.2-1.3.9-2.5 2.3-2.6zM128.1 716.9c-.1.2-.1.3-.3.3h-.8c-.3-1.9-1.1-3.7-3.4-3.5-1.7.1-2.8 1.1-2.7 2.3.1 1.7 2 2.2 3.8 2.7 2.7.8 5.1 1.9 5.2 5.1.1 2.8-1.7 5.4-6.1 5.6-2.3.1-4.9-.4-6.3-.9l1-4.8c0-.2.1-.2.3-.3h.9c.6 2.8 1.9 4.4 4.2 4.3 1.4-.1 2.7-.9 2.7-2.5-.1-1.6-1.5-2.4-3.9-3.1-2.8-.8-4.6-2.2-4.7-4.8-.2-2.9 2.2-5.2 5.9-5.4 2.5-.1 4.7.6 5.3.7l-1.1 4.3zM144.7 722.2c.3.1.8.2.9.3-.2 2-1.9 5.9-6.4 6.2-4 .2-7.5-2.5-7.8-8-.3-5.3 2.7-9.3 7.3-9.5 4.4-.2 6.6 3.2 6.8 7.4 0 .1-.1.2-.2.2l-10.7.6c.3 3.8 2.4 5.9 5.4 5.8 2.7-.2 4.2-2 4.7-3zm-3.2-5.1c-.1-2.3-1.2-4-3.3-3.9-1.7.1-3.3 1.4-3.6 4.2l6.9-.3zM158.3 715.4c-.1.2-.1.3-.3.3h-.8c-.3-1.9-1.1-3.7-3.4-3.5-1.7.1-2.8 1.1-2.7 2.3.1 1.7 2 2.2 3.8 2.7 2.7.8 5.1 1.9 5.2 5.1.1 2.8-1.7 5.4-6.1 5.6-2.3.1-4.9-.4-6.3-.9l1-4.8c0-.2.1-.2.3-.3h.9c.6 2.8 1.9 4.4 4.2 4.3 1.4-.1 2.7-.9 2.7-2.5-.1-1.6-1.5-2.4-3.9-3.1-2.8-.8-4.6-2.2-4.7-4.8-.2-2.9 2.2-5.2 5.9-5.4 2.5-.1 4.7.6 5.3.7l-1.1 4.3zM187.8 717.4c.3 5.1-2.6 8.9-7.7 9.2-5.1.3-8.3-3.2-8.6-8.3-.3-5.1 2.6-8.9 7.7-9.2 5.1-.3 8.3 3.2 8.6 8.3zm-4.2.2c-.2-4.4-1.6-6.8-4.4-6.6-2.7.1-3.9 2.7-3.6 7.1.2 4.4 1.6 6.8 4.4 6.6 2.7-.2 3.9-2.7 3.6-7.1zM191 708.6c-.3-5.9 2.2-7.6 5.4-7.8 3-.2 4.1 1.2 4.2 3 .1 1.5-.6 2.5-1.9 2.6-1.1.1-2-.5-2.1-1.9 0-.9.3-1.4.3-1.8 0-.2-.1-.2-.6-.2-1.1.1-2.3.6-2.1 4.5 0 .6.1 1.7.1 1.7l3.8-.2c.2 0 .2 0 .2.2l.1 2c0 .2 0 .2-.2.2l-3.8.2.5 10.2c.1 2.4 1.5 2.4 2.6 2.4.2 0 .2 0 .2.2v.9c0 .2 0 .2-.2.2l-8.4.4c-.2 0-.2 0-.2-.2v-.9c0-.2 0-.2.2-.2 1.1-.1 2.4-.3 2.3-2.7l-.5-10.2-2.6.1c-.2 0-.2 0-.2-.2l-.1-1c0-.2.1-.2.2-.3l2.8-1.2zM219.2 722.3c-.9 1.1-2.1 2.3-4.4 2.4-3 .2-4.9-1.7-5-4.1-.1-2.5 1.6-4.3 4.5-5.1l4.3-1.2-.1-1.6c-.1-1.9-.5-4-2.8-3.8-1.6.1-2.2 1-2.1 1.4 0 .3.5.8.6 1.7.1 1.3-.8 2.1-2 2.1-1.4.1-2.3-1-2.4-2.3-.1-1.9 1.4-4.3 6-4.5 5.6-.3 6.2 3.2 6.3 7.2l.2 5.9c0 1.2.4 1.7 1 1.7.5 0 .8-.4.9-.6.1-.1.2-.1.3 0l.5.4c.1.1.1.1 0 .3-.3.8-1.2 2.2-2.9 2.3-1.3.1-2.2-.7-2.7-1.9l-.2-.3zm-.6-6.2l-3.1 1.3c-1.1.4-2.1 1.2-2 2.6.1 1.3 1 2 2.5 1.9 1.2-.1 2.2-.7 2.9-1.3l-.3-4.5zM240 708.5h.2c1.1-1.3 2.8-2.7 5.3-2.9 3-.2 4.7 1.7 4.9 4.8l.4 8c.1 2.4 1.8 2.4 2.2 2.4.2 0 .2 0 .2.2v.9c0 .2 0 .2-.2.2l-7.5.4c-.2 0-.2 0-.2-.2v-.9c0-.2 0-.2.2-.2.4-.1 1.9-.3 1.8-2.6l-.4-7c-.1-2.1-1.1-3.2-2.9-3.1-1.8.1-3.2 1.5-3.9 2.3l.4 8.1c.1 2.4 1.4 2.4 1.8 2.5.2 0 .2 0 .2.2v.9c0 .2 0 .2-.2.2l-7.3.4c-.2 0-.2 0-.2-.2v-.9c0-.2.1-.2.2-.2.4-.1 2-.3 1.9-2.7l-.8-14.8c-.1-2.4-1.1-2.4-2.2-2.4-.2 0-.2 0-.2-.2v-.7l4.7-2.5h.7c.2 0 .2 0 .2.2l.7 9.8zM269.7 713.1c.3 5.1-2.6 8.9-7.7 9.2-5.1.3-8.3-3.2-8.6-8.3-.3-5.1 2.6-8.9 7.7-9.2 5.1-.3 8.3 3.2 8.6 8.3zm-4.2.2c-.2-4.4-1.6-6.8-4.4-6.6-2.7.1-3.9 2.7-3.6 7.1.2 4.4 1.6 6.8 4.4 6.7 2.7-.3 3.9-2.8 3.6-7.2zM281.7 720.7c-.2 0-.2 0-.2-.2v-.9c0-.2 0-.2.2-.2.4-.1 1.8-.3 1.7-2.6l-.4-7.5c-.1-1.8-1.2-2.7-2.9-2.6-1.9.1-3 1.6-3.6 2.3l.4 8.1c.1 2.4 1.4 2.4 1.9 2.5.2 0 .2 0 .2.2v.9c0 .2 0 .2-.2.2l-7.3.4c-.2 0-.2 0-.2-.2v-.9c0-.2 0-.2.2-.2.4-.1 2.1-.3 1.9-2.7l-.4-7c-.1-2.3-1-2.4-2.2-2.4-.2 0-.2-.1-.2-.2v-.7l4.6-2.7h.7c.2 0 .2 0 .2.2l.1 2.3h.2c.9-1.2 2.5-2.8 5-2.9 2.3-.1 3.7 1.2 4.4 2.5h.2c1.2-1.3 2.8-2.8 5.3-3 2.7-.1 4.6 1.6 4.8 4.4l.4 8.5c.1 2.4 1.9 2.4 2.3 2.4.2 0 .2 0 .2.2v.9c0 .2 0 .2-.2.2l-7.6.4c-.2 0-.2 0-.2-.2v-.9c0-.2 0-.2.2-.2.4-.1 1.9-.3 1.8-2.6l-.4-7.5c-.1-1.8-1.2-2.7-2.9-2.6-1.8.1-3 1.6-3.5 2.2l.4 8.2c.1 2.4 1.5 2.4 2 2.5.2 0 .2 0 .2.2v.9c0 .2 0 .2-.2.2l-6.9.1zM312.7 713.4c.3.1.8.2.9.3-.2 2-1.9 5.9-6.4 6.2-4 .2-7.5-2.5-7.8-8-.3-5.3 2.7-9.3 7.3-9.5 4.4-.2 6.6 3.2 6.8 7.4 0 .1-.1.2-.2.2l-10.7.6c.3 3.8 2.4 5.9 5.4 5.8 2.7-.2 4.1-2 4.7-3zm-3.3-5.1c-.1-2.3-1.2-4-3.3-3.9-1.7.1-3.3 1.4-3.6 4.2l6.9-.3zM335.5 717.9c-.2 0-.2 0-.2-.2v-.9c0-.2 0-.2.2-.2.4-.1 1.8-.3 1.7-2.6l-.4-7.5c-.1-1.8-1.2-2.7-2.9-2.6-1.9.1-3 1.6-3.6 2.3l.4 8.1c.1 2.4 1.4 2.4 1.9 2.5.2 0 .2 0 .2.2v.9c0 .2 0 .2-.2.2l-7.3.4c-.2 0-.2 0-.2-.2v-.9c0-.2 0-.2.2-.2.4-.1 2.1-.3 1.9-2.7l-.4-7c-.1-2.3-1-2.4-2.2-2.4-.2 0-.2-.1-.2-.2v-.7l4.6-2.7h.7c.2 0 .2 0 .2.2l.1 2.3h.2c.9-1.2 2.5-2.8 5-2.9 2.3-.1 3.7 1.2 4.4 2.5h.2c1.2-1.3 2.8-2.8 5.3-3 2.7-.1 4.6 1.6 4.8 4.4l.4 8.5c.1 2.4 1.9 2.4 2.3 2.4.2 0 .2 0 .2.2v.9c0 .2 0 .2-.2.2l-7.6.4c-.2 0-.2 0-.2-.2v-.9c0-.2 0-.2.2-.2.4-.1 1.9-.3 1.8-2.6l-.4-7.5c-.1-1.8-1.2-2.7-2.9-2.6-1.8.1-3 1.6-3.5 2.2l.4 8.2c.1 2.4 1.5 2.4 2 2.5.2 0 .2 0 .2.2v.9c0 .2 0 .2-.2.2l-6.9.1zM363.6 714.8c-.9 1.1-2.1 2.3-4.4 2.4-3 .2-4.9-1.7-5-4.1-.1-2.5 1.6-4.3 4.5-5.1l4.3-1.2-.1-1.6c-.1-1.9-.5-4-2.8-3.8-1.6.1-2.2 1-2.1 1.4 0 .3.5.8.6 1.7.1 1.3-.8 2.1-2 2.1-1.4.1-2.3-1-2.4-2.3-.1-1.9 1.4-4.3 6-4.5 5.6-.3 6.2 3.2 6.3 7.2l.2 5.9c0 1.2.4 1.7 1 1.7.5 0 .8-.4.9-.6.1-.1.2-.1.3 0l.5.4c.1.1.1.1 0 .3-.3.8-1.2 2.2-2.9 2.3-1.3.1-2.2-.7-2.7-1.9l-.2-.3zm-.6-6.3l-3.1 1.3c-1.1.4-2.1 1.2-2 2.6.1 1.3 1 2 2.5 1.9 1.2-.1 2.2-.7 2.9-1.3l-.3-4.5zM385.3 711c.1 1.8 1.2 2.1 2.9 2v.8c0 .1-.1.2-.2.2l-4.9 1.6c-.1 0-.2 0-.2-.2l-.6-2h-.2c-1.1 1.4-2.6 2.6-4.9 2.7-3.8.2-7-2.7-7.3-7.9-.3-5.3 2.8-9.4 7.4-9.6 2.2-.1 3.4.7 3.8 1h.2l-.2-3.4c-.1-2.2-1.3-2.2-2.3-2.2-.2 0-.2 0-.2-.2v-.7l4.8-2.4h.7c.2 0 .2 0 .2.2l1 20.1zm-3.8-6.3c-.1-2.7-1.8-4.1-4-4-2.4.1-4.4 2-4.1 6 .2 4.2 2.6 6.3 5.4 6.2 1 0 2.2-.4 3.1-1.2l-.4-7zM401.8 708.8c.3.1.8.2.9.3-.2 2-1.9 5.9-6.4 6.2-4 .2-7.5-2.5-7.8-8-.3-5.3 2.7-9.3 7.3-9.5 4.4-.2 6.6 3.2 6.8 7.4 0 .1-.1.2-.2.2l-10.7.6c.3 3.8 2.4 5.9 5.4 5.8 2.7-.3 4.1-2.1 4.7-3zm-3.3-5.2c-.1-2.3-1.2-4-3.3-3.9-1.7.1-3.3 1.4-3.6 4.2l6.9-.3zM431.9 694.8c.1.2 0 .4-.2.4l-1.4.1c-1-3.2-1.9-4.1-7.5-3.8l-2.6.1.4 8.4 3.1-.2c3.1-.2 3.5-1.4 3.5-3 0-.2.1-.3.3-.3h.8c.2 0 .3.1.3.3l.4 7.7c0 .2-.1.3-.3.3h-.8c-.2 0-.3-.1-.3-.3-.2-1.6-.7-2.8-3.8-2.6l-3.1.2.4 7.5c.1 2.5 1.3 2.5 2.8 2.4.2 0 .3.1.3.3v.8c0 .2-.1.3-.3.3l-9.5.5c-.2 0-.3-.1-.3-.3v-.8c0-.2.1-.3.3-.3 1.6-.1 2.7-.1 2.6-2.7l-.8-16c-.1-2.5-1.3-2.5-2.8-2.4-.2 0-.3-.1-.3-.3v-.8c0-.2.1-.3.3-.3l13-.7c2.2-.1 2.8 0 2.9-.5.1-.2.2-.2.4-.2h.7c.2 0 .2.1.3.2l1.2 6zM438.7 706.9c.1 2 1.2 3.1 3.1 3 1.4-.1 2.4-1 3-1.8l-.4-7.1c-.1-2.2-.8-2.2-2-2.3-.2 0-.2-.1-.2-.2v-.7l4.5-2.5h.7c.2 0 .2 0 .2.2l.6 12.3c.1 1.8 1.2 2 2.9 2v.8c0 .1-.1.2-.2.2l-5.1 1.6c-.1 0-.2 0-.3-.2l-.4-1.9h-.2c-1 1.2-2.3 2.4-4.4 2.5-3.1.2-5.2-1.7-5.4-5.1l-.3-6.3c-.1-2.2-.8-2.2-2-2.3-.2 0-.2-.1-.2-.2v-.7l4.6-2.5h.7c.2 0 .2 0 .2.2l.6 11zM456 690.7l.2 4.3 4.2-.2c.2 0 .2 0 .2.2l.1 2c0 .2 0 .2-.2.2l-4.2.2.5 9.7c.1 1.5 1 1.9 1.7 1.8 1 0 1.9-1 2.4-1.7l1.1.8c-1 1.8-2.4 3.6-4.6 3.8-2.7.1-3.8-1.5-3.9-3.8l-.5-10.5-2.5.1c-.2 0-.2 0-.2-.2v-.8l4.5-5.6c.2-.2.3-.3.6-.3h.6zM468.5 705.3c.1 2 1.2 3.1 3.1 3 1.4-.1 2.4-1 3-1.8l-.4-7.1c-.1-2.2-.8-2.2-2-2.3-.2 0-.2-.1-.2-.2v-.7l4.5-2.5h.7c.2 0 .2 0 .2.2l.6 12.3c.1 1.8 1.2 2 2.9 2v.8c0 .1-.1.2-.2.2l-5.1 1.6c-.1 0-.2 0-.3-.2l-.4-1.9h-.2c-1 1.2-2.3 2.4-4.4 2.5-3.1.2-5.2-1.7-5.4-5.1l-.3-6.3c-.1-2.2-.8-2.2-2-2.3-.2 0-.2-.1-.2-.2v-.7l4.6-2.5h.7c.2 0 .2 0 .2.2l.6 11zM484.3 699.2c-.1-2.2-1-2.3-2.2-2.4-.2 0-.2-.1-.2-.2v-.7l4.7-2.7h.7c.2 0 .2 0 .2.2l.1 2.6h.2c1.3-2 2.6-3.1 4.2-3.2 1.4-.1 2.5.7 2.6 2.3.1 1.4-.7 2.4-2 2.4-.8 0-1.3-.3-1.6-.8-.1-.2-.3-.5-.6-.5-.8 0-2 1.1-2.7 2.3l.4 7.6c.1 2.2 1.3 2.4 2.4 2.4.2 0 .2 0 .2.2v.9c0 .2 0 .2-.2.2l-8 .4c-.2 0-.2 0-.2-.2v-.9c0-.2 0-.2.2-.2 1.1-.1 2.3-.4 2.1-2.7l-.3-7zM509 703.1c.3.1.8.2.9.3-.2 2-1.9 5.9-6.4 6.2-4 .2-7.5-2.5-7.8-8-.3-5.3 2.7-9.3 7.3-9.5 4.4-.2 6.6 3.2 6.8 7.4 0 .1-.1.2-.2.2l-10.7.6c.3 3.8 2.4 5.9 5.4 5.8 2.7-.2 4.1-2 4.7-3zm-3.3-5.1c-.1-2.3-1.2-4-3.3-3.9-1.7.1-3.3 1.4-3.6 4.2l6.9-.3z"/></g><path fill="#f00" d="M0 0v105.1l520 76.5V64.8L79.5 0zM0 464l520 26.1V374.4L0 348.3zM0 239.6V356l520-61.6V178.1z"/><defs><path id="c" d="M0 0h520v768H0z"/></defs><clipPath id="d"><use xlink:href="#c" overflow="visible"/></clipPath><g clip-path="url(#d)" fill="#fff"><path d="M85.5 64.6L94 51l-6.8-23.7c-1.5-5.1-2.5-6.9-5.2-7.6-.5-.2-.7-.4-.6-.9l.3-2.3c.1-.5.4-.7.9-.6l19 2.8c.5.1.7.4.6.9l-.3 2.3c-.1.5-.4.7-.9.6-3.1-.2-3.3 2.5-2.5 5.3l3.1 10.8 5.4-8.4c2-3.2 2.7-6.1-.1-6.8-.6-.2-.8-.5-.7-1l.3-2.3c.1-.5.4-.7.9-.6l15.3 2.3c.5.1.7.4.6.9L123 25c-.1.5-.4.8-.9.7-4-.3-6.2.9-10 7.1L103.6 46l6.4 22.3.8.1 20.5-33.2c3.3-5.3 1.7-7.7-2.6-8.6-.5-.1-.7-.5-.6-1l.3-2.3c.1-.5.4-.7.9-.6l18.7 2.8c.5.1.7.4.6.9l-.3 2.3c-.1.5-.4.8-.9.7-3.7-.3-5.8 1-9.6 7.1l-31.7 50.8c-.3.4-.5.8-1.3.7-.8-.1-.9-.5-1-1l-8.1-28.5-15.3 24.9c-.3.4-.5.8-1.3.7-.8-.1-.9-.5-1-1L61.3 23.4c-1.6-5.9-2.4-6.9-6.2-7.7-.5-.1-.7-.4-.6-.9l.3-2.3c.1-.5.4-.7.9-.6l21 3.1c.5.1.7.4.6.9l-.3 2.3c-.1.5-.4.7-.9.6-3.7-.3-3.7 2.3-2.4 6.8l10.9 38.8.9.2zM164.3 54.4l.5.1c3.8-2.8 9-6 16.1-4.9 8.2 1.2 12 7.1 10.7 15.8l-3.3 22.3c-1 6.6 3.5 7.5 4.7 7.9.5.2.5.2.5.7l-.4 2.4c-.1.5-.2.6-.6.5l-20.8-3.1c-.5-.1-.5-.2-.5-.6l.4-2.5c.1-.5.2-.5.6-.5 1.2 0 5.3.3 6.3-6.3l2.8-19.4c.8-5.7-1.2-9.3-6.1-10-5.1-.7-9.5 2.2-11.9 4.2L160 83.4c-1 6.6 2.5 7.4 3.7 7.7.5.2.6.2.6.7l-.4 2.5c-.1.5-.2.5-.6.5l-20.1-3c-.5-.1-.5-.2-.5-.6l.4-2.5c.1-.5.3-.4.7-.5 1.2 0 5.7.4 6.7-6.2l6-41.1c1-6.7-1.8-7.3-4.7-7.9-.5-.1-.5-.2-.5-.6l.3-2 14.2-4.3 2.1.3c.5.1.5.2.5.6l-4.1 27.4zM242.1 83.2c-2.1 14.1-12 22.9-26.1 20.8-14.1-2.1-21.1-13.4-19-27.5s12-22.9 26.1-20.8 21.1 13.4 19 27.5zm-11.5-1.6c1.8-12.2-.8-19.5-8.3-20.6-7.5-1.1-12.1 5.1-13.9 17.3-1.8 12.2.8 19.5 8.3 20.6 7.6 1.1 12.1-5.1 13.9-17.3zM343.7 110.4c-1 7 1.8 7.5 6 8.1.5.1.7.4.6.9l-.3 2.3c-.1.5-.4.7-.9.6l-25.4-3.7c-.5-.1-.7-.4-.6-.9l.3-2.3c.1-.5.4-.7.9-.6 4.2.6 7 1 8.1-6l6.5-44.2c1-7-1.8-7.5-6-8.1-.5-.1-.7-.4-.6-.9l.3-2.3c.1-.5.4-.7.9-.6l25.4 3.7c.5.1.7.4.6.9l-.3 2.3c-.1.5-.4.7-.9.6-4.2-.6-7-1-8.1 6l-6.5 44.2zM391.1 95.1c-.3.5-.5.7-1 .6l-2.3-.3c.2-5.4-1.1-10.6-7.2-11.5-4.8-.7-8.3 1.6-8.8 4.9-.7 4.8 4.2 7.1 8.9 9.6 6.8 3.7 12.8 8.1 11.5 16.9-1.1 7.8-7.5 13.8-19.8 12-6.5-1-13.2-3.8-16.9-5.9l5.3-12.6c.2-.5.4-.6.8-.5l2.4.4c0 7.9 2.8 13.1 9.2 14 3.9.6 8-.8 8.7-5.4.7-4.5-2.9-7.3-8.9-10.5-7.1-3.7-11.4-8.5-10.3-15.8 1.2-8.1 8.8-13 19.1-11.5 7 1 12.5 4.1 14.1 4.9l-4.8 10.7z"/></g><g fill="#fff"><path d="M36.7 373.7l-.6 12 11.9.6c.5 0 .6.1.5.6l-.3 5.5c0 .5-.1.6-.6.5l-11.9-.6-1.4 27.1c-.2 4.3 2.2 5.4 4.2 5.5 2.7.1 5.5-2.2 7.2-3.9l2.7 2.5c-3.3 4.8-7.7 9.4-14 9.1-7.5-.4-10-5.3-9.7-11.6l1.5-29.2-6.9-.3c-.5 0-.6-.1-.5-.6l.1-2.4 14-14.2c.7-.6 1-.8 1.7-.8l2.1.2zM66.9 393.2h.5c3.5-3.2 8.4-6.8 15.5-6.4 8.3.4 12.6 6 12.2 14.7L94 423.9c-.3 6.6 4.2 7.2 5.4 7.4.5.1.6.1.5.7l-.1 2.5c0 .5-.1.6-.6.5l-21-1.1c-.5 0-.6-.1-.5-.6l.1-2.6c0-.5.1-.5.6-.5 1.2-.1 5.3-.2 5.7-6.8l1-19.5c.3-5.8-2.1-9.1-7-9.4-5.1-.3-9.3 3.1-11.5 5.3l-1.1 22.7c-.3 6.6 3.2 7.1 4.4 7.4.5.1.7.1.6.6l-.1 2.6c0 .5-.1.6-.6.5l-20.3-1c-.5 0-.6-.1-.5-.6l.1-2.6c0-.5.2-.5.7-.5 1.2-.1 5.7-.2 6-6.8l2.1-41.4c.3-6.7-2.5-7.1-5.4-7.4-.5 0-.6-.1-.5-.6l.1-2 13.7-5.7 2.1.1c.5 0 .6.1.5.6l-1.5 27.5zM138.1 421.2c.8.2 2.1.8 2.5 1.1-1.2 5.5-6.9 15.9-19.6 15.3-11.2-.6-20.2-9.2-19.4-24.4.7-14.7 10.2-25 23-24.3 12.2.6 17.4 10.7 16.8 22.5 0 .3-.2.5-.6.4l-30-1.5c-.2 10.6 5 17.2 13.4 17.6 7.5.4 11.9-4.1 13.9-6.7zm-7.6-15.2c.3-6.4-2.3-11.4-8-11.7-4.8-.2-9.6 2.9-11.1 10.8l19.1.9zM181 416.5c1.2 13 7.9 19.2 17.4 19.7 8.8.4 13.2-4.3 13.5-10.3.4-7-5.3-10.2-13.6-13.3-8.7-3.2-20.2-7.8-19.6-21.3.5-9.9 7.3-19.9 25.5-19 8.3.4 14.5 2.9 18.5 4.6l-4.9 14.5c-.2.5-.5.6-1 .6l-2.5-.1c-.7-8.4-4.4-13.7-12.8-14.1-8.4-.4-12.7 4.5-12.9 9.4-.4 7.6 8.9 10.2 15.2 12.6 11.1 4.1 19.4 9.1 18.8 21.8-.6 12.1-8.8 20.7-25.8 19.8-10.3-.5-18.6-4.3-24.6-7.7l5.3-16.7c.2-.6.5-.6 1-.6l2.5.1zM243.1 384.1l-.6 12 11.9.6c.5 0 .6.1.5.6l-.3 5.5c0 .5-.1.6-.6.5l-11.9-.6-1.4 27.1c-.2 4.3 2.2 5.4 4.2 5.5 2.7.1 5.5-2.2 7.2-3.9l2.7 2.5c-3.3 4.8-7.7 9.4-14 9.1-7.5-.4-10-5.3-9.7-11.6l1.5-29.2-6.9-.3c-.5 0-.6-.1-.5-.6l.1-2.4 14-14.2c.7-.6 1-.8 1.7-.8l2.1.2zM264.6 412.9c.3-6.3-2.1-6.8-5.4-7.4-.5-.1-.6-.2-.5-.7l.1-1.9 13.8-6.2 2 .1c.5 0 .6.1.5.6l-.4 7.3h.7c4.1-5.1 8.1-8 12.5-7.7 3.9.2 6.8 2.7 6.6 7.1-.2 3.8-2.6 6.3-6.2 6.2-2.2-.1-3.6-1.1-4.2-2.7-.3-.7-.6-1.5-1.4-1.5-2.2-.1-5.7 2.6-8.2 5.6l-1.1 21.2c-.3 6.3 3 7.1 6 7.4.5 0 .6.1.5.6l-.1 2.6c0 .5-.1.6-.6.5l-22.4-1.1c-.5 0-.6-.1-.5-.6l.1-2.6c0-.5.1-.6.6-.5 3 0 6.4-.5 6.7-6.8l.9-19.5zM312.1 434.9c-.3 6.6 3.4 7.1 6.5 7.5.5 0 .6.1.5.6l-.1 2.6c0 .5-.1.6-.6.5l-23.3-1.2c-.5 0-.6-.1-.5-.6l.1-2.6c0-.5.1-.6.6-.5 3 0 6.9-.1 7.2-6.8l1-20c.3-6.4-2.2-7-5.4-7.4-.4 0-.6-.1-.5-.7l.1-1.9 13.7-6.2 2.1.1c.5 0 .6.1.5.6l-1.9 36zm-3-56.8c4 .2 7 3.5 6.8 7.5-.2 3.9-3.5 6.9-7.5 6.7-3.9-.2-6.9-3.5-6.7-7.4.2-4 3.5-7 7.4-6.8zM366.6 437.6c-.3 6.6 4.6 7.2 5.8 7.4.5.1.6.1.5.7l-.1 2.5c0 .5-.1.6-.6.5l-21.3-1.1c-.5 0-.6-.1-.5-.6l.1-2.6c0-.5.1-.5.6-.5 1.2-.1 5.3-.2 5.7-6.8l1-19.5c.3-5.8-2.1-9.1-7-9.4-5.1-.3-9.3 3.1-11.5 5.3l-1.1 22.7c-.3 6.6 3.3 7.1 4.5 7.4.5.1.6.1.5.6l-.1 2.6c0 .5-.1.6-.6.5l-20.3-1c-.5 0-.6-.1-.5-.6l.1-2.6c0-.5.1-.5.6-.5 1.2-.1 5.8-.2 6.1-6.8l1-19.5c.3-6.4-2.2-7-5.4-7.4-.5 0-.6-.2-.5-.7l.1-1.9 13.6-6.2 2 .1c.5 0 .6.1.5.6l-.3 6.4h.7c3.3-3.3 8.2-7.1 15.5-6.7 8.3.4 12.6 6 12.2 14.7l-1.3 22.4zM397.1 402.6c3 .2 5.8.8 8.2 1.7l15.3.8c.5 0 .6.1.5.6l-.3 5.5c0 .5-.1.6-.6.5l-6.6-.3c1.2 2.2 2.2 5.2 2 8.7-.5 9.2-8 15.7-20.2 15.1-2.3-.1-4.3-.4-6.1-.9-1.1 1.2-2 2.7-2.1 3.6-.1 1.4 1 2.2 2.6 2.3l13.3.7c9.8.5 15.7 3.5 15.2 11.5-.6 10-11.1 18.5-26.6 17.7-11.5-.6-17.6-4.7-17.3-11.2.2-3.1 4-7.1 7.8-9.6-3.7-1.2-5.2-3.5-5.1-6.4.2-3.2 2.9-6.8 7.6-10.3-5.4-2.9-8.2-7.9-7.8-14.4.6-9 8.3-16.2 20.2-15.6zm-9.8 47.4c-1.5 1.8-2.6 3.7-2.7 6-.2 4.1 1.9 8.4 10.5 8.8 6.7.3 13.8-3.5 14-9 .2-3.2-1.8-4.8-8.5-5.2L388 450h-.7zm8.5-19.6c4.8.2 8.6-3.7 9-11 .4-7-2.4-11.9-7.8-12.2-5.1-.3-8.7 4.3-9 11.3-.4 7.4 2.1 11.6 7.8 11.9zM455.2 419.9c-.2.6-.4.7-.9.7l-2.4-.1c-.3-5.4-2.1-10.5-8.3-10.8-4.8-.2-8.1 2.4-8.3 5.7-.2 4.8 4.9 6.6 9.7 8.7 7.2 3 13.5 6.9 13.1 15.7-.4 7.9-6.1 14.4-18.6 13.8-6.5-.3-13.5-2.5-17.4-4.3l4.1-13c.1-.5.3-.6.8-.6l2.5.1c.7 7.8 4 12.8 10.5 13.1 4 .2 7.9-1.6 8.1-6.2.2-4.6-3.5-7-9.9-9.6-7.5-3-12.2-7.4-11.8-14.8.4-8.2 7.5-13.8 17.9-13.3 7 .4 12.9 2.9 14.5 3.6l-3.6 11.3zM473 433.7c-.5 0-.6-.1-.5-.6l.1-2.1c.7-14.5 12.4-17.6 13-29.2.2-4.6-1.3-9.5-7.8-9.8-4.9-.2-7 2.5-7 3.3 0 .9 2.5 2.1 2.3 5.7-.2 3.3-2.5 6-6.2 5.8-4-.2-5.8-3.4-5.6-7.2.3-6.3 6.2-13.5 18.9-12.8 14.4.7 17.2 10.5 16.9 16.4-.7 13.4-17.3 15.5-18 28.9l-.1 1.4c0 .5-.1.6-.6.5l-5.4-.3zm2.7 8.7c3.7.2 6.4 3.2 6.2 6.9-.2 3.6-3.2 6.3-6.9 6.1-3.6-.2-6.3-3.2-6.1-6.8.2-3.7 3.2-6.4 6.8-6.2z"/></g><g fill="#fff"><path d="M137.5 259.1c1.5 12.7-9.4 21.9-24.4 23.6-5.3.6-8.1.5-8.1.5l1.8 15.4c.8 7.1 3.9 6.7 8.4 6.2.5-.1.8.2.8.7l.3 2.3c.1.5-.2.8-.7.8l-26.4 3.1c-.5.1-.8-.2-.8-.7l-.3-2.3c-.1-.5.2-.8.7-.8 4.4-.5 7.5-.9 6.7-8L90.3 256c-.8-7.1-3.7-6.7-7.9-6.2-.5.1-.8-.2-.8-.7l-.3-2.3c0-.4 0-.7.7-.8 1.1-.3 10-1.9 22.4-3.4 22.9-2.8 31.9 6.6 33.1 16.5zm-33.1 18.8c1.6.2 3.9.1 7.2-.3 7.5-.9 14.8-7.1 13.7-16.5-1-8.5-6.6-15-18.2-13.6-3.2.4-6.2 1.3-6.2 1.3l3.5 29.1zM159.8 287.5c.7 5.7 3.9 8.3 9.2 7.7 3.9-.5 6.5-3.3 8-5.5l-2.3-19.7c-.7-6.1-2.7-6-6.1-6-.5 0-.6-.1-.6-.6l-.2-1.9 12.2-7.8 2-.2c.5-.1.6 0 .6.5l4 34.1c.6 4.9 3.6 5.5 8.3 4.9l.3 2.2c0 .4-.1.6-.5.7l-13.8 5.5c-.4.1-.7.1-.8-.4l-1.5-5.1-.7.1c-2.6 3.5-5.9 7.2-11.7 7.9-8.6 1-14.9-3.7-16-13.1l-2.1-17.6c-.7-6.1-2.7-6-6.1-6-.5 0-.6-.1-.6-.6l-.2-1.9 12.4-7.9 2-.2c.5-.1.6 0 .6.5l3.6 30.4zM213.7 286c.8 6.6 4.6 6.4 7.6 6.3.5-.1.6 0 .6.5l.3 2.5c.1.5 0 .6-.5.6l-23.2 2.7c-.5.1-.6 0-.6-.5l-.3-2.5c-.1-.5 0-.6.5-.6 3-.5 6.7-1.3 6-7.9l-4.9-41.2c-.7-6.3-3.3-6.4-6.6-6.4-.4 0-.6 0-.6-.6l-.2-1.9 12.5-7.9 2.1-.2c.5-.1.6 0 .6.5l6.7 56.6zM240.4 282.8c.8 6.6 4.6 6.4 7.6 6.3.5-.1.6 0 .6.5l.3 2.5c.1.5 0 .6-.5.6l-23.2 2.7c-.5.1-.6 0-.6-.5l-.3-2.5c-.1-.5 0-.6.5-.6 3-.5 6.7-1.3 6-7.9l-4.9-41.2c-.7-6.3-3.3-6.4-6.6-6.4-.4 0-.6 0-.6-.6l-.2-1.9L231 226l2.1-.2c.5-.1.6 0 .6.5l6.7 56.5zM267.3 279.6c.8 6.6 4.6 6.4 7.6 6.3.5-.1.6 0 .6.5l.3 2.5c.1.5 0 .6-.5.6l-23.2 2.7c-.5.1-.6 0-.6-.5l-.3-2.5c-.1-.5 0-.6.5-.6 3-.5 6.7-1.3 6-7.9l-2.4-19.9c-.7-6.3-3.3-6.5-6.6-6.4-.4 0-.6 0-.6-.6l-.2-1.9 12.5-8.4 2.1-.2c.5-.1.6 0 .6.5l4.2 35.8zm-12.5-55.5c4-.5 7.4 2.3 7.9 6.2.5 3.9-2.3 7.3-6.2 7.8-3.9.5-7.3-2.3-7.8-6.2-.6-3.8 2.2-7.3 6.1-7.8zM321.6 273.2c.8 6.6 5.7 6.3 7 6.3.5 0 .6 0 .6.6l.3 2.5c.1.5 0 .6-.5.6l-21.2 2.5c-.5.1-.6 0-.6-.5l-.3-2.5c-.1-.5 0-.5.5-.6 1.2-.3 5.2-1.1 4.4-7.7l-2.3-19.4c-.7-5.8-3.6-8.7-8.5-8.1-5.1.6-8.6 4.6-10.4 7.2l2.7 22.5c.8 6.6 4.4 6.5 5.6 6.5.5 0 .6 0 .6.5l.3 2.5c.1.5 0 .6-.5.6l-20.2 2.4c-.5.1-.6 0-.6-.5l-.3-2.5c-.1-.5 0-.5.5-.6 1.2-.3 5.7-1.2 4.9-7.8l-2.3-19.4c-.7-6.3-3.4-6.5-6.6-6.4-.5.1-.6-.1-.6-.6l-.2-1.9 12.4-8.4 2-.2c.5-.1.6 0 .6.5l.8 6.4.7-.1c2.7-3.8 6.9-8.4 14.2-9.2 8.2-1 13.4 3.8 14.5 12.4l2.5 22.4zM345.8 233.5c3-.4 5.8-.2 8.4.3l15.2-1.8c.5-.1.6 0 .6.5l.6 5.5c.1.5 0 .6-.5.6l-6.6.8c1.6 2 3.1 4.8 3.5 8.2 1.1 9.1-5.3 16.8-17.3 18.2-2.3.3-4.3.3-6.2.2-.9 1.3-1.6 3-1.5 3.9.2 1.4 1.4 2 3 1.8l13.2-1.6c9.7-1.1 16.1.8 16.9 8.8 1.1 9.9-7.9 20.1-23.2 21.9-11.4 1.4-18.2-1.7-18.9-8.2-.4-3.1 2.7-7.7 6.1-10.8-3.9-.6-5.8-2.6-6.1-5.5-.4-3.2 1.7-7.2 5.8-11.4-5.8-2-9.4-6.4-10.1-12.9-1.2-8.6 5.2-17.1 17.1-18.5zm3.3 27.7c4.8-.6 7.9-5 7.1-12.3-.8-7-4.4-11.3-9.8-10.7-5.1.6-7.8 5.7-7 12.7.8 7.2 4.1 10.9 9.7 10.3zm-5.1 20.7c-1.2 2.1-1.9 4.1-1.6 6.4.5 4.1 3.2 7.9 11.8 6.9 6.7-.8 13-5.7 12.3-11.2-.4-3.2-2.5-4.5-9.2-3.7l-12.6 1.5-.7.1z"/></g><path fill="#00C34B" d="M0 157.9v115.7l520-31.8V126.1zM208.8 590.9L520 670.7V551.4L237.5 479zM0 406.7l520 44.4v-116L0 290.8z"/><g fill="#fff"><path d="M77.5 168.4c1.4-.1 2.1-.2 2.5-1 .3-.5.4-.6 1-.6l2-.1c.5 0 .7.1.8.6l4.7 18.6c.1.6-.1.7-.5.7l-4.5.3c-3-7.9-6.5-12.6-15.6-12.1l-5.4.3 3 49.8c.4 7.1 3.6 6.9 8 6.6.5 0 .8.2.8.7l.1 2.3c0 .5-.2.8-.7.8l-26.5 1.6c-.5 0-.8-.2-.8-.7l-.1-2.3c0-.5.2-.8.7-.8 4.5-.3 7.6-.5 7.1-7.6l-3-49.8-5.4.3c-9.1.6-12 5.7-14 13.9l-4.5.3c-.4 0-.7-.1-.6-.6l2.4-19c.1-.5.2-.7.7-.7l1.8-.1c.6 0 .8 0 1.1.5.5.7 1.2.8 2.6.7l42.3-2.6zM107.2 192.9h.5c3.1-3.5 7.6-7.7 14.7-8.1 8.2-.5 13.2 4.5 13.7 13.2l1.4 22.5c.4 6.6 5 6.6 6.2 6.8.5.1.6.1.6.6l.2 2.5c0 .5-.1.6-.5.6l-20.9 1.3c-.5 0-.6-.1-.6-.5l-.2-2.6c0-.5.1-.5.5-.6 1.2-.3 5.3-.8 4.9-7.4l-1.2-19.5c-.4-5.8-3.1-8.8-8-8.5-5.1.3-8.9 4.2-10.8 6.6l1.4 22.7c.4 6.6 3.9 6.7 5.2 6.8.5.1.7.1.7.5l.2 2.6c0 .5-.1.6-.5.6l-20.3 1.2c-.5 0-.6-.1-.6-.5l-.2-2.6c0-.5.2-.5.6-.6 1.2-.3 5.7-.8 5.3-7.5L97 181.6c-.4-6.7-3.3-6.7-6.2-6.8-.5 0-.6-.1-.6-.5l-.1-2 13-7.2 2.1-.1c.5 0 .6.1.6.5l1.4 27.4zM181 212.8c.9.1 2.1.5 2.6.8-.6 5.6-5.1 16.6-17.8 17.4-11.2.7-21.1-6.9-22-22.1-.9-14.7 7.4-25.9 20.2-26.7 12.2-.7 18.5 8.7 19.2 20.5 0 .3-.2.5-.5.5l-30 1.8c1 10.6 6.9 16.5 15.2 16 7.6-.4 11.4-5.4 13.1-8.2zm-9.3-14.2c-.4-6.4-3.5-11.1-9.2-10.8-4.8.3-9.2 4-9.8 11.9l19-1.1zM291 171.1c.5 8.3-5.8 13.2-10.4 15.2 5.9 1.3 15.3 5.3 15.9 16.2.5 8.9-3.7 19.6-28 21.1-11.8.7-24.3 1.1-25.4 1-.7-.1-.8-.2-.8-.7l-.1-2.3c0-.5.2-.8.7-.8 4.3-.3 7.6-.5 7.1-7.6l-2.7-44c-.4-7.1-3.3-6.9-7.5-6.7-.5 0-.8-.2-.8-.7l-.1-2.3c0-.4.1-.7.7-.8 1.2-.3 11-1.4 23.6-2.2 20.2-1.1 27.2 5.3 27.8 14.6zm-31.3 14l7-.4c7.7-.5 12.5-5.6 12.1-12.2-.4-7.3-5.9-11.2-14.6-10.7-3.3.2-5.8.9-5.8.9l1.3 22.4zm2 33.2s3 .4 6.3.2c9.8-.6 16.4-5 15.8-15.1-.6-9.8-7.4-13.5-16.8-13l-7 .4 1.7 27.5zM328.3 215.1c-2.5 3-5.9 6.4-12.3 6.7-8.3.5-13.6-4.5-14-11.3-.4-6.9 4.3-12.1 12.5-14.5l11.9-3.5-.4-4.5c-.3-5.3-1.4-11-7.9-10.6-4.4.3-6 2.9-5.9 3.9 0 .8 1.5 2.1 1.6 4.8.2 3.5-2.1 5.8-5.4 6-4 .2-6.5-2.7-6.8-6.4-.3-5.2 3.9-12 16.7-12.8 15.5-1 17.4 8.7 17.8 19.8l.8 16.5c.1 3.4 1.2 4.7 2.8 4.6 1.3-.1 2.1-1.1 2.6-1.6.3-.3.6-.3.8-.1l1.5 1c.2.2.2.4 0 .8-.9 2.3-3.3 6.3-8 6.6-3.7.2-6.2-2-7.6-5.3l-.7-.1zm-1.7-17.5l-8.6 3.6c-3.1 1.2-5.9 3.3-5.6 7.2.2 3.5 2.8 5.6 6.9 5.4 3.4-.2 6.1-1.9 8.2-3.6l-.9-12.6zM356.2 159.7l.7 12 11.8-.7c.5 0 .6.1.6.5l.3 5.5c0 .5-.1.6-.5.6l-11.8.7 1.7 27.1c.3 4.3 2.8 5.2 4.8 5 2.7-.2 5.3-2.8 6.8-4.7l3 2.2c-2.7 5.1-6.6 10.2-12.9 10.6-7.5.5-10.5-4.1-10.9-10.5l-1.8-29.2-6.9.4c-.5 0-.6-.1-.6-.5l-.1-2.4 12.4-15.7c.6-.7.9-.9 1.7-1l1.7.1zM388.9 157.7l.7 12 11.8-.7c.5 0 .6.1.6.5l.3 5.5c0 .5-.1.6-.5.6l-11.8.7 1.7 27.1c.3 4.3 2.8 5.2 4.8 5 2.7-.2 5.2-2.8 6.8-4.7l3 2.2c-2.7 5.1-6.6 10.2-12.9 10.6-7.5.5-10.5-4.1-10.9-10.5l-1.8-29.2-6.9.4c-.5 0-.6-.1-.6-.5l-.1-2.4 12.4-15.7c.6-.7.9-.9 1.7-1l1.7.1zM424.1 202.9c.4 6.6 4.2 6.7 7.3 6.7.5 0 .6.1.6.5l.2 2.6c0 .5-.1.6-.5.6l-23.3 1.4c-.5 0-.6-.1-.6-.5l-.2-2.6c0-.5.1-.6.5-.6 3-.4 6.8-.9 6.4-7.5l-2.5-41.4c-.4-6.4-3-6.6-6.2-6.8-.4 0-.6-.1-.6-.6l-.1-1.9 13-7.2 2.1-.1c.5 0 .6.1.6.5l3.3 56.9zM468.4 195.3c.9.1 2.1.5 2.6.8-.6 5.7-5.1 16.6-17.8 17.4-11.2.7-21.1-6.9-22-22.1-.9-14.7 7.4-25.9 20.2-26.7 12.2-.7 18.5 8.7 19.2 20.5 0 .3-.2.5-.5.5l-29.9 1.8c1 10.6 6.9 16.5 15.2 16 7.5-.5 11.4-5.5 13-8.2zm-9.2-14.3c-.4-6.4-3.5-11.1-9.2-10.8-4.8.3-9.2 4-9.8 11.9l19-1.1z"/></g><defs><path id="e" d="M0 0h520v768H0z"/></defs><clipPath id="f"><use xlink:href="#e" overflow="visible"/></clipPath><g clip-path="url(#f)" fill="#fff"><path d="M280 562.9c-1.8 6.9 1 7.6 5.1 8.7.5.1.7.5.5.9l-.6 2.2c-.1.5-.5.7-.9.5l-24.8-6.4c-.5-.1-.7-.5-.5-.9l.6-2.2c.1-.5.5-.7.9-.5 4.1 1.1 6.9 1.8 8.7-5.1l11.1-43.2c1.8-6.9-1-7.6-5.1-8.7-.5-.1-.7-.5-.5-.9l.6-2.2c.1-.5.5-.7.9-.5l24.8 6.4c.5.1.7.5.5.9l-.6 2.2c-.1.5-.5.7-.9.5-4.1-1.1-6.9-1.8-8.7 5.1L280 562.9zM328.8 552.7c-.3.5-.6.6-1 .5l-2.3-.6c.8-5.4 0-10.7-6-12.2-4.7-1.2-8.4.7-9.2 3.9-1.2 4.7 3.5 7.5 7.8 10.4 6.4 4.4 11.9 9.4 9.7 18-2 7.6-8.9 12.9-20.9 9.8-6.3-1.6-12.7-5.1-16.2-7.7l6.6-11.9c.2-.4.4-.6.9-.5l2.4.6c-.8 7.8 1.4 13.3 7.7 14.9 3.9 1 8 0 9.2-4.5 1.1-4.4-2.1-7.6-7.8-11.4-6.7-4.5-10.5-9.6-8.6-16.8 2-7.9 10.1-12 20.2-9.4 6.8 1.7 12 5.4 13.5 6.4l-6 10.5zM429.3 578.2c-4.7 18.4-20.8 30.4-41.1 25.3-20.2-5.2-28.6-23.5-23.9-41.9 4.7-18.4 20.8-30.4 41.1-25.3 20.2 5.2 28.6 23.5 23.9 41.9zm-13.3-3.4c4.7-18.4-.5-30-12-33-11.5-2.9-21.7 4.7-26.4 23.1s.5 30 12 33c11.5 2.9 21.7-4.7 26.4-23.1zM471 612c-1.6 6.4 3.1 7.9 4.2 8.4.4.2.5.2.4.8l-.6 2.4c-.1.5-.2.5-.7.4l-20.7-5.3c-.5-.1-.5-.2-.4-.7l.6-2.5c.1-.5.2-.4.7-.4 1.2.1 5.3.9 6.9-5.6l4.9-18.9c1.4-5.6-.2-9.4-5-10.6-5-1.3-9.7 1.1-12.3 2.9l-5.6 22c-1.6 6.4 1.8 7.6 2.9 8.1.4.2.5.2.4.7l-.6 2.5c-.1.5-.2.5-.7.4l-19.7-5c-.5-.1-.5-.2-.4-.7l.6-2.5c.1-.5.2-.4.7-.4 1.2.1 5.7 1 7.4-5.5l4.9-18.9c1.6-6.2-.8-7.3-3.8-8.3-.5-.1-.5-.3-.4-.8l.5-1.8 14.6-3.3 1.9.5c.5.1.5.2.4.7l-1.6 6.3.6.2c3.9-2.5 9.5-5.3 16.6-3.5 8 2.1 11.2 8.4 9 16.8L471 612zM489 615.8c3.6.9 5.6 4.4 4.7 8-.9 3.5-4.4 5.5-7.9 4.6-3.5-.9-5.5-4.4-4.7-7.9.9-3.5 4.4-5.6 7.9-4.7zm.1-11s.2-.3.4-1.5c4.5-21.2 2.7-29.4 4-34.2 1.7-6.6 5.7-8.3 9.4-7.4 3.8 1 6.4 4.4 4.7 11-1.2 4.8-6.7 11.1-13 31.9l-.4 1.5-5.1-1.3z"/></g><g fill="#fff"><path d="M61 330.2c1.4-16.5 8.9-20.3 18.1-19.5 8.3.7 10.9 5 10.5 9.9-.3 4.1-2.6 6.6-6.3 6.3-2.9-.2-5.3-2.3-5-6 .2-2.5 1.5-3.9 1.5-4.7 0-.5-.3-.7-1.5-.8-3.1-.3-6.6.9-7.5 11.8-.2 1.8-.3 4.7-.3 4.7l10.5.9c.5 0 .6.1.5.6l-.5 5.5c0 .5-.1.6-.6.5l-10.4-.9-2.4 28.5c-.6 6.6 3.2 7.2 6.2 7.7.5 0 .6.1.5.6l-.2 2.6c0 .5-.1.6-.6.5l-23.3-2c-.5 0-.6-.1-.5-.6l.2-2.6c0-.5.1-.6.6-.5 3 .1 6.9.1 7.4-6.5l2.4-28.5-7.3-.7c-.5 0-.6-.1-.5-.6l.2-2.7c0-.5.2-.6.6-.7l7.7-2.8zM125.8 359.7c-1.2 14.2-10.6 23.6-24.8 22.4-14.2-1.2-21.8-12.1-20.6-26.3 1.2-14.2 10.6-23.6 24.8-22.4 14.2 1.3 21.9 12.1 20.6 26.3zm-11.5-1c1-12.3-2-19.4-9.5-20.1-7.6-.6-11.8 5.9-12.8 18.2-1 12.3 2 19.4 9.5 20.1s11.8-5.9 12.8-18.2zM135.5 353.1c.5-6.2-1.9-6.8-5.2-7.6-.5-.1-.6-.2-.5-.7l.2-1.9 14-5.7 2 .2c.5 0 .6.1.5.6l-.6 7.3.7.1c4.2-5 8.4-7.7 12.7-7.3 3.9.3 6.7 3 6.3 7.3-.3 3.8-2.8 6.2-6.4 5.9-2.2-.2-3.5-1.3-4.1-2.8-.2-.7-.5-1.5-1.4-1.5-2.2-.2-5.8 2.4-8.4 5.3l-1.8 21.2c-.5 6.2 2.7 7.2 5.7 7.6.5 0 .6.1.5.6l-.2 2.6c0 .5-.1.6-.6.5l-22.3-1.9c-.5 0-.6-.1-.5-.6l.2-2.6c0-.5.1-.6.6-.5 3 .1 6.4-.3 6.9-6.6l1.7-19.5zM249.9 346.7c-1.1 12.8-13.6 19.5-28.6 18.2-5.3-.5-8-1.2-8-1.2l-1.3 15.4c-.6 7.1 2.5 7.4 7 7.7.5 0 .7.3.7.8l-.2 2.3c0 .5-.3.7-.8.7l-26.5-2.3c-.5 0-.7-.3-.7-.8l.2-2.3c0-.5.3-.7.8-.7 4.4.4 7.6.6 8.2-6.5l3.8-44.1c.6-7.1-2.2-7.3-6.5-7.7-.5 0-.7-.3-.7-.8l.2-2.3c0-.4.2-.7.8-.7 1.2-.1 10.2.1 22.7 1.2 22.9 2.2 29.7 13.1 28.9 23.1zm-36.2 11.7c1.5.5 3.8.9 7.1 1.2 7.6.6 16-4 16.8-13.4.7-8.5-3.4-16-15.1-17-3.2-.3-6.3 0-6.3 0l-2.5 29.2zM263.9 383.7c-.6 6.6 3.2 7.2 6.2 7.7.5 0 .6.1.5.6l-.2 2.6c0 .5-.1.6-.6.5l-23.3-2c-.5 0-.6-.1-.5-.6l.2-2.6c0-.5.1-.6.6-.5 3 .1 6.9.1 7.4-6.5l3.5-41.3c.5-6.3-2-6.9-5.2-7.6-.4 0-.6-.1-.5-.7l.2-1.9 13.9-5.2 2.1.2c.5 0 .6.1.5.6l-4.8 56.7zM299 393c-2.9 2.6-6.8 5.4-13.2 4.9-8.3-.7-12.8-6.4-12.2-13.2.6-6.9 6-11.3 14.5-12.5l12.3-1.7.4-4.5c.5-5.3.2-11.1-6.2-11.7-4.4-.4-6.4 2-6.4 3-.1.8 1.1 2.3.9 4.9-.3 3.5-2.9 5.5-6.3 5.2-4-.3-6.1-3.7-5.8-7.4.4-5.2 5.6-11.3 18.4-10.2 15.5 1.3 15.9 11.2 14.7 22.2l-1.6 16.4c-.4 3.4.5 4.8 2.1 4.9 1.3.1 2.3-.8 2.8-1.2.3-.3.6-.2.8 0l1.3 1.3c.2.2.2.4-.1.8-1.2 2.2-4.2 5.7-8.8 5.3-3.7-.3-5.9-2.9-6.7-6.4l-.9-.1zm.9-17.5l-9.1 2.3c-3.2.8-6.3 2.4-6.6 6.3-.3 3.5 2 6 6 6.3 3.4.3 6.3-1 8.6-2.4l1.1-12.5zM352.2 369c-.2.6-.4.7-.9.7l-2.4-.2c-.1-5.4-1.8-10.5-7.9-11.1-4.8-.4-8.2 2.1-8.5 5.4-.4 4.8 4.7 6.8 9.4 9 7.1 3.3 13.3 7.3 12.5 16.1-.7 7.9-6.6 14.2-19 13.1-6.5-.6-13.4-3-17.2-4.9l4.5-12.9c.1-.5.3-.6.8-.6l2.5.2c.5 7.9 3.6 12.9 10 13.4 4 .3 7.9-1.3 8.3-6 .4-4.5-3.3-7.1-9.5-10-7.3-3.3-11.9-7.8-11.3-15.2.7-8.1 8-13.5 18.3-12.6 7 .6 12.8 3.4 14.3 4.1l-3.9 11.5zM378.1 346l-1 12 11.8 1c.5 0 .6.1.5.6l-.5 5.5c0 .5-.1.6-.6.5l-11.8-1-2.3 27.1c-.4 4.3 2 5.5 4 5.7 2.6.2 5.6-2 7.4-3.7l2.6 2.6c-3.4 4.7-8 9.1-14.3 8.6-7.5-.6-9.8-5.6-9.3-11.9l2.5-29.1-6.9-.6c-.5 0-.6-.1-.5-.6l.2-2.4 14.5-13.7c.7-.6 1-.8 1.8-.7l1.9.1zM406.6 395.9c-.6 6.6 3.2 7.2 6.2 7.7.5 0 .6.1.5.6l-.2 2.6c0 .5-.1.6-.6.5l-23.3-2c-.5 0-.6-.1-.5-.6l.2-2.6c0-.5.1-.6.6-.5 3 .1 6.9.1 7.4-6.5l1.7-20c.5-6.3-2-7-5.2-7.6-.4 0-.6-.1-.5-.7l.2-1.9 13.9-5.7 2.1.2c.5 0 .6.1.5.6l-3 35.9zm-1-56.9c4 .3 6.8 3.7 6.5 7.7-.3 3.9-3.7 6.7-7.7 6.4-3.9-.3-6.7-3.7-6.4-7.6.3-4 3.7-6.9 7.6-6.5zM441.3 362.1c6 .5 11.5 2.9 14.9 4.6l-6.3 13.3c-.2.5-.5.5-1 .5l-1.9-.2c-.1-6.4-1.7-12.3-8.3-12.9-6.1-.5-12.3 4.5-13.2 14.7-.9 11 4.4 17.5 13 18.3 7.5.6 11.4-3.5 13.2-5.6.8.3 2 .8 2.5 1.2-1.6 5.2-6.7 15.7-19.6 14.6-10.6-.9-19.8-8.8-18.5-24.9 1.2-15.2 11.5-24.7 25.2-23.6z"/></g><path fill="#005FFF" d="M347.6 0L0 352.2v164.5L509.9 0z"/><defs><path id="g" d="M0 0h520v768H0z"/></defs><clipPath id="h"><use xlink:href="#g" overflow="visible"/></clipPath><g clip-path="url(#h)" fill="#fff"><path d="M68.8 383.4c5.1 5 7.1 3 10.1-.1.3-.3.7-.3 1.1 0l1.6 1.6c.3.3.3.7 0 1.1l-18 18.2c-.3.3-.7.3-1.1 0l-1.6-1.6c-.3-.3-.3-.7 0-1.1 3-3 5-5.1-.1-10.1L29 360.2c-5.1-5-7.1-3-10.1.1-.3.3-.7.3-1.1 0l-1.6-1.6c-.3-.3-.3-.7 0-1.1l18-18.2c.3-.3.7-.3 1.1 0l1.6 1.6c.3.3.3.7 0 1.1-3 3-5 5.1.1 10.1l31.8 31.2zM52.9 332.3l8.6 8.5 8.3-8.4c.3-.3.5-.3.8 0l3.9 3.9c.3.3.3.5 0 .8l-8.3 8.4 19.3 19.1c3 3 5.5 2 6.9.6 1.9-1.9 2-5.6 1.9-8l3.7-.4c1.4 5.6 1.9 12-2.5 16.5-5.3 5.3-10.6 4-15.1-.5l-20.8-20.5-4.9 4.9c-.3.3-.5.3-.8 0l-1.7-1.7-1.2-20c0-.9.1-1.3.6-1.8l1.3-1.4zM131.5 319.8c5.1 5 7.1 3 10.1-.1.3-.3.7-.3 1.1 0l1.6 1.6c.3.3.3.7 0 1.1l-18 18.2c-.3.3-.7.3-1.1 0l-1.6-1.6c-.3-.3-.3-.7 0-1.1 3-3 5-5.1-.1-10.1l-31.8-31.4c-5.1-5-7.1-3-10.1.1-.3.3-.7.3-1.1 0l-1.6-1.6c-.3-.3-.3-.7 0-1.1l18-18.2c.3-.3.7-.3 1.1 0l1.6 1.6c.3.3.3.7 0 1.1-3 3-5 5.1.1 10.1l31.8 31.4zM147.3 272.5c.3.5.3.8-.1 1.1l-1.7 1.7c-4.3-3.4-9.2-5.4-13.6-1-3.4 3.4-3.6 7.6-1.3 9.9 3.4 3.4 8.2.8 12.9-1.5 7-3.3 14.1-5.5 20.4.7 5.6 5.5 6.7 14.2-2.1 23-4.6 4.7-10.8 8.4-14.8 10.1l-7-11.7c-.3-.4-.3-.7.1-1l1.7-1.8c6.3 4.7 12.2 5.5 16.7.9 2.8-2.8 4-6.9.7-10.2-3.2-3.2-7.6-2-13.8 1-7.2 3.5-13.6 4.2-18.9-1-5.8-5.7-5.3-14.8 2-22.2 4.9-5 10.8-7.7 12.3-8.4l6.5 10.4zM184.2 187.4c1-1 1.4-1.6 1.2-2.4-.1-.5-.1-.7.3-1.1l1.4-1.4c.3-.3.6-.3 1-.1L204 193c.5.3.3.6.1.9l-3.1 3.2c-7.5-3.9-13.3-5.1-19.7 1.4l-3.8 3.9 35.5 35c5.1 5 7.3 2.8 10.4-.4.3-.3.7-.3 1.1 0l1.6 1.6c.3.3.3.7 0 1.1l-18.7 18.9c-.3.3-.7.3-1.1 0l-1.6-1.6c-.3-.3-.3-.7 0-1.1 3.1-3.2 5.3-5.4.3-10.4l-35.5-35-3.8 3.9c-6.4 6.5-5.2 12.3-1.1 19.7l-3.1 3.2c-.3.3-.5.4-.9-.1l-10.9-15.7c-.3-.4-.3-.7.1-1l1.3-1.3c.4-.4.6-.5 1.1-.3.9.2 1.4-.2 2.4-1.2l29.6-30.3zM198.5 171.5c2.8-2.8 7.2-2.9 10.1-.1 2.8 2.7 2.8 7.2 0 10-2.7 2.8-7.2 2.8-9.9.1-2.9-2.8-2.9-7.2-.2-10zm44.4 35.6c4.7 4.7 7.6 2.2 9.9.1.3-.3.5-.3.8 0l1.8 1.8c.3.3.3.5 0 .8L239 226.5c-.3.3-.5.3-.8 0l-1.8-1.8c-.3-.3-.3-.5 0-.8 2-2.3 4.5-5.2-.3-9.9l-14.3-14.1c-4.5-4.5-6.7-3-9.1-.9-.3.3-.5.3-.9-.1l-1.4-1.3 4.5-14.3 1.5-1.5c.3-.3.5-.3.8 0l25.7 25.3zM278.1 186.9c-.3.3-.5.3-.8 0l-1.8-1.8c-.3-.3-.3-.4 0-.8.7-1 3.3-4-1.5-8.7l-14.9-14.7c-3.5-3.5-7.5-3.3-10.8 0-3.7 3.7-3.3 9-3.1 11.4l16.2 16c4.7 4.7 7.5 2.3 8.5 1.6.4-.3.5-.3.8 0l1.8 1.8c.3.3.3.5 0 .8L258.2 207c-.3.3-.5.3-.8 0l-1.8-1.8c-.3-.3-.3-.4 0-.8.7-1 3.7-4.5-1-9.1l-13.9-13.7c-4.5-4.5-6.7-3-9.1-.9-.3.3-.5.3-.9-.1l-1.4-1.3 4.5-14.3 1.4-1.4c.3-.3.5-.3.8 0l4.5 4.5.5-.5c-.4-4.1-.1-10.5 4.8-15.4 4.6-4.7 9.9-4.6 13.6-3.1l.4-.4c0-4.9.4-11.1 5.4-16.1 5.3-5.4 12.5-5.4 18.1.1l16.8 16.6c4.7 4.7 8.4 1.4 9.4.6.4-.3.5-.3.8 0l1.8 1.8c.3.3.3.5 0 .8l-14.9 15.1c-.3.3-.5.3-.8 0l-1.8-1.8c-.3-.3-.3-.4 0-.8.7-1 3.4-4.1-1.3-8.8l-14.9-14.7c-3.5-3.5-7.5-3.4-10.8 0-3.5 3.6-3.2 8.8-3.2 11.2l16.4 16.1c4.7 4.7 7.7 2.1 8.7 1.4.4-.3.5-.3.8 0l1.8 1.8c.3.3.3.5 0 .8l-14 14.1zM327.7 114.2c.7-.5 1.9-1 2.5-1.2 3.3 4.6 7.3 15.7-1.6 24.8-7.9 8-20.3 8.9-31.1-1.7-10.5-10.3-11.8-24.2-2.8-33.4 8.6-8.7 19.6-5.9 28 2.4.2.2.2.5-.1.7l-21.1 21.4c7.8 7.2 16.2 7.7 22 1.7 5.3-5.3 4.8-11.6 4.2-14.7zm-16.4-4.5c-4.6-4.5-10-5.9-14-1.9-3.4 3.4-4.2 9.1.6 15.4l13.4-13.5zM332.7 48.8l8.6 8.5 8.3-8.4c.3-.3.5-.3.8 0l3.9 3.9c.3.3.3.5 0 .8L346 62l19.4 19c3 3 5.5 2 6.9.6 1.9-1.9 2-5.6 1.9-8l3.7-.4c1.4 5.6 1.9 12-2.5 16.5-5.3 5.3-10.6 4-15.1-.5l-20.8-20.5-4.9 4.9c-.3.3-.5.3-.8 0l-1.7-1.7-1.3-19.9c0-.9.1-1.3.6-1.8l1.3-1.4zM401 29.6c10.1 10 11.4 23.2 1.4 33.4-10 10.1-23.2 9.1-33.4-.9s-11.4-23.2-1.4-33.4c10-10.1 23.3-9.1 33.4.9zm-8.1 8.3c-8.8-8.7-16.2-10.9-21.5-5.5-5.3 5.4-3 12.8 5.8 21.4 8.8 8.7 16.2 10.9 21.5 5.5 5.3-5.4 3-12.8-5.8-21.4z"/></g><path fill="#005FFF" d="M0 553.6v132.7l520-294.2V259.4z"/><defs><path id="i" d="M0 0h520v768H0z"/></defs><clipPath id="j"><use xlink:href="#i" overflow="visible"/></clipPath><g clip-path="url(#j)" fill="#fff"><path d="M58.1 540.3c1.2-.7 1.8-1.1 1.8-2 0-.6.1-.7.6-1l1.7-1c.4-.2.7-.2 1 .2l12.3 14.6c.4.5.2.7-.2.9l-3.9 2.2c-6.1-5.8-11.4-8.5-19.3-4l-4.7 2.7 24.5 43.4c3.5 6.2 6.2 4.7 10.1 2.5.4-.2.8-.1 1 .3l1.1 2c.2.4.1.8-.3 1l-23.1 13.1c-.4.2-.8.1-1-.3l-1.1-2c-.2-.4-.1-.8.3-1 3.9-2.2 6.6-3.7 3.1-9.9l-24.5-43.4-4.7 2.7c-7.9 4.5-8.3 10.4-6.5 18.6l-3.9 2.2c-.3.2-.6.2-.8-.3l-6.2-18.1c-.2-.5-.1-.7.3-1l1.6-.9c.5-.3.7-.3 1.2 0 .8.4 1.4.2 2.7-.5l36.9-21zM119.9 576.5c-.9 3.8-2.5 8.3-8.1 11.5-7.3 4.1-14.2 1.9-17.6-4-3.4-6-1.4-12.7 4.9-18.5l9.1-8.3-2.2-4c-2.6-4.6-6.1-9.3-11.8-6.1-3.8 2.2-4.1 5.3-3.6 6.1.4.7 2.2 1.2 3.5 3.6 1.7 3.1.7 6.2-2.2 7.8-3.5 2-7.1.4-8.9-2.8-2.6-4.5-1.7-12.5 9.4-18.9 13.6-7.7 19.4.2 24.7 10l8 14.5c1.6 3 3.2 3.7 4.5 2.9 1.2-.7 1.4-1.9 1.6-2.5.1-.4.4-.5.6-.5l1.8.3c.3.1.4.2.4.7.2 2.5-.2 7.1-4.3 9.4-3.2 1.8-6.5.9-9.1-1.5l-.7.3zm-9.1-14.9l-6.2 7c-2.2 2.5-3.8 5.6-1.9 8.9 1.7 3.1 5 3.8 8.6 1.8 3-1.7 4.6-4.4 5.7-6.8l-6.2-10.9zM118 522.7c-3.3-5.9-5.9-4.6-8.5-3.3-.4.2-.5.2-.8-.2l-1-1.7c2.8-4.1 5.7-8 8.5-12.1l1.8-1c.4-.2.5-.2.8.2l20.4 36 5.2-15.1c1.2-4-.6-5.5-4-4-.4.2-.6.1-.8-.3l-1.2-2.1c-.2-.4-.2-.5.2-.8l17.9-10.1c.4-.2.5-.2.8.2l1.2 2.1c.3.5.2.6-.1.9-2.2 1.6-5 3.9-7.5 11.2l-4.3 12.3 22.4 8.5c2.9 1.1 7.3 2 10.7.3.4-.2.5-.2.8.2l1.3 2.2c.2.4.2.5-.2.8l-19.5 11c-.4.2-.5.2-.8-.2l-1.3-2.2c-.2-.4-.1-.5.3-.8 1.8-1.3 1.5-2.9-3.1-4.8l-16.1-6.1 5.8 10.2c3.3 5.8 6.5 4.3 7.6 3.9.5-.2.6-.2.9.2l1.3 2.2c.2.4.2.5-.2.8l-17.7 10c-.4.2-.5.2-.8-.2l-1.3-2.2c-.2-.4-.1-.5.3-.8 1-.8 4.7-3.2 1.5-9L118 522.7zM206 515c.8-.3 2.1-.5 2.7-.4 1.9 5.3 2.7 17.1-8.4 23.4-9.8 5.5-22 3-29.4-10.2-7.2-12.8-4.8-26.5 6.4-32.9 10.7-6 20.4-.3 26.3 10 .1.2.1.5-.3.7l-26.1 14.8c5.6 9.1 13.4 11.8 20.7 7.7 6.5-3.8 7.8-9.9 8.1-13.1zm-14.6-8.8c-3.2-5.6-8-8.4-13-5.6-4.2 2.4-6.5 7.6-3.6 15l16.6-9.4zM262.3 447.3c-5.4-6.9-12.9-9.6-20.6-5.3-9.4 5.3-13.6 18.6-5.6 32.7 3.8 6.8 8.8 10.7 13.8 12.6 5.9 2.2 12.6 1.4 18.3-1.8 8.8-5 12.2-14.1 11.6-24.2l2.7-.6c.8-.2 1 .2 1.2.7 3.8 9.5 4 27.1-11.8 36-7.3 4.1-16.5 5.5-25.2 2.1-6.6-2.6-12.7-8-17.2-16-10.1-17.8-6.5-38.1 13.1-49.2 6.7-3.8 14.2-5.9 19.3-6.6L265 445c.1.5-.1.8-.5 1l-2.2 1.3zM291.4 438.6l.4-.2c1.3-4.5 3.5-10.3 9.7-13.8 7.2-4.1 13.9-1.7 18.2 5.9l11.1 19.6c3.3 5.8 7.4 3.8 8.5 3.3.5-.2.5-.2.8.3l1.2 2.1c.2.4.2.5-.2.8L322.8 467c-.4.2-.5.2-.8-.2l-1.3-2.2c-.2-.4-.2-.5.2-.8 1-.8 4.4-3 1.1-8.8l-9.6-17c-2.9-5-6.7-6.6-11-4.2-4.5 2.5-6.2 7.6-6.9 10.6l11.2 19.8c3.3 5.8 6.5 4.3 7.6 3.9.5-.2.6-.2.9.2l1.3 2.2c.2.4.2.5-.2.8l-17.7 10c-.4.2-.5.2-.8-.2l-1.3-2.2c-.2-.4-.1-.5.3-.8 1-.8 4.7-3.2 1.5-9L277 432.8c-3.3-5.9-5.9-4.6-8.5-3.3-.4.2-.5.2-.8-.2l-1-1.7 8.5-12.1 1.8-1c.4-.2.5-.2.8.2l13.6 23.9zM363.9 438.4c-.9 3.8-2.5 8.3-8.1 11.5-7.3 4.1-14.2 1.9-17.6-4-3.4-6-1.4-12.7 4.9-18.5l9.1-8.3-2.2-4c-2.6-4.6-6.1-9.3-11.8-6.1-3.8 2.2-4.1 5.3-3.6 6.1.4.7 2.2 1.2 3.5 3.6 1.7 3.1.7 6.2-2.2 7.8-3.5 2-7.1.4-8.9-2.8-2.6-4.5-1.7-12.5 9.4-18.9 13.6-7.7 19.4.2 24.7 10l8 14.5c1.6 3 3.2 3.7 4.5 2.9 1.2-.7 1.4-1.9 1.6-2.5.1-.4.4-.5.6-.5l1.8.3c.3.1.4.2.4.7.2 2.5-.2 7.1-4.3 9.4-3.2 1.8-6.5.9-9.1-1.5l-.7.3zm-9.1-14.9l-6.2 7c-2.2 2.5-3.8 5.6-1.9 8.9 1.7 3.1 5 3.8 8.6 1.8 3-1.7 4.6-4.4 5.7-6.8l-6.2-10.9zM373.9 403.2c-3.1-5.5-5.4-4.6-8.5-3.3-.5.2-.6.1-.8-.3l-.9-1.7 8.4-12.6 1.7-1c.4-.2.5-.2.8.2l3.6 6.4.6-.3c.7-6.5 2.6-11.1 6.4-13.2 3.4-1.9 7.2-1.3 9.4 2.5 1.9 3.3 1.2 6.7-1.9 8.5-1.9 1.1-3.6 1-5 0-.6-.4-1.3-.9-2-.5-1.9 1.1-3.5 5.2-3.9 9.1l10.5 18.5c3.1 5.5 6.3 4.4 9 3.1.4-.2.5-.2.8.2l1.3 2.2c.2.4.2.5-.2.8l-19.5 11c-.4.2-.5.2-.8-.2l-1.3-2.2c-.2-.4-.2-.5.2-.8 2.6-1.7 5.1-3.9 2-9.3l-9.9-17.1zM410.5 362.9c2.6-1.5 5.3-2.4 7.8-2.9l13.3-7.5c.4-.2.5-.2.8.2l2.7 4.8c.2.4.2.5-.2.8l-5.8 3.3c2.2 1.2 4.7 3.2 6.4 6.2 4.5 8 1.6 17.5-9 23.5-2 1.1-3.8 1.9-5.7 2.5-.3 1.6-.3 3.3.2 4.2.7 1.2 2.1 1.3 3.5.5l11.6-6.5c8.5-4.8 15.1-5.5 19 1.6 4.8 8.7.5 21.5-13 29.2-10 5.7-17.4 5.5-20.6-.2-1.5-2.7-.5-8.1 1.5-12.3-3.8 1-6.3-.1-7.8-2.7-1.6-2.8-1.2-7.3 1-12.8-6.1.4-11.1-2.3-14.3-7.9-4.5-7.9-1.9-18.1 8.6-24zm13.7 24.2c4.2-2.4 5.3-7.7 1.7-14.1-3.5-6.1-8.4-8.8-13.2-6.1-4.5 2.5-5 8.3-1.6 14.4 3.8 6.4 8.2 8.6 13.1 5.8zm3.4 21.1c-.3 2.4-.2 4.5 1 6.5 2 3.6 6.1 6.1 13.6 1.8 5.9-3.3 9.8-10.3 7-15.1-1.6-2.8-4.1-3.2-9.9.2l-11.1 6.3-.6.3zM479.9 360c.8-.3 2.1-.4 2.7-.4 1.9 5.3 2.7 17.1-8.4 23.4-9.8 5.5-22 3-29.4-10.2-7.2-12.8-4.8-26.5 6.4-32.9 10.7-6 20.4-.3 26.3 10 .1.2.1.5-.3.7l-26.1 14.8c5.6 9.1 13.4 11.8 20.7 7.7 6.5-3.7 7.8-9.9 8.1-13.1zm-14.6-8.8c-3.2-5.6-8-8.4-13-5.6-4.2 2.4-6.5 7.6-3.6 15l16.6-9.4zM488.1 347.8s-.1-.4-.7-1.3c-11.5-18.4-18.4-23.1-20.8-27.4-3.4-6-1.7-9.9 1.7-11.9s7.7-1.3 11 4.7c2.4 4.3 2.9 12.7 12.7 32l.7 1.3-4.6 2.6zm7.6 8c3.2-1.8 7.1-.7 8.9 2.5 1.8 3.1.7 7-2.5 8.8-3.1 1.8-7 .7-8.8-2.4-1.8-3.2-.8-7.1 2.4-8.9z"/></g><path fill="#fff" d="M313.946 661.013l.143 3.997L118.106 672l-.143-4z"/></svg>