<svg xmlns="http://www.w3.org/2000/svg" xmlns:xlink="http://www.w3.org/1999/xlink" viewBox="0 0 768 520" enable-background="new 0 0 768 520"><path fill="#f00" d="M188.48 436.73l.426-65.2 222.7 1.46-.427 65.2z"/><g fill="#fff"><path d="M232.4 393.2c0 6.4-5.9 10.3-13.5 10.3-2.7 0-4-.2-4-.2v7.7c0 3.6 1.6 3.6 3.8 3.6.2 0 .4.1.4.4v1.1c0 .2-.1.4-.4.4h-13.3c-.2 0-.4-.1-.4-.4V415c0-.2.1-.4.4-.4 2.2 0 3.8 0 3.8-3.6v-22.1c0-3.6-1.4-3.6-3.6-3.6-.2 0-.4-.1-.4-.4v-1.1c0-.2 0-.3.4-.4.6-.1 5.1-.4 11.3-.4 11.6.1 15.5 5.2 15.5 10.2zm-17.5 7.4c.8.2 1.9.3 3.6.3 3.8 0 7.8-2.7 7.8-7.4 0-4.3-2.4-7.8-8.2-7.8-1.6 0-3.1.3-3.1.3v14.6zM233 416.4c-.2 0-.4-.1-.4-.4v-1.1c0-.2.1-.4.4-.4 2.1 0 3.6 0 3.6-3.6v-22.3c0-3.6-1.4-3.6-3.6-3.6-.2 0-.4-.1-.4-.4v-1.1c0-.2.1-.4.4-.4h12.8c.2 0 .4.1.4.4v1.1c0 .2-.1.4-.4.4-2.1 0-3.6 0-3.6 3.6v24.9h3.9c7.7 0 9.2-2.1 11.7-6.8h1.8c.3 0 .4.2.3.5l-2.6 9.6c0 .2-.1.3-.4.3h-.9c-.2 0-.4 0-.5-.3-.3-.6-.9-.4-4-.4H233zM274.6 387.5l-.7-1.8c-.1-.3-.1-.5.1-.7l3.7-2.9c.3-.2.6-.2.7.1l12.2 28.8c1 2.5 1.4 3.6 3.7 3.6.2 0 .4.1.4.4v1c0 .2-.1.4-.4.4h-12.6c-.2 0-.4-.1-.4-.4v-1c0-.2.1-.4.4-.4 3.3-.1 3.7-.8.6-8.3h-12.5c-3.1 7.2-2.8 8.2.8 8.3.2 0 .4.1.4.4v1c0 .2-.1.4-.4.4H261c-.2 0-.4-.1-.4-.4v-1c0-.2.1-.4.4-.4 2 0 2.6-1.5 3.9-4.5l9.7-22.6zm-3.3 15.7h9.9l-4.8-11.8-5.1 11.8zM300.8 405.2c.9 6.4 4.4 9.4 9.1 9.4 4.4 0 6.5-2.5 6.5-5.5 0-3.5-2.9-5-7.1-6.3-4.4-1.4-10.3-3.4-10.3-10.1 0-4.9 3.1-10.1 12.2-10.1 4.2 0 7.3 1.1 9.3 1.8l-2.1 7.3c-.1.2-.2.3-.5.3h-1.2c-.6-4.2-2.6-6.7-6.7-6.7-4.2 0-6.2 2.6-6.2 5 0 3.8 4.7 4.9 7.9 5.9 5.6 1.8 9.9 4 9.9 10.4 0 6.1-3.9 10.5-12.4 10.5-5.2 0-9.4-1.7-12.5-3.2l2.2-8.4c.1-.3.2-.3.5-.3h1.4zM348.8 383.3c.7 0 1 0 1.3-.4.1-.2.2-.3.5-.3h1c.2 0 .3.1.4.3l1.8 9.4c0 .3-.1.3-.3.3h-2.2c-1.2-4-2.8-6.5-7.4-6.5h-2.7V411c0 3.6 1.6 3.6 3.8 3.6.2 0 .4.1.4.4v1.1c0 .2-.1.4-.4.4h-13.3c-.2 0-.4-.1-.4-.4V415c0-.2.1-.4.4-.4 2.2 0 3.8 0 3.8-3.6v-24.9h-2.7c-4.5 0-6.2 2.5-7.4 6.5h-2.2c-.2 0-.3 0-.3-.3l1.8-9.4c0-.2.1-.3.4-.3h.9c.3 0 .4 0 .5.3.2.4.6.4 1.3.4h21zM365.1 411c0 3.6 1.4 3.6 3.6 3.6.2 0 .4.1.4.4v1.1c0 .2-.1.4-.4.4h-12.8c-.2 0-.4-.1-.4-.4V415c0-.2.1-.4.4-.4 2.1 0 3.6 0 3.6-3.6v-22.3c0-3.6-1.4-3.6-3.6-3.6-.2 0-.4-.1-.4-.4v-1.1c0-.2.1-.4.4-.4h12.8c.2 0 .4.1.4.4v1.1c0 .2-.1.4-.4.4-2.1 0-3.6 0-3.6 3.6V411zM394.5 393c-.7-4.3-3.3-7.3-7.6-7.3-5.4 0-10.5 4.7-10.5 12.8 0 3.9 1.2 6.8 2.9 8.9 2 2.4 5.1 3.7 8.4 3.7 5.1 0 8.8-3.1 11-7.7l1.3.4c.4.1.4.3.3.6-.7 5.1-4.9 12.7-14 12.7-4.2 0-8.5-1.7-11.5-5.3-2.2-2.7-3.6-6.6-3.6-11.2 0-10.2 6.5-18.2 17.8-18.2 3.8 0 7.6.9 10 1.9l-2.9 8.2c-.1.2-.2.3-.5.3h-1.1z"/></g><path fill="#fff" d="M203.625 422.136l196.1 1.555-.032 4-196.1-1.554z"/><path fill="#f00" d="M115.68 487.222l2.282-45.44 506.24 25.424-2.28 45.44z"/><g fill="#fff"><path d="M147.2 457.5c-.2 4.6-4.6 7.1-10 6.9-1.9-.1-2.9-.3-2.9-.3l-.3 5.5c-.1 2.5 1 2.6 2.6 2.7.2 0 .3.1.3.3v.8c0 .2-.1.3-.3.3l-9.5-.5c-.2 0-.3-.1-.3-.3v-.8c0-.2.1-.3.3-.3 1.6.1 2.7.1 2.9-2.4l.8-15.8c.1-2.5-.9-2.6-2.4-2.7-.2 0-.3-.1-.3-.3v-.8c0-.1 0-.2.3-.3.4 0 3.6-.1 8.1.2 8.3.4 10.9 4.2 10.7 7.8zm-12.8 4.6c.5.2 1.4.3 2.6.3 2.7.1 5.7-1.6 5.8-5 .2-3.1-1.4-5.7-5.6-5.9-1.2-.1-2.3.1-2.3.1l-.5 10.5zM150.8 463.5c.1-2.2-.8-2.4-1.9-2.7-.2 0-.2-.1-.2-.2v-.7l4.9-2.2h.7c.2 0 .2 0 .2.2l-.1 2.6h.2c1.5-1.8 2.9-2.8 4.5-2.8 1.4.1 2.4 1 2.4 2.5-.1 1.4-.9 2.3-2.2 2.2-.8 0-1.3-.4-1.5-1-.1-.2-.2-.5-.5-.5-.8 0-2.1.9-2.9 2l-.4 7.6c-.1 2.2 1.1 2.5 2.1 2.7.2 0 .2 0 .2.2v.9c0 .2 0 .2-.2.2l-8-.4c-.2 0-.2 0-.2-.2v-.9c0-.2 0-.2.2-.2 1.1 0 2.3-.2 2.4-2.4l.3-6.9zM178.2 467.5c-.3 5.1-3.5 8.6-8.6 8.3-5.1-.3-8-4.1-7.7-9.2.3-5.1 3.5-8.6 8.6-8.3 5.1.4 8 4.2 7.7 9.2zm-4.2-.2c.2-4.4-.9-6.9-3.6-7.1-2.7-.1-4.1 2.2-4.4 6.6-.2 4.4.9 6.9 3.6 7.1 2.8.2 4.2-2.2 4.4-6.6zM189.3 476.4c-.2 0-.2 0-.2-.2v-.9c0-.2 0-.2.2-.2.4 0 1.8-.1 2-2.5l.4-7.5c.1-1.8-.9-2.8-2.6-2.9-1.9-.1-3.2 1.3-3.8 1.9l-.4 8.1c-.1 2.4 1.2 2.5 1.6 2.6.2 0 .2 0 .2.2v.9c0 .2 0 .2-.2.2l-7.3-.4c-.2 0-.2 0-.2-.2v-.9c0-.2 0-.2.2-.2.4 0 2.1-.1 2.2-2.4l.4-7c.1-2.3-.8-2.5-1.9-2.7-.2 0-.2-.1-.2-.2v-.7l4.9-2.2h.7c.2 0 .2 0 .2.2l-.1 2.3h.2c1-1.1 2.8-2.5 5.3-2.4 2.3.1 3.6 1.5 4.1 2.9h.2c1.3-1.2 3.1-2.5 5.6-2.4 2.7.1 4.4 2.1 4.3 4.9l-.4 8.5c-.1 2.4 1.6 2.6 2.1 2.7.2 0 .2 0 .2.2v.9c0 .2 0 .2-.2.2l-7.6-.4c-.2 0-.2 0-.2-.2v-.9c0-.2 0-.2.2-.2.4 0 1.9-.1 2-2.4l.4-7.5c.1-1.8-.9-2.8-2.6-2.9-1.8-.1-3.1 1.2-3.7 1.8l-.4 8.2c-.1 2.4 1.3 2.6 1.7 2.6.2 0 .2 0 .2.2v.9c0 .2 0 .2-.2.2l-7.3-.2zM214.4 473.8c-.1 2.4 1.2 2.6 2.3 2.7.2 0 .2 0 .2.2v.9c0 .2 0 .2-.2.2l-8.4-.4c-.2 0-.2 0-.2-.2v-.9c0-.2 0-.2.2-.2 1.1 0 2.5 0 2.6-2.4l.4-7.2c.1-2.3-.8-2.5-1.9-2.7-.1 0-.2 0-.2-.2v-.7l4.9-2.2h.7c.2 0 .2 0 .2.2l-.6 12.9zm-1-20.3c1.4.1 2.5 1.3 2.4 2.7-.1 1.4-1.3 2.5-2.7 2.4-1.4-.1-2.5-1.3-2.4-2.6.1-1.6 1.3-2.6 2.7-2.5zM230.3 466.7c-.1.2-.1.3-.3.3h-.8c-.1-1.9-.8-3.8-3-3.9-1.7-.1-2.9.8-3 2-.1 1.7 1.7 2.4 3.5 3.1 2.6 1.1 4.8 2.5 4.7 5.6-.1 2.8-2.2 5.2-6.7 4.9-2.3-.1-4.8-.9-6.2-1.6l1.5-4.7c0-.2.1-.2.3-.2h.9c.3 2.8 1.4 4.6 3.7 4.7 1.4.1 2.8-.6 2.9-2.2.1-1.6-1.3-2.5-3.5-3.5-2.7-1.1-4.4-2.6-4.2-5.3.2-2.9 2.7-4.9 6.4-4.7 2.5.1 4.6 1.1 5.2 1.3l-1.4 4.2zM246.3 473.7c.3.1.7.3.9.4-.4 2-2.5 5.7-7 5.5-4-.2-7.2-3.3-6.9-8.7.3-5.3 3.7-8.9 8.3-8.7 4.4.2 6.2 3.8 6 8.1 0 .1-.1.2-.2.2l-10.7-.6c-.1 3.8 1.8 6.2 4.8 6.3 2.5 0 4.1-1.6 4.8-2.5zm-2.7-5.5c.1-2.3-.8-4.1-2.8-4.2-1.7-.1-3.4 1-4 3.8l6.8.4zM260.5 468.3c-.1.2-.2.3-.3.3h-.8c-.1-1.9-.8-3.8-3-3.9-1.7-.1-2.9.8-3 2-.1 1.7 1.7 2.4 3.5 3.1 2.6 1.1 4.8 2.5 4.7 5.6-.1 2.8-2.2 5.2-6.7 4.9-2.3-.1-4.8-.9-6.2-1.6l1.5-4.7c0-.2.1-.2.3-.2h.9c.3 2.8 1.4 4.6 3.7 4.7 1.4.1 2.8-.6 2.9-2.2.1-1.6-1.3-2.5-3.5-3.5-2.7-1.1-4.4-2.6-4.2-5.3.2-2.9 2.7-4.9 6.4-4.7 2.5.1 4.6 1.1 5.2 1.3l-1.4 4.2zM289.6 473.4c-.3 5.1-3.5 8.6-8.6 8.3-5.1-.3-8-4.1-7.7-9.2.3-5.1 3.5-8.6 8.6-8.3 5.1.3 8 4.1 7.7 9.2zm-4.2-.2c.2-4.4-.9-6.9-3.6-7.1-2.7-.1-4.1 2.2-4.4 6.6-.2 4.4.9 6.9 3.6 7.1s4.2-2.2 4.4-6.6zM293.7 465c.3-5.9 2.9-7.4 6.2-7.2 3 .2 4 1.7 3.9 3.4-.1 1.5-.8 2.4-2.2 2.3-1.1-.1-1.9-.7-1.9-2.1 0-.9.5-1.4.5-1.7 0-.2-.1-.2-.5-.3-1.1-.1-2.3.4-2.5 4.3 0 .6-.1 1.7-.1 1.7l3.8.2c.2 0 .2 0 .2.2l-.1 2c0 .2 0 .2-.2.2l-3.8-.2-.5 10.2c-.1 2.4 1.2 2.6 2.3 2.7.2 0 .2 0 .2.2v.9c0 .2 0 .2-.2.2l-8.4-.4c-.2 0-.2 0-.2-.2v-.9c0-.2 0-.2.2-.2 1.1 0 2.5 0 2.6-2.4l.5-10.2-2.6-.1c-.2 0-.2 0-.2-.2l.1-1c0-.2.1-.2.2-.3l2.7-1.1zM320.3 481.6c-1 1-2.4 2-4.7 1.9-3-.2-4.7-2.1-4.5-4.6.1-2.5 2-4.1 5-4.6l4.4-.8.1-1.6c.1-1.9-.1-4-2.4-4.1-1.6-.1-2.3.8-2.3 1.1 0 .3.4.8.4 1.8-.1 1.3-1 2-2.2 1.9-1.4-.1-2.2-1.2-2.1-2.6.1-1.9 1.9-4.1 6.5-3.9 5.6.3 5.8 3.8 5.5 7.8l-.4 5.9c-.1 1.2.3 1.7.8 1.7s.8-.3 1-.5c.1-.1.2-.1.3 0l.5.4c.1.1.1.1 0 .3-.4.8-1.4 2.1-3.1 2-1.3-.1-2.1-1-2.5-2.2l-.3.1zm.1-6.3l-3.2.9c-1.1.3-2.2.9-2.3 2.3-.1 1.3.8 2.1 2.2 2.2 1.2.1 2.2-.4 3-1l.3-4.4zM342.4 470h.2c1.3-1.1 3-2.4 5.6-2.3 3 .2 4.5 2.1 4.4 5.3l-.4 8c-.1 2.4 1.5 2.6 1.9 2.7.2 0 .2 0 .2.2v.9c0 .2 0 .2-.2.2l-7.5-.4c-.2 0-.2 0-.2-.2v-.9c0-.2 0-.2.2-.2.4 0 1.9-.1 2-2.4l.4-7c.1-2.1-.7-3.3-2.5-3.4-1.8-.1-3.3 1.1-4.1 1.9l-.4 8.1c-.1 2.4 1.1 2.5 1.6 2.6.2 0 .2 0 .2.2v.9c0 .2 0 .2-.2.2l-7.3-.4c-.2 0-.2 0-.2-.2v-.9c0-.2.1-.2.2-.2.4 0 2-.1 2.2-2.4l.8-14.8c.1-2.4-.9-2.5-1.9-2.7-.2 0-.2 0-.2-.2v-.7l4.9-2h.7c.2 0 .2 0 .2.2l-.6 9.9zM371.5 477.7c-.3 5.1-3.5 8.6-8.6 8.3-5.1-.3-8-4.1-7.7-9.2.3-5.1 3.5-8.6 8.6-8.3 5.1.3 8 4.1 7.7 9.2zm-4.1-.2c.2-4.4-.9-6.9-3.6-7.1-2.7-.1-4.1 2.2-4.4 6.6-.2 4.4.9 6.9 3.6 7.1 2.7.2 4.1-2.2 4.4-6.6zM382.6 486.5c-.2 0-.2 0-.2-.2v-.9c0-.2 0-.2.2-.2.4 0 1.8-.1 2-2.5l.4-7.5c.1-1.8-.9-2.8-2.6-2.9-1.9-.1-3.2 1.3-3.8 1.9l-.4 8.1c-.1 2.4 1.2 2.5 1.6 2.6.2 0 .2 0 .2.2v.9c0 .2 0 .2-.2.2l-7.3-.4c-.2 0-.2 0-.2-.2v-.9c0-.2 0-.2.2-.2.4 0 2.1-.1 2.2-2.4l.4-7c.1-2.3-.8-2.5-1.9-2.7-.2 0-.2-.1-.2-.2v-.7l4.9-2.2h.7c.2 0 .2 0 .2.2l-.1 2.3h.2c1-1.1 2.8-2.5 5.3-2.4 2.3.1 3.6 1.5 4.1 2.9h.2c1.3-1.2 3.1-2.5 5.6-2.4 2.7.1 4.4 2.1 4.3 4.9l-.4 8.5c-.1 2.4 1.6 2.6 2.1 2.7.2 0 .2 0 .2.2v.9c0 .2 0 .2-.2.2l-7.6-.4c-.2 0-.2 0-.2-.2v-.9c0-.2 0-.2.2-.2.4 0 1.9-.1 2-2.4l.4-7.5c.1-1.8-.9-2.8-2.6-2.9-1.8-.1-3.1 1.2-3.7 1.8l-.4 8.2c-.1 2.4 1.3 2.6 1.7 2.6.2 0 .2 0 .2.2v.9c0 .2 0 .2-.2.2l-7.3-.2zM414.3 482.5c.3.1.7.3.9.4-.4 2-2.5 5.7-7 5.5-4-.2-7.2-3.3-6.9-8.7.3-5.3 3.7-8.9 8.3-8.7 4.4.2 6.2 3.8 6 8.1 0 .1-.1.2-.2.2l-10.7-.6c-.1 3.8 1.8 6.2 4.8 6.3 2.5 0 4.1-1.6 4.8-2.5zm-2.8-5.4c.1-2.3-.8-4.1-2.8-4.2-1.7-.1-3.4 1-4 3.8l6.8.4zM436.5 489.3c-.2 0-.2 0-.2-.2v-.9c0-.2 0-.2.2-.2.4 0 1.8-.1 2-2.5l.4-7.5c.1-1.8-.9-2.8-2.6-2.9-1.9-.1-3.2 1.3-3.8 1.9l-.4 8.1c-.1 2.4 1.2 2.5 1.6 2.6.2 0 .2 0 .2.2v.9c0 .2 0 .2-.2.2l-7.3-.4c-.2 0-.2 0-.2-.2v-.9c0-.2 0-.2.2-.2.4 0 2.1-.1 2.2-2.4l.4-7c.1-2.3-.8-2.5-1.9-2.7-.2 0-.2-.1-.2-.2v-.7l4.9-2.2h.7c.2 0 .2 0 .2.2l-.1 2.3h.2c1-1.1 2.8-2.5 5.3-2.4 2.3.1 3.6 1.5 4.1 2.9h.2c1.3-1.2 3.1-2.5 5.6-2.4 2.7.1 4.4 2.1 4.3 4.9l-.4 8.5c-.1 2.4 1.6 2.6 2.1 2.7.2 0 .2 0 .2.2v.9c0 .2 0 .2-.2.2l-7.6-.4c-.2 0-.2 0-.2-.2v-.9c0-.2 0-.2.2-.2.4 0 1.9-.1 2-2.4l.4-7.5c.1-1.8-.9-2.8-2.6-2.9-1.8-.1-3.1 1.2-3.7 1.8l-.4 8.2c-.1 2.4 1.3 2.6 1.7 2.6.2 0 .2 0 .2.2v.9c0 .2 0 .2-.2.2l-7.3-.2zM464.7 489.2c-1 1-2.4 2-4.7 1.9-3-.2-4.7-2.1-4.5-4.6.1-2.5 2-4.1 5-4.6l4.4-.8.1-1.6c.1-1.9-.1-4-2.4-4.1-1.6-.1-2.3.8-2.3 1.1 0 .3.4.8.4 1.8-.1 1.3-1 2-2.2 1.9-1.4-.1-2.2-1.2-2.1-2.6.1-1.9 1.9-4.1 6.5-3.9 5.6.3 5.8 3.8 5.5 7.8l-.4 5.9c-.1 1.2.2 1.7.8 1.7.5 0 .8-.3 1-.5.1-.1.2-.1.3 0l.5.4c.1.1.1.1 0 .3-.4.8-1.4 2.1-3.1 2-1.3-.1-2.1-1-2.5-2.2l-.3.1zm.1-6.3l-3.2.9c-1.1.3-2.2.9-2.3 2.3-.1 1.3.8 2.1 2.2 2.2 1.2.1 2.2-.4 3-1l.3-4.4zM486.7 487.7c-.1 1.8.9 2.2 2.6 2.2v.8c0 .1-.1.2-.2.2l-5 1.1c-.1 0-.2 0-.2-.2l-.4-2h-.2c-1.3 1.3-2.9 2.3-5.1 2.1-3.8-.2-6.7-3.4-6.5-8.6.3-5.3 3.8-9.1 8.3-8.8 2.2.1 3.3 1.1 3.6 1.3h.2l.2-3.4c.1-2.2-1-2.3-2.1-2.4-.2 0-.2 0-.2-.2v-.7l5-1.8h.7c.2 0 .2 0 .2.2l-.9 20.2zm-3.1-6.7c.1-2.7-1.3-4.3-3.5-4.4-2.4-.1-4.5 1.5-4.7 5.5-.2 4.2 2 6.5 4.7 6.7 1 0 2.3-.2 3.2-.8l.3-7zM503.4 487.2c.3.1.7.3.9.4-.4 2-2.5 5.7-7 5.5-4-.2-7.2-3.3-6.9-8.7.3-5.3 3.7-8.9 8.3-8.7 4.4.2 6.2 3.8 6 8.1 0 .1-.1.2-.2.2l-10.7-.6c-.1 3.8 1.8 6.2 4.8 6.3 2.5 0 4.1-1.6 4.8-2.5zm-2.8-5.5c.1-2.3-.8-4.1-2.8-4.2-1.7-.1-3.4 1-4 3.8l6.8.4zM534.7 476.5c.1.2-.1.4-.3.4l-1.4-.1c-.7-3.3-1.4-4.3-7-4.6l-2.6-.1-.4 8.4 3.1.2c3.1.2 3.6-1 3.8-2.6 0-.2.1-.3.3-.3h.8c.2 0 .3.1.3.3l-.4 7.7c0 .2-.1.3-.3.3h-.8c-.2 0-.3-.1-.3-.3 0-1.6-.4-2.8-3.5-3l-3.1-.2-.4 7.5c-.1 2.5 1 2.6 2.6 2.7.2 0 .3.1.3.3v.8c0 .2-.1.3-.3.3l-9.5-.5c-.2 0-.3-.1-.3-.3v-.8c0-.2.1-.3.3-.3 1.6.1 2.7.1 2.8-2.4l.8-16c.1-2.5-1-2.6-2.6-2.7-.2 0-.3-.1-.3-.3v-.8c0-.2.1-.3.3-.3l13 .7c2.2.1 2.7.3 3-.1.1-.2.2-.2.4-.2h.7c.2 0 .2.1.3.3l.7 6zM540.3 489.1c-.1 2 .9 3.2 2.8 3.3 1.4.1 2.5-.8 3.1-1.5l.4-7.1c.1-2.2-.6-2.3-1.8-2.5-.2 0-.2-.1-.2-.2v-.7l4.8-2h.7c.2 0 .2 0 .2.2l-.6 12.3c-.1 1.8.9 2.2 2.6 2.2v.8c0 .1-.1.2-.2.2l-5.2 1.1c-.1 0-.2 0-.3-.2l-.2-1.9h-.2c-1.1 1.1-2.5 2.2-4.6 2.1-3.1-.2-5-2.2-4.8-5.6l.3-6.3c.1-2.2-.6-2.3-1.8-2.5-.2 0-.2-.1-.2-.2v-.7l4.8-2h.7c.2 0 .2 0 .2.2l-.5 11zM559.1 474.9l-.2 4.3 4.2.2c.2 0 .2 0 .2.2l-.1 2c0 .2 0 .2-.2.2l-4.2-.2-.5 9.7c-.1 1.5.8 1.9 1.5 2 1 0 2-.8 2.6-1.4l1 .9c-1.2 1.7-2.8 3.4-5 3.2-2.7-.1-3.6-1.9-3.5-4.2l.5-10.5-2.5-.1c-.2 0-.2 0-.2-.2v-.8l5-5.1c.2-.2.4-.3.6-.3l.8.1zM570.1 490.7c-.1 2 .9 3.2 2.8 3.3 1.4.1 2.5-.8 3.1-1.5l.4-7.1c.1-2.2-.6-2.3-1.8-2.5-.2 0-.2-.1-.2-.2v-.7l4.8-2h.7c.2 0 .2 0 .2.2l-.6 12.3c-.1 1.8.9 2.2 2.6 2.2v.8c0 .1-.1.2-.2.2l-5.2 1.1c-.1 0-.2 0-.3-.2l-.2-1.9h-.2c-1.1 1.1-2.5 2.2-4.6 2.1-3.1-.2-5-2.2-4.8-5.6l.3-6.3c.1-2.2-.6-2.3-1.8-2.5-.2 0-.2-.1-.2-.2v-.7l4.8-2h.7c.2 0 .2 0 .2.2l-.5 11zM586.4 486.3c.1-2.2-.8-2.4-1.9-2.7-.2 0-.2-.1-.2-.2v-.7l4.9-2.2h.7c.2 0 .2 0 .2.2l-.1 2.6h.2c1.5-1.8 2.9-2.8 4.5-2.8 1.4.1 2.4 1 2.4 2.5-.1 1.4-.9 2.3-2.2 2.2-.8 0-1.3-.4-1.5-1-.1-.2-.2-.5-.5-.5-.8 0-2.1.9-2.9 2l-.4 7.6c-.1 2.2 1.1 2.5 2.1 2.7.2 0 .2 0 .2.2v.9c0 .2 0 .2-.2.2l-8-.4c-.2 0-.2 0-.2-.2v-.9c0-.2 0-.2.2-.2 1.1 0 2.3-.2 2.4-2.4l.3-6.9zM610.5 492.8c.3.1.7.3.9.4-.4 2-2.5 5.7-7 5.5-4-.2-7.2-3.3-6.9-8.7.3-5.3 3.7-8.9 8.3-8.7 4.4.2 6.2 3.8 6 8.1 0 .1-.1.2-.2.2l-10.7-.6c-.1 3.8 1.8 6.2 4.8 6.3 2.6 0 4.1-1.6 4.8-2.5zm-2.7-5.5c.1-2.3-.8-4.1-2.8-4.2-1.7-.1-3.4 1-4 3.8l6.8.4z"/></g><path fill="#f00" d="M0 0v97.3L768 231V113.8L114.5 0zM0 261.3v115.8l768-50.3V211z"/><defs><path id="a" d="M0 0h768v520H0z"/></defs><clipPath id="b"><use xlink:href="#a" overflow="visible"/></clipPath><g clip-path="url(#b)" fill="#fff"><path d="M81.9 58.3l8.8-13.4L84.5 21c-1.3-5.1-2.4-7-5-7.7-.5-.2-.7-.4-.6-.9l.4-2.3c.1-.5.4-.7.9-.6L99 12.7c.5.1.7.4.6.9l-.4 2.3c-.1.5-.4.7-.9.6-3.1-.3-3.4 2.4-2.6 5.2l2.8 10.9 5.6-8.3c2.1-3.1 2.9-6.1 0-6.8-.6-.2-.8-.5-.7-1l.4-2.2c.1-.5.4-.7.9-.6l15.2 2.7c.5.1.7.4.6.9l-.4 2.2c-.1.5-.4.8-.9.7-4-.4-6.2.8-10.1 6.8l-8.7 13.1 5.8 22.4.8.1L128.4 30c3.4-5.2 1.9-7.7-2.3-8.7-.5-.1-.7-.5-.6-1l.4-2.2c.1-.5.4-.7.9-.6l18.6 3.2c.5.1.7.4.6.9l-.4 2.2c-.1.5-.4.8-.9.7-3.7-.4-5.8.8-9.8 6.9l-33 50c-.3.4-.5.8-1.3.6-.7-.1-.9-.5-1-1l-7.3-28.7-16 24.7c-.3.4-.5.8-1.3.6-.7-.1-.9-.5-1-1L58.8 16.5c-1.5-5.9-2.3-6.9-6-7.9-.5-.1-.7-.4-.6-.9l.4-2.3c.1-.5.4-.7.9-.6l21 3.6c.5.1.7.4.6.9l-.4 2.3c-.1.5-.4.7-.9.6-3.7-.4-3.8 2.2-2.6 6.8L81 58.2l.9.1zM160.9 50.2l.5.1c3.8-2.7 9.2-5.7 16.2-4.5 8.1 1.4 11.8 7.5 10.3 16.1L184 84c-1.1 6.5 3.3 7.6 4.5 8 .5.2.5.2.4.8l-.4 2.4c-.1.5-.2.5-.7.5l-20.7-3.6c-.5-.1-.5-.2-.5-.7l.4-2.5c.1-.5.2-.5.7-.5 1.2 0 5.3.4 6.5-6.1l3.4-19.3c1-5.7-1-9.3-5.8-10.2-5.1-.9-9.6 2-12 3.9l-3.9 22.4c-1.1 6.5 2.3 7.4 3.5 7.8.5.2.6.2.6.7l-.4 2.5c-.1.5-.2.5-.7.5l-20-3.5c-.5-.1-.5-.2-.5-.7l.4-2.5c.1-.5.3-.4.8-.4 1.2 0 5.7.5 6.8-6l7.1-40.9c1.2-6.6-1.6-7.3-4.5-8-.5-.1-.5-.2-.5-.7l.3-2 14.3-4 2.1.4c.5.1.5.2.5.7l-4.8 27.2zM237.9 81c-2.4 14-12.6 22.6-26.6 20.1-14-2.4-20.7-13.9-18.3-28 2.4-14 12.6-22.6 26.6-20.1 14.1 2.5 20.7 14 18.3 28zm-11.4-1.9c2.1-12.2-.3-19.5-7.7-20.8-7.5-1.3-12.2 4.8-14.3 17-2.1 12.2.3 19.5 7.7 20.8 7.4 1.2 12.2-4.9 14.3-17zM286.7 101.8c-1.2 7 1.6 7.5 5.8 8.2.5.1.7.4.6.9l-.4 2.2c-.1.5-.4.7-.9.6l-25.3-4.4c-.5-.1-.7-.4-.6-.9l.4-2.2c.1-.5.4-.7.9-.6 4.2.7 7 1.2 8.2-5.8l7.7-44c1.2-7-1.6-7.5-5.8-8.2-.5-.1-.7-.4-.6-.9l.4-2.2c.1-.5.4-.7.9-.6l25.3 4.4c.5.1.7.4.6.9l-.4 2.2c-.1.5-.4.7-.9.6-4.2-.7-7-1.2-8.2 5.8l-7.7 44zM334.5 87.7c-.3.5-.5.7-1 .6l-2.3-.4c.4-5.4-.8-10.7-6.9-11.7-4.8-.8-8.3 1.3-8.9 4.6-.8 4.8 4.1 7.2 8.6 9.8 6.7 3.9 12.6 8.5 11.1 17.2-1.4 7.8-7.9 13.6-20.1 11.4-6.5-1.1-13.1-4.1-16.7-6.4l5.6-12.4c.2-.5.4-.6.9-.5l2.4.4c-.2 7.9 2.4 13.1 8.8 14.3 3.9.7 8-.6 8.8-5.2.8-4.5-2.7-7.4-8.6-10.8-7-3.9-11.2-8.8-9.9-16.1 1.4-8 9.2-12.8 19.4-11 6.9 1.2 12.4 4.5 13.9 5.3l-5.1 10.9zM426.1 89.9c-2.2 12.6-15.2 18.3-30.1 15.7-5.2-.9-7.9-1.9-7.9-1.9l-2.7 15.2c-1.2 7 1.9 7.6 6.3 8.3.5.1.7.4.6.9l-.4 2.2c-.1.5-.4.7-.9.6l-26.2-4.6c-.5-.1-.7-.4-.6-.9l.4-2.2c.1-.5.4-.7.9-.6 4.4.8 7.5 1.3 8.7-5.7l7.6-43.6c1.2-7-1.6-7.5-5.8-8.2-.5-.1-.7-.4-.6-.9l.4-2.2c.1-.4.2-.6.9-.6 1.2 0 10.1 1 22.5 3.1 22.7 4.1 28.6 15.6 26.9 25.4zm-37 8.6c1.4.6 3.7 1.2 7 1.8 7.5 1.3 16.3-2.6 17.9-11.9 1.5-8.4-2-16.2-13.6-18.3-3.2-.6-6.3-.5-6.3-.5l-5 28.9zM439.3 123.5c-1 5.6 1.3 9.1 6.6 10 3.8.7 7.2-1.3 9.2-3l3.4-19.6c1.1-6.1-.9-6.5-4.1-7.5-.5-.2-.5-.3-.4-.8l.3-1.9 13.9-4 2 .3c.5.1.5.2.5.7l-5.9 33.9c-.8 4.9 1.9 6.3 6.6 7.1l-.4 2.3c-.1.4-.3.5-.7.6l-14.8 1.3c-.4 0-.7-.1-.7-.6l.1-5.3-.7-.1c-3.4 2.6-7.8 5.2-13.5 4.2-8.5-1.5-13.2-7.8-11.6-17.1l3-17.5c1.1-6.1-.9-6.5-4.1-7.5-.5-.2-.5-.3-.4-.8l.3-1.9 14.1-4 2 .3c.5.1.5.2.5.7l-5.2 30.2zM491.5 137.5c-1.1 6.5 2.6 7.5 5.5 8.2.5.1.5.2.5.7l-.4 2.5c-.1.5-.2.5-.7.5l-23-4c-.5-.1-.5-.2-.5-.7l.4-2.5c.1-.5.2-.5.7-.5 3 .3 6.8.7 8-5.8l7-40.9c1.1-6.3-1.4-7.1-4.5-8-.4-.1-.5-.2-.4-.8l.3-1.9 14.3-4 2.1.4c.5.1.5.2.5.7l-9.8 56.1zM517.9 142.1c-1.1 6.5 2.6 7.5 5.5 8.2.5.1.5.2.5.7l-.4 2.5c-.1.5-.2.5-.7.5l-23-4c-.5-.1-.5-.2-.5-.7l.4-2.5c.1-.5.2-.5.7-.5 3 .3 6.8.7 8-5.8l7.1-40.9c1.1-6.3-1.4-7.1-4.5-8-.4-.1-.5-.2-.4-.8l.3-1.9 14.3-4 2.1.4c.5.1.5.2.5.7l-9.9 56.1zM544.6 146.8c-1.1 6.5 2.6 7.5 5.5 8.2.5.1.5.2.5.7l-.4 2.5c-.1.5-.2.5-.7.5l-23-4c-.5-.1-.5-.2-.5-.7l.4-2.5c.1-.5.2-.5.7-.5 3 .3 6.8.7 8-5.8l3.4-19.7c1.1-6.3-1.4-7.2-4.5-8-.4-.1-.5-.2-.4-.8l.3-1.9 14.4-4.4 2.1.4c.5.1.5.2.5.7l-6.3 35.3zm3.9-56.8c3.9.7 6.5 4.3 5.8 8.2-.7 3.8-4.3 6.4-8.2 5.7-3.8-.7-6.4-4.3-5.7-8.1.6-3.9 4.3-6.5 8.1-5.8zM598.4 156.1c-1.1 6.5 3.7 7.7 4.9 8.1.5.2.5.2.4.8l-.4 2.4c-.1.5-.2.5-.7.5l-21-3.7c-.5-.1-.5-.2-.5-.7l.4-2.5c.1-.5.2-.5.7-.5 1.2 0 5.3.4 6.5-6.1l3.4-19.3c1-5.7-1-9.3-5.8-10.2-5.1-.9-9.6 1.9-12 3.9l-3.9 22.4c-1.1 6.5 2.4 7.4 3.5 7.8.5.2.5.2.5.7l-.4 2.5c-.1.5-.2.5-.7.5l-20-3.5c-.5-.1-.5-.2-.5-.7l.4-2.5c.1-.5.2-.5.7-.5 1.2 0 5.8.5 6.9-6l3.4-19.3c1.1-6.3-1.4-7.2-4.5-8-.5-.1-.5-.3-.4-.8l.3-1.9 14.3-4.5 2 .3c.5.1.5.2.5.7l-1.1 6.4.7.1c3.7-2.8 9-6 16.3-4.8 8.1 1.4 11.8 7.5 10.3 16.1l-4.2 22.3zM632.9 125c3 .5 5.6 1.5 7.9 2.7l15.1 2.6c.5.1.5.2.5.7l-.9 5.4c-.1.5-.2.5-.7.5l-6.5-1.1c.9 2.4 1.6 5.5 1 8.8-1.6 9.1-9.9 14.6-21.8 12.5-2.2-.4-4.2-.9-6-1.6-1.2 1-2.3 2.4-2.5 3.3-.2 1.4.7 2.3 2.3 2.6l13.1 2.3c9.6 1.7 15.2 5.3 13.7 13.3-1.8 9.8-13.3 17-28.5 14.3-11.3-2-16.9-6.8-15.8-13.3.5-3.1 4.8-6.6 8.9-8.6-3.6-1.7-4.8-4.1-4.3-7 .6-3.2 3.7-6.4 8.8-9.3-5-3.6-7.1-8.9-6-15.2 1.4-8.7 9.9-14.9 21.7-12.9zm-15.5 45.9c-1.7 1.6-3 3.3-3.4 5.7-.7 4 .8 8.5 9.3 10 6.6 1.2 14.1-1.8 15-7.2.6-3.2-1.2-5-7.8-6.2L618 171l-.6-.1zm10.8-18.4c4.8.8 9-2.6 10.3-9.8 1.2-6.9-1-12.1-6.3-13-5.1-.9-9.1 3.2-10.3 10.2-1.3 7.1.7 11.6 6.3 12.6z"/></g><g fill="#fff"><path d="M188.3 272.9l.8 12 11.8-.8c.5 0 .6.1.6.5l.4 5.5c0 .5-.1.6-.5.6l-11.8.8 1.8 27.1c.3 4.3 2.8 5.1 4.8 5 2.7-.2 5.2-2.8 6.7-4.7l3 2.2c-2.7 5.1-6.6 10.2-12.8 10.6-7.5.5-10.5-4.1-11-10.4l-1.9-29.2-6.9.5c-.5 0-.6-.1-.6-.5l-.2-2.4 12.3-15.7c.6-.7.9-.9 1.6-1l1.9-.1zM220.6 288.8h.5c3.1-3.5 7.6-7.7 14.7-8.2 8.2-.5 13.2 4.5 13.8 13.2l1.5 22.5c.4 6.6 5 6.6 6.2 6.7.5.1.6.1.6.6l.2 2.5c0 .5-.1.6-.5.6l-20.9 1.4c-.5 0-.6-.1-.6-.5l-.2-2.6c0-.5.1-.5.5-.6 1.2-.3 5.3-.8 4.8-7.5l-1.3-19.5c-.4-5.8-3.1-8.8-8.1-8.5-5.1.3-8.9 4.2-10.8 6.6l1.5 22.6c.4 6.6 4 6.7 5.2 6.8.5.1.7.1.7.5l.2 2.6c0 .5-.1.6-.5.6l-20.3 1.3c-.5 0-.6-.1-.6-.5l-.2-2.6c0-.5.2-.5.6-.6 1.2-.3 5.7-.8 5.2-7.5l-2.7-41.4c-.4-6.7-3.3-6.7-6.2-6.7-.5 0-.6-.1-.6-.5l-.1-2 12.9-7.2 2.1-.1c.5 0 .6.1.6.5l1.8 27.5zM294.5 308.4c.9.1 2.1.5 2.6.8-.6 5.7-5 16.6-17.7 17.4-11.2.7-21.1-6.8-22.1-22-1-14.7 7.2-26 20-26.8 12.2-.8 18.5 8.6 19.3 20.4 0 .3-.2.5-.5.5l-29.9 2c1.1 10.6 7 16.5 15.3 15.9 7.5-.4 11.4-5.4 13-8.2zm-9.3-14.2c-.4-6.4-3.6-11.1-9.3-10.7-4.8.3-9.2 4-9.8 12l19.1-1.3zM336.5 298.8c2.6 12.8 10 18.2 19.5 17.6 8.8-.6 12.7-5.8 12.3-11.7-.5-7-6.4-9.6-15-11.7-9-2.2-21-5.4-21.9-18.9-.6-9.9 4.9-20.6 23.1-21.8 8.3-.5 14.7 1.2 18.9 2.5l-3.2 15c-.2.5-.4.7-.9.7l-2.5.2c-1.7-8.3-6-13.1-14.3-12.6-8.4.6-12.1 5.9-11.8 10.9.5 7.6 10 9.1 16.5 10.7 11.5 2.8 20.3 6.8 21.2 19.5.8 12.1-6.4 21.5-23.4 22.7-10.3.7-19-2.1-25.3-4.8l3.3-17.2c.2-.6.4-.7.9-.7l2.6-.4zM394.4 259.4l.8 12 11.8-.8c.5 0 .6.1.6.5l.4 5.5c0 .5-.1.6-.5.6l-11.8.8 1.8 27.1c.3 4.3 2.8 5.1 4.8 5 2.7-.2 5.2-2.8 6.7-4.7l3 2.2c-2.7 5.1-6.6 10.2-12.8 10.6-7.5.5-10.5-4.1-11-10.4l-1.9-29.2-6.9.5c-.5 0-.6-.1-.6-.5l-.2-2.4 12.3-15.7c.6-.7.9-.9 1.7-1l1.8-.1zM419.2 285.6c-.4-6.3-2.9-6.5-6.2-6.7-.5-.1-.6-.2-.6-.6l-.1-1.9 13-7.7 2-.1c.5 0 .6.1.6.5l.5 7.3h.7c3.4-5.6 7.1-8.8 11.5-9.1 3.9-.3 7.1 1.9 7.4 6.3.2 3.8-1.9 6.6-5.5 6.8-2.2.1-3.7-.7-4.5-2.2-.3-.6-.8-1.4-1.6-1.3-2.2.1-5.4 3.2-7.5 6.5l1.4 21.2c.4 6.3 3.8 6.7 6.8 6.7.5 0 .6.1.6.5l.2 2.6c0 .5-.1.6-.5.6l-22.4 1.5c-.5 0-.6-.1-.6-.5l-.2-2.6c0-.5.1-.6.5-.6 3-.4 6.3-1.3 5.9-7.5l-1.4-19.7zM468.8 301.9c.4 6.6 4.2 6.7 7.3 6.7.5 0 .6.1.6.5l.2 2.6c0 .5-.1.6-.5.6l-23.3 1.5c-.5 0-.6-.1-.6-.5l-.2-2.6c0-.5.1-.6.5-.6 3-.4 6.8-.9 6.4-7.6l-1.3-20c-.4-6.3-3-6.7-6.2-6.7-.4 0-.6-.1-.6-.6l-.1-1.9 12.9-7.7 2.1-.1c.5 0 .6.1.6.5l2.2 35.9zm-9.6-56.1c4-.3 7.3 2.7 7.6 6.6.3 3.9-2.7 7.2-6.6 7.5-3.9.3-7.2-2.7-7.5-6.6-.3-3.9 2.6-7.2 6.5-7.5zM523.4 298.3c.4 6.6 5.4 6.6 6.6 6.7.5.1.6.1.6.6l.2 2.5c0 .5-.1.6-.5.6l-21.3 1.4c-.5 0-.6-.1-.6-.5l-.2-2.6c0-.5.1-.5.5-.6 1.2-.3 5.3-.8 4.8-7.5l-1.3-19.5c-.4-5.8-3.1-8.8-8.1-8.5-5.1.3-8.9 4.1-10.8 6.6l1.5 22.6c.4 6.6 4.1 6.7 5.3 6.8.5.1.6.1.6.5l.2 2.6c0 .5-.1.6-.5.6l-20.3 1.3c-.5 0-.6-.1-.6-.5l-.2-2.6c0-.5.1-.5.5-.6 1.2-.3 5.7-.9 5.3-7.5l-1.3-19.5c-.4-6.3-3-6.7-6.2-6.7-.5 0-.6-.2-.6-.6l-.1-1.9 12.8-7.7 2-.1c.5 0 .6.1.6.5l.4 6.4h.7c2.9-3.6 7.4-8 14.7-8.5 8.2-.5 13.2 4.5 13.8 13.2l1.5 22.5zM549.6 260c3-.2 5.8.1 8.3.8l15.3-1c.5 0 .6.1.6.5l.4 5.5c0 .5-.1.6-.5.6l-6.6.4c1.5 2.1 2.8 5 3 8.4.6 9.2-6.2 16.5-18.3 17.3-2.3.1-4.3.1-6.2-.2-1 1.3-1.7 2.9-1.7 3.8.1 1.4 1.3 2.1 2.9 2l13.3-.9c9.8-.6 16 1.6 16.4 9.7.6 10-8.9 19.6-24.3 20.6-11.5.8-18.1-2.6-18.5-9.2-.2-3.1 3.1-7.5 6.6-10.4-3.9-.8-5.6-2.9-5.8-5.8-.2-3.2 2.1-7.1 6.4-11.1-5.7-2.3-9-6.9-9.4-13.4-.7-8.8 6.1-16.8 18.1-17.6zm1.9 27.7c4.8-.3 8.2-4.6 7.7-11.9-.5-7-3.8-11.6-9.2-11.2-5.1.3-8.1 5.3-7.7 12.3.5 7.3 3.5 11.2 9.2 10.8zm-6.2 20.5c-1.3 2-2.1 3.9-2 6.3.3 4.1 2.8 8.1 11.4 7.5 6.7-.4 13.3-5.1 12.9-10.6-.2-3.2-2.3-4.6-9-4.2l-12.7.8-.6.2zM609.3 270.5c-.2.6-.3.8-.8.8l-2.4.2c-.9-5.4-3.3-10.2-9.5-9.8-4.8.3-7.8 3.3-7.6 6.6.3 4.8 5.6 6 10.7 7.5 7.5 2.2 14.2 5.3 14.8 14.1.5 7.9-4.4 15-16.9 15.9-6.5.4-13.7-.9-17.8-2.3l2.5-13.4c.1-.5.2-.7.7-.7l2.5-.2c1.6 7.7 5.5 12.2 11.9 11.8 4-.3 7.6-2.5 7.3-7.1-.3-4.5-4.3-6.6-10.9-8.4-7.8-2.2-12.9-5.9-13.4-13.3-.5-8.1 5.9-14.6 16.2-15.2 7-.5 13.1 1.4 14.8 1.9l-2.1 11.6zM628.6 282.1c-.5 0-.6-.1-.6-.5l-.1-2.1c-1-14.5 10.3-18.9 9.5-30.5-.3-4.5-2.4-9.3-8.9-8.8-4.9.3-6.6 3.3-6.6 4 .1.9 2.7 1.8 2.9 5.4.2 3.3-1.8 6.2-5.5 6.4-4 .3-6.2-2.7-6.4-6.5-.4-6.3 4.6-14.1 17.3-14.9 14.4-.9 18.3 8.4 18.6 14.4.9 13.4-15.4 17.4-14.5 30.7l.1 1.4c0 .5-.1.6-.5.6l-5.3.4zm3.7 8.3c3.7-.2 6.7 2.4 7 6.1.2 3.6-2.4 6.6-6.1 6.9-3.6.2-6.6-2.4-6.9-6-.3-3.7 2.4-6.7 6-7z"/></g><path fill="#00C34B" d="M694.9 0L0 110.1V227l768-121.6V0zM463.7 357.7l30.1 111.5L768 395.1V275.4zM85 179.6l.8 115.5 682.2-4.4V175.1z"/><defs><path id="c" d="M0 0h768v520H0z"/></defs><clipPath id="d"><use xlink:href="#c" overflow="visible"/></clipPath><g clip-path="url(#d)" fill="#fff"><path d="M182.4 96.5c1.4-.2 2-.4 2.4-1.2.2-.5.4-.6.9-.7l2-.3c.5-.1.7.1.9.5l6.4 18c.2.5-.1.7-.5.7l-4.4.7c-3.7-7.6-7.7-12-16.7-10.5l-5.3.8 7.8 49.2c1.1 7 4.2 6.5 8.6 5.8.5-.1.8.2.9.6l.4 2.3c.1.5-.2.8-.6.9l-26.3 4.2c-.5.1-.8-.2-.9-.6l-.4-2.3c-.1-.5.2-.8.6-.9 4.4-.7 7.5-1.2 6.4-8.2l-7.8-49.2-5.3.8c-9 1.4-11.4 6.8-12.6 15.2l-4.4.7c-.4.1-.7 0-.7-.6l.5-19.1c0-.5.2-.7.6-.8l1.8-.3c.6-.1.8 0 1.1.4.6.7 1.3.7 2.7.4l41.9-6.5zM214.3 118.1l.5-.1c2.8-3.8 6.8-8.4 13.9-9.5 8.2-1.3 13.6 3.2 15 11.9l3.5 22.2c1 6.6 5.6 6.1 6.8 6.1.5 0 .6 0 .7.6l.4 2.4c.1.5 0 .6-.5.7l-20.7 3.3c-.5.1-.6 0-.7-.5l-.4-2.5c-.1-.5 0-.5.5-.7 1.2-.4 5.2-1.3 4.1-7.9l-3.1-19.3c-.9-5.7-3.9-8.5-8.8-7.7-5.1.8-8.4 5-10.1 7.6l3.5 22.4c1 6.6 4.6 6.3 5.8 6.3.5 0 .7 0 .7.5l.4 2.5c.1.5 0 .6-.5.7l-20.1 3.2c-.5.1-.6 0-.7-.5l-.4-2.5c-.1-.5.1-.5.6-.7 1.2-.4 5.6-1.4 4.5-7.9l-6.5-41c-1.1-6.7-3.9-6.4-6.8-6.1-.5.1-.6 0-.7-.5l-.3-2 12.2-8.4 2.1-.3c.5-.1.6 0 .7.5l4.4 27.2zM289.6 130.9c.9.1 2.2.3 2.7.5-.1 5.7-3.5 17-16 19-11.1 1.8-21.6-4.8-24-19.8-2.3-14.6 4.8-26.6 17.5-28.6 12.1-1.9 19.3 6.9 21.1 18.6 0 .3-.1.5-.5.6l-29.6 4.7c2 10.4 8.5 15.8 16.7 14.5 7.4-1.3 10.8-6.6 12.1-9.5zm-10.5-13.3c-1-6.4-4.6-10.7-10.2-9.8-4.8.8-8.8 4.8-8.6 12.8l18.8-3zM395.2 78.8c1.3 8.3-4.5 13.7-8.9 16.1 6 .7 15.7 3.9 17.4 14.6 1.4 8.8-1.8 19.9-25.9 23.7-11.7 1.9-24.1 3.4-25.2 3.4-.7 0-.8-.2-.9-.6l-.4-2.3c-.1-.5.2-.8.6-.9 4.2-.7 7.5-1.2 6.4-8.2l-6.9-43.5c-1.1-7-3.9-6.6-8.1-5.9-.5.1-.8-.2-.9-.6l-.4-2.3c-.1-.4 0-.7.6-.9 1.2-.4 10.9-2.5 23.2-4.4 20.4-3.1 27.9 2.6 29.4 11.8zm-29.8 16.9l6.9-1.1c7.6-1.2 11.9-6.8 10.9-13.3-1.1-7.2-7-10.6-15.6-9.3-3.3.5-5.7 1.5-5.7 1.5l3.5 22.2zm5.2 32.9s3 .1 6.3-.4c9.7-1.5 15.9-6.6 14.3-16.6-1.5-9.7-8.7-12.8-17.9-11.3l-6.9 1.1 4.2 27.2zM436.6 119c-2.2 3.2-5.3 6.9-11.6 7.9-8.3 1.3-14-3.2-15-9.9-1.1-6.8 3.1-12.4 11.1-15.6l11.5-4.6-.7-4.5c-.8-5.3-2.5-10.9-8.9-9.8-4.3.7-5.7 3.5-5.5 4.4.1.8 1.7 1.9 2.1 4.6.5 3.5-1.5 6-4.8 6.5-3.9.6-6.8-2.1-7.4-5.8-.8-5.2 2.8-12.4 15.4-14.4 15.4-2.4 18.1 7 19.6 18l2.4 16.3c.4 3.4 1.7 4.5 3.2 4.3 1.3-.2 2-1.3 2.4-1.8.2-.3.5-.4.7-.2l1.6.9c.2.2.2.3.1.8-.7 2.4-2.7 6.6-7.3 7.3-3.7.6-6.4-1.4-8-4.6l-.9.2zm-3.3-17.2l-8.2 4.4c-2.9 1.5-5.5 3.9-4.9 7.7.5 3.5 3.3 5.3 7.4 4.7 3.4-.5 5.9-2.5 7.8-4.4l-2.1-12.4zM459 61.2l1.9 11.9 11.7-1.9c.5-.1.6 0 .7.5l.9 5.4c.1.5 0 .6-.5.7L462 79.7l4.2 26.8c.7 4.2 3.3 4.9 5.2 4.6 2.6-.4 5-3.3 6.3-5.3l3.2 1.9c-2.2 5.4-5.6 10.8-11.8 11.8-7.4 1.2-10.9-3.1-11.9-9.4l-4.6-28.9-6.8 1.1c-.5.1-.6 0-.7-.5l-.4-2.3 10.8-16.8c.6-.8.8-1 1.6-1.1l1.9-.4zM491.4 56.1l1.9 11.9 11.7-1.9c.5-.1.6 0 .7.5l.9 5.4c.1.5 0 .6-.5.7l-11.7 1.9 4.2 26.8c.7 4.2 3.3 4.9 5.2 4.6 2.6-.4 5-3.3 6.3-5.3l3.2 1.9c-2.2 5.4-5.6 10.8-11.8 11.8-7.4 1.2-10.9-3.1-11.9-9.4L485 76l-6.8 1.1c-.5.1-.6 0-.7-.5l-.4-2.3L488 57.5c.6-.8.8-1 1.6-1.1l1.8-.3zM530.8 97.7c1 6.6 4.8 6.3 7.9 6 .5-.1.6 0 .7.5l.4 2.5c.1.5 0 .6-.5.7l-23.1 3.7c-.5.1-.6 0-.7-.5l-.4-2.5c-.1-.5 0-.6.5-.7 3-.7 6.7-1.5 5.6-8.1l-6.5-41c-1-6.3-3.6-6.3-6.8-6.1-.4.1-.6 0-.7-.6l-.3-1.9 12.2-8.4 2.1-.3c.5-.1.6 0 .7.5l8.9 56.2zM574.2 85.8c.9.1 2.2.3 2.7.5-.1 5.7-3.5 17-16 19-11.1 1.8-21.6-4.8-24-19.8C534.5 71 541.6 59 554.3 57c12.1-1.9 19.3 6.9 21.1 18.6 0 .3-.1.5-.5.6l-29.6 4.7c2 10.4 8.5 15.8 16.7 14.5 7.4-1.3 10.8-6.7 12.2-9.6zm-10.6-13.3c-1-6.4-4.6-10.7-10.2-9.8-4.8.8-8.8 4.8-8.6 12.8l18.8-3z"/></g><g clip-path="url(#d)" fill="#fff"><path d="M536.3 411.3c1.9 6.9 4.6 6.1 8.7 5 .5-.1.8.1.9.5l.6 2.2c.1.5-.1.8-.5.9l-24.8 6.7c-.5.1-.8-.1-.9-.5l-.6-2.2c-.1-.5.1-.8.5-.9 4.1-1.1 6.9-1.9 5-8.7l-11.6-43.1c-1.9-6.9-4.6-6.1-8.7-5-.5.1-.8-.1-.9-.5l-.6-2.2c-.1-.5.1-.8.5-.9l24.8-6.7c.5-.1.8.1.9.5l.6 2.2c.1.5-.1.8-.5.9-4.1 1.1-6.9 1.9-5 8.7l11.6 43.1zM573.6 378.4c0 .6-.2.8-.6 1l-2.3.6c-2-5.1-5.3-9.3-11.2-7.7-4.7 1.3-7 4.7-6.1 7.9 1.3 4.7 6.7 4.8 11.9 5.2 7.8.7 15 2.3 17.3 10.9 2.1 7.6-1.4 15.6-13.4 18.9-6.3 1.7-13.6 1.8-17.9 1.3l-.1-13.6c0-.5.1-.7.6-.8l2.4-.6c3.1 7.2 7.8 10.9 14 9.2 3.8-1 7-4 5.8-8.4-1.2-4.4-5.5-5.6-12.4-6.1-8-.6-13.9-3.2-15.8-10.4-2.1-7.9 2.9-15.4 12.9-18.1 6.8-1.8 13.2-1.2 14.9-1.1v11.8zM673.7 351.1c5 18.3-3.1 36.8-23.3 42.2-20.2 5.5-36.4-6.4-41.4-24.7-5-18.3 3.2-36.8 23.3-42.2 20.1-5.5 36.4 6.3 41.4 24.7zm-13.2 3.5c-5-18.3-15.3-25.9-26.7-22.8-11.5 3.1-16.6 14.8-11.6 33.1 5 18.3 15.3 25.9 26.7 22.8 11.4-3 16.5-14.7 11.6-33.1zM726.6 360c1.7 6.4 6.6 5.4 7.8 5.3.5 0 .6-.1.7.5l.6 2.4c.1.5.1.6-.4.7l-20.6 5.6c-.5.1-.6.1-.7-.4l-.7-2.5c-.1-.5 0-.5.4-.7 1.1-.5 5-1.8 3.3-8.3l-5.1-18.9c-1.5-5.6-4.8-8-9.6-6.8-5 1.3-7.9 5.8-9.3 8.6l5.9 21.9c1.7 6.4 5.3 5.8 6.5 5.6.5 0 .6-.1.7.4l.7 2.5c.1.5.1.6-.4.7l-19.6 5.3c-.5.1-.6.1-.7-.4l-.7-2.5c-.1-.5 0-.5.4-.7 1.1-.5 5.5-2 3.7-8.4l-5.1-18.9c-1.7-6.1-4.3-5.9-7.5-5.4-.5.1-.6 0-.7-.5l-.5-1.8 11-10.1 1.9-.5c.5-.1.6-.1.7.4l1.7 6.2.6-.2c2.1-4.1 5.7-9.3 12.7-11.2 8-2.2 13.9 1.8 16.1 10.2l6.2 21.9zM738.8 344.8s0-.4-.4-1.5c-6.6-20.7-12.1-26.9-13.4-31.7-1.8-6.6.8-10.1 4.6-11.1s7.8.7 9.5 7.3c1.3 4.8-.3 13 4.4 34.1l.4 1.5-5.1 1.4zm5.4 9.6c3.6-1 7.1 1 8 4.6.9 3.5-1.1 7-4.6 7.9-3.5.9-7-1.1-7.9-4.5-1-3.5 1-7 4.5-8z"/></g><g fill="#fff"><path d="M304.1 212.3c-.1-16.5 7-21 16.2-21.1 8.4-.1 11.3 4 11.4 8.9 0 4.1-1.9 6.8-5.7 6.9-2.9 0-5.5-1.8-5.5-5.5 0-2.5 1.1-4 1.1-4.9 0-.5-.4-.7-1.5-.7-3.1 0-6.4 1.5-6.4 12.4 0 1.8.1 4.7.1 4.7l10.5-.1c.5 0 .6.1.6.6v5.5c0 .5-.1.6-.6.6l-10.5.1.2 28.6c0 6.6 3.8 6.9 6.9 7.1.5 0 .6.1.6.6v2.6c0 .5-.1.6-.6.6l-23.4.2c-.5 0-.6-.1-.6-.6v-2.6c0-.5.1-.6.6-.6 3-.2 6.8-.5 6.8-7.2l-.2-28.6h-7.4c-.5 0-.6-.1-.6-.6v-2.8c0-.5.2-.6.6-.8l7.4-3.3zM371.3 235.7c.1 14.2-8.4 24.5-22.6 24.6-14.2.1-22.9-10-22.9-24.3-.1-14.2 8.4-24.5 22.6-24.6s22.9 10.1 22.9 24.3zm-11.5.1c-.1-12.3-3.7-19.2-11.3-19.1-7.6 0-11.2 6.9-11.1 19.3s3.7 19.2 11.3 19.1c7.6-.1 11.1-6.9 11.1-19.3zM380.3 228.3c0-6.3-2.5-6.6-5.8-7.1-.5-.1-.6-.2-.6-.7v-1.9l13.4-6.9h2c.5 0 .6.1.6.6v7.3h.7c3.8-5.3 7.6-8.4 12-8.4 3.9 0 6.9 2.3 7 6.7 0 3.8-2.2 6.5-5.8 6.5-2.2 0-3.6-.9-4.4-2.4-.3-.7-.7-1.4-1.5-1.4-2.2 0-5.6 2.9-7.8 6l.1 21.3c0 6.3 3.4 6.9 6.4 7.1.5 0 .6.1.6.6v2.6c0 .5-.1.6-.6.6l-22.4.1c-.5 0-.6-.1-.6-.6v-2.6c0-.5.1-.6.6-.6 3-.2 6.4-.9 6.3-7.2l-.2-19.6zM493.7 211.4c.1 12.8-11.7 20.7-26.8 20.8-5.3 0-8.1-.4-8.1-.4l.1 15.5c0 7.1 3.2 7.1 7.6 7.1.5 0 .8.3.8.8v2.3c0 .5-.3.8-.8.8l-26.6.2c-.5 0-.8-.3-.8-.8v-2.3c0-.5.3-.8.8-.8 4.5 0 7.6 0 7.5-7.2l-.3-44.2c0-7.1-2.9-7.1-7.2-7.1-.5 0-.8-.3-.8-.8V193c0-.4.1-.7.8-.8 1.1-.2 10.2-.8 22.7-.9 23.2-.2 31 10.1 31.1 20.1zm-35 15c1.5.4 3.9.5 7.2.5 7.6 0 15.5-5.4 15.5-14.9-.1-8.5-4.9-15.6-16.6-15.6-3.2 0-6.3.6-6.3.6l.2 29.4zM511 247c0 6.6 3.8 6.9 6.9 7.1.5 0 .6.1.6.6v2.6c0 .5-.1.6-.6.6l-23.4.2c-.5 0-.6-.1-.6-.6v-2.6c0-.5.1-.6.6-.6 3-.2 6.8-.5 6.8-7.2l-.3-41.5c0-6.4-2.6-6.7-5.8-7.1-.4 0-.6-.1-.6-.7v-1.9l13.3-6.4h2.1c.5 0 .6.1.6.6l.4 56.9zM546.8 253c-2.6 2.9-6.2 6-12.7 6.1-8.4.1-13.3-5.2-13.4-12.1 0-6.9 5-11.8 13.3-13.8l12-2.8v-4.6c0-5.3-.8-11.1-7.3-11.1-4.4 0-6.2 2.6-6.1 3.6 0 .8 1.3 2.2 1.4 4.8 0 3.5-2.4 5.7-5.8 5.7-4 0-6.4-3.1-6.4-6.8 0-5.2 4.6-11.8 17.4-11.9 15.6-.1 16.9 9.7 16.7 20.8l-.1 16.5c-.1 3.4 1 4.7 2.5 4.7 1.3 0 2.2-1 2.7-1.4.3-.3.6-.3.8-.1l1.4 1.1c.2.2.2.4 0 .8-1 2.3-3.7 6.1-8.3 6.1-3.7 0-6.1-2.3-7.3-5.7l-.8.1zm-.7-17.4l-8.8 3.1c-3.1 1.1-6.1 3-6 6.9 0 3.5 2.5 5.8 6.6 5.7 3.4 0 6.2-1.6 8.3-3.2l-.1-12.5zM597.6 224.3c-.2.6-.4.8-.8.8h-2.4c-.6-5.4-2.7-10.3-8.9-10.3-4.8 0-8 2.8-7.9 6.1 0 4.8 5.3 6.3 10.2 8.1 7.3 2.6 13.9 6.1 14 14.9.1 7.9-5.3 14.8-17.8 14.8-6.6 0-13.6-1.7-17.6-3.3l3.3-13.2c.1-.5.3-.7.8-.7h2.5c1.2 7.8 4.7 12.5 11.2 12.5 4 0 7.8-2 7.7-6.7 0-4.6-3.9-6.8-10.4-9-7.6-2.6-12.6-6.7-12.6-14.1-.1-8.2 6.7-14.2 17.1-14.3 7 0 13 2.2 14.6 2.8l-3 11.6zM621.3 199l.1 12.1 11.9-.1c.5 0 .6.1.6.6v5.5c0 .5-.1.6-.6.6l-11.9.1.2 27.2c0 4.3 2.5 5.3 4.5 5.3 2.7 0 5.4-2.5 7-4.3l2.9 2.4c-3 5-7.2 9.8-13.4 9.9-7.5 0-10.3-4.7-10.3-11l-.2-29.2h-6.9c-.5 0-.6-.1-.6-.6v-2.4l13.2-15c.7-.7.9-.9 1.7-.9l1.8-.2zM654.3 246c0 6.6 3.8 6.9 6.9 7.1.5 0 .6.1.6.6v2.6c0 .5-.1.6-.6.6l-23.4.2c-.5 0-.6-.1-.6-.6v-2.6c0-.5.1-.6.6-.6 3-.2 6.8-.5 6.8-7.2l-.1-20c0-6.4-2.6-6.8-5.8-7.1-.4 0-.6-.1-.6-.7v-1.9l13.3-6.9h2.1c.5 0 .6.1.6.6l.2 35.9zm-6.3-56.5c4 0 7.1 3.1 7.2 7.1 0 3.9-3.1 7-7.1 7.1-3.9 0-7-3.1-7.1-7 0-4 3.1-7.2 7-7.2zM685.6 209.3c6 0 11.7 1.8 15.2 3.2l-5 13.8c-.2.5-.5.6-.9.6H693c-.7-6.4-2.8-12.1-9.5-12.1-6.1 0-11.8 5.6-11.8 15.8.1 11 6 17.1 14.6 17 7.5 0 11.1-4.5 12.6-6.8.9.2 2.1.7 2.6.9-1.1 5.3-5.2 16.3-18.2 16.4-10.6.1-20.6-7-20.7-23.1-.1-15.2 9.3-25.6 23-25.7z"/></g><path fill="#005FFF" d="M279.1 0L0 396.8V520h54.6L420.4 0z"/><defs><path id="e" d="M0 0h768v520H0z"/></defs><clipPath id="f"><use xlink:href="#e" overflow="visible"/></clipPath><g clip-path="url(#f)" fill="#fff"><path d="M70.8 419.3c5.8 4.1 7.5 1.8 9.9-1.7.3-.4.7-.5 1.1-.2l1.9 1.3c.4.3.5.7.2 1.1l-14.8 21c-.3.4-.7.5-1.1.2l-1.9-1.3c-.4-.3-.5-.7-.2-1.1 2.5-3.5 4.1-5.8-1.7-9.9L27.7 403c-5.8-4.1-7.5-1.8-9.9 1.7-.3.4-.7.5-1.1.2l-1.9-1.3c-.4-.3-.5-.7-.2-1.1l14.8-21c.3-.4.7-.5 1.1-.2l1.9 1.3c.4.3.5.7.2 1.1-2.5 3.5-4.1 5.8 1.7 9.9l36.5 25.7zM46.7 371.5l9.9 6.9 6.8-9.7c.3-.4.4-.4.8-.1l4.5 3.2c.4.3.4.4.1.8l-6.8 9.7 22.2 15.6c3.5 2.5 5.8 1 6.9-.6 1.5-2.2 1.1-5.8.5-8.2l3.6-1c2.3 5.3 3.8 11.5.2 16.7-4.3 6.1-9.8 5.7-15 2L56.6 390l-4 5.7c-.3.4-.4.4-.8.1l-1.9-1.4-4.6-19.4c-.2-.9-.2-1.3.3-1.9l1.1-1.6zM122.3 346.2c5.8 4.1 7.5 1.8 9.9-1.7.3-.4.7-.5 1.1-.2l1.9 1.3c.4.3.5.7.2 1.1l-14.8 21c-.3.4-.7.5-1.1.2l-1.9-1.3c-.4-.3-.5-.7-.2-1.1 2.5-3.5 4.1-5.8-1.7-9.9l-36.5-25.7c-5.8-4.1-7.5-1.8-9.9 1.7-.3.4-.7.5-1.1.2l-1.9-1.3c-.4-.3-.5-.7-.2-1.1l14.8-21c.3-.4.7-.5 1.1-.2l1.9 1.3c.4.3.5.7.2 1.1-2.5 3.5-4.1 5.8 1.7 9.9l36.5 25.7zM130 296.9c.4.5.4.7.1 1.1l-1.4 1.9c-4.8-2.6-10-3.8-13.5 1.3-2.8 4-2.3 8.1.4 10 4 2.8 8.2-.6 12.5-3.6 6.4-4.5 13-7.8 20.2-2.7 6.4 4.5 8.9 12.9 1.8 23.1-3.8 5.4-9.3 10.1-12.9 12.4l-8.8-10.4c-.3-.3-.4-.6-.1-1l1.4-2c7 3.5 12.9 3.4 16.6-1.9 2.3-3.3 2.8-7.5-1-10.2-3.7-2.6-7.8-.7-13.4 3.2-6.5 4.7-12.7 6.4-18.8 2.1-6.7-4.7-7.6-13.7-1.7-22.2 4-5.7 9.3-9.3 10.7-10.3l7.9 9.2zM152.3 206.9c.8-1.2 1.1-1.8.8-2.6-.2-.5-.2-.7.1-1.2l1.1-1.6c.3-.4.5-.4 1-.2l17.4 7.9c.5.2.4.5.2.8l-2.6 3.7c-8-2.6-13.9-2.8-19.2 4.6l-3.1 4.4 40.8 28.7c5.8 4.1 7.6 1.5 10.2-2.1.3-.4.7-.5 1.1-.2l1.9 1.3c.4.3.5.7.2 1.1l-15.3 21.7c-.3.4-.7.5-1.1.2l-1.9-1.3c-.4-.3-.5-.7-.2-1.1 2.6-3.6 4.4-6.2-1.5-10.3L141.4 232l-3.1 4.4c-5.2 7.5-3.1 12.9 2.1 19.6l-2.6 3.7c-.2.3-.5.5-.9.1l-13.4-13.7c-.3-.4-.4-.6-.1-1l1-1.5c.3-.5.5-.6 1.1-.5.9 0 1.4-.4 2.2-1.6l24.6-34.6zM163.8 188.9c2.3-3.3 6.7-4 9.9-1.7 3.2 2.2 3.9 6.6 1.7 9.9-2.2 3.2-6.6 3.9-9.8 1.7-3.2-2.4-4-6.7-1.8-9.9zm49.7 27.7c5.4 3.8 7.9.9 9.8-1.5.3-.4.4-.4.8-.1l2.1 1.5c.4.3.4.4.1.8l-13.4 19.1c-.3.4-.4.4-.8.1L210 235c-.4-.3-.4-.4-.1-.8 1.6-2.6 3.5-5.9-1.9-9.7L191.5 213c-5.2-3.7-7.1-1.8-9.2.6-.2.3-.4.4-.9.1l-1.6-1.1 2.1-14.9 1.2-1.7c.3-.4.4-.4.8-.1l29.6 20.7zM244.9 190.9c-.3.4-.4.4-.8.1l-2.1-1.5c-.4-.3-.3-.4-.1-.8.6-1.1 2.6-4.5-2.9-8.3l-17.1-12c-4-2.8-8-2-10.7 1.8-3 4.3-1.8 9.4-1.2 11.8l18.6 13.1c5.4 3.8 7.7 1 8.6.1.4-.3.4-.4.8-.1l2.1 1.5c.4.3.4.4.1.8L228.6 214c-.3.4-.4.4-.8.1l-2.1-1.5c-.4-.3-.3-.4-.1-.8.6-1.1 2.9-5-2.5-8.8l-16-11.3c-5.2-3.7-7.1-1.8-9.2.6-.3.4-.5.4-.9.1l-1.6-1.1 2.1-14.8 1.1-1.6c.3-.4.4-.4.8-.1l5.2 3.7.4-.5c-1-4-1.8-10.3 2.2-16 3.8-5.4 9-6.2 12.9-5.3l.3-.5c-.8-4.8-1.4-11 2.7-16.8 4.4-6.2 11.5-7.4 17.8-2.9l19.3 13.6c5.4 3.8 8.5-.1 9.4-1 .4-.3.4-.4.8-.1l2.1 1.5c.4.3.4.4.1.8l-12.2 17.3c-.3.4-.4.4-.8.1l-2.1-1.5c-.4-.3-.3-.4-.1-.8.6-1.1 2.7-4.6-2.8-8.4l-17.1-12c-4-2.8-7.9-2.1-10.7 1.8-2.9 4.1-1.7 9.2-1.3 11.5l18.8 13.2c5.4 3.8 7.9.8 8.8-.1.4-.3.4-.4.8-.1l2.1 1.5c.4.3.4.4.1.8l-11.2 16.3zM281.8 111c.6-.6 1.7-1.3 2.3-1.6 4 4 9.8 14.3 2.5 24.7-6.4 9.2-18.5 12.2-31 3.4-12-8.5-15.7-21.9-8.3-32.4 7-10 18.3-9.1 28-2.2.2.2.3.4.1.7l-17.3 24.5c8.9 5.8 17.2 4.9 22-1.9 4.3-6.1 2.8-12.2 1.7-15.2zm-16.9-1.7c-5.3-3.7-10.9-4.2-14.2.5-2.8 4-2.6 9.7 3.2 15.1l11-15.6zM276 45.7l9.9 6.9 6.8-9.7c.3-.4.4-.4.8-.1L298 46c.4.3.4.4.1.8l-6.8 9.7 22.2 15.6c3.5 2.5 5.8 1 6.9-.6 1.5-2.2 1.1-5.8.5-8.2l3.6-1c2.3 5.3 3.8 11.5.2 16.7-4.3 6.1-9.8 5.7-15 2l-23.9-16.8-4 5.7c-.3.4-.4.4-.8.1l-1.9-1.4-4.5-19.5c-.2-.9-.2-1.3.3-1.9l1.1-1.5zM340.1 15.5c11.6 8.2 15 21 6.8 32.7-8.2 11.6-21.4 12.8-33.1 4.6-11.7-8.2-15-21-6.8-32.7 8.3-11.7 21.5-12.8 33.1-4.6zm-6.6 9.5c-10.1-7.1-17.8-8.1-22.1-1.9-4.4 6.2-.9 13.1 9.2 20.2s17.8 8.1 22.1 1.9c4.4-6.3.9-13.1-9.2-20.2z"/></g><path fill="#005FFF" d="M744.7 0L231.8 290.2l56.9 100.5L768 119.5V0z"/><defs><path id="g" d="M0 0h768v520H0z"/></defs><clipPath id="h"><use xlink:href="#g" overflow="visible"/></clipPath><g clip-path="url(#h)" fill="#fff"><path d="M311.3 264.8c1.2-.7 1.8-1.1 1.8-2 0-.6.1-.7.6-1l1.7-1c.4-.2.7-.2 1 .2l12.3 14.6c.4.4.2.7-.2.9l-3.9 2.2c-6.1-5.8-11.4-8.5-19.3-4l-4.7 2.7 24.5 43.4c3.5 6.2 6.2 4.7 10.1 2.5.4-.2.8-.1 1 .3l1.1 2c.2.4.1.8-.3 1l-23.1 13.1c-.4.2-.8.1-1-.3l-1.1-2c-.2-.4-.1-.8.3-1 3.9-2.2 6.6-3.7 3.1-9.9l-24.5-43.4-4.7 2.7c-7.9 4.5-8.3 10.4-6.5 18.6l-3.9 2.2c-.3.2-.6.2-.8-.3l-6.2-18.1c-.2-.5-.1-.7.3-1l1.6-.9c.5-.3.7-.3 1.2 0 .8.4 1.4.2 2.7-.5l36.9-21zM373.2 301c-.9 3.8-2.5 8.3-8.1 11.5-7.3 4.1-14.2 1.9-17.6-4-3.4-6-1.4-12.7 4.9-18.5l9.1-8.3-2.2-4c-2.6-4.6-6.1-9.3-11.8-6.1-3.8 2.2-4.1 5.3-3.6 6.1.4.7 2.2 1.2 3.5 3.6 1.7 3.1.7 6.2-2.2 7.8-3.5 2-7.1.4-8.9-2.8-2.6-4.5-1.7-12.5 9.4-18.9 13.6-7.7 19.4.2 24.7 10l8 14.5c1.6 3 3.2 3.7 4.5 2.9 1.2-.7 1.4-1.9 1.6-2.5.1-.4.4-.5.6-.5l1.8.3c.3.1.4.2.4.7.2 2.5-.2 7.1-4.3 9.4-3.2 1.8-6.5.9-9.1-1.5l-.7.3zm-9.1-15l-6.2 7c-2.2 2.5-3.8 5.6-1.9 8.9 1.7 3.1 5 3.8 8.6 1.8 3-1.7 4.6-4.4 5.7-6.8l-6.2-10.9zM371.2 247.2c-3.3-5.9-5.9-4.6-8.5-3.3-.4.2-.5.2-.8-.2l-1-1.7c2.8-4.1 5.7-8 8.5-12.1l1.8-1c.4-.2.5-.2.8.2l20.4 36 5.2-15.1c1.2-4-.6-5.5-4-4-.4.2-.6.1-.8-.3l-1.2-2.1c-.2-.4-.2-.5.2-.8l17.9-10.1c.4-.2.5-.2.8.2l1.2 2.1c.3.5.2.6-.1.9-2.2 1.6-5 3.9-7.5 11.2l-4.3 12.3 22.4 8.5c2.9 1.1 7.3 2 10.7.3.4-.2.5-.2.8.2l1.3 2.2c.2.4.2.5-.2.8l-19.5 11c-.4.2-.5.2-.8-.2l-1.3-2.2c-.2-.4-.1-.5.3-.8 1.8-1.3 1.5-2.9-3.1-4.8l-16.1-6.1 5.8 10.2c3.3 5.8 6.5 4.3 7.6 3.9.5-.2.6-.2.9.2l1.3 2.2c.2.4.2.5-.2.8l-17.7 10c-.4.2-.5.2-.8-.2l-1.3-2.2c-.2-.4-.1-.5.3-.8 1-.8 4.7-3.2 1.5-9l-20.5-36.2zM459.2 239.4c.8-.3 2.1-.4 2.7-.4 1.9 5.3 2.7 17.1-8.4 23.4-9.8 5.5-22 3-29.4-10.2-7.2-12.8-4.8-26.5 6.4-32.9 10.7-6 20.4-.3 26.3 10 .1.2.1.5-.3.7l-26.1 14.8c5.6 9.1 13.4 11.8 20.7 7.7 6.5-3.7 7.8-9.9 8.1-13.1zm-14.6-8.8c-3.2-5.6-8-8.4-13-5.6-4.2 2.4-6.5 7.6-3.6 15l16.6-9.4zM515.6 171.7c-5.4-6.9-12.9-9.6-20.6-5.3-9.4 5.3-13.6 18.6-5.6 32.7 3.8 6.8 8.8 10.7 13.8 12.6 5.9 2.2 12.6 1.4 18.3-1.8 8.8-5 12.2-14.1 11.6-24.2l2.7-.6c.8-.2 1 .2 1.2.7 3.8 9.5 4 27.1-11.8 36-7.3 4.1-16.5 5.5-25.2 2.1-6.6-2.6-12.7-8-17.2-16-10.1-17.8-6.5-38.1 13.1-49.2 6.7-3.8 14.2-5.9 19.3-6.6l3.1 17.2c.1.5-.1.8-.5 1l-2.2 1.4zM544.6 163l.4-.2c1.3-4.5 3.5-10.3 9.7-13.8 7.2-4.1 13.9-1.7 18.2 5.9l11.1 19.6c3.3 5.8 7.4 3.8 8.5 3.3.5-.2.5-.2.8.3l1.2 2.1c.2.4.2.5-.2.8L576 191.4c-.4.2-.5.2-.8-.2L574 189c-.2-.4-.2-.5.2-.8 1-.8 4.4-3 1.1-8.8l-9.6-17c-2.9-5-6.7-6.6-11-4.2-4.5 2.5-6.2 7.6-6.9 10.6l11.2 19.8c3.3 5.8 6.5 4.3 7.6 3.9.5-.2.6-.2.9.2l1.3 2.2c.2.4.2.5-.2.8l-17.7 10c-.4.2-.5.2-.8-.2l-1.3-2.2c-.2-.4-.1-.5.3-.8 1-.8 4.7-3.2 1.5-9l-20.4-36.1c-3.3-5.9-5.9-4.6-8.5-3.3-.4.2-.5.2-.8-.2l-1-1.7 8.5-12.1 1.8-1c.4-.2.5-.2.8.2l13.6 23.7zM617.2 162.9c-.9 3.8-2.5 8.3-8.1 11.5-7.3 4.1-14.2 1.9-17.6-4-3.4-6-1.4-12.7 4.9-18.5l9.1-8.3-2.2-4c-2.6-4.6-6.1-9.3-11.8-6.1-3.8 2.2-4.1 5.3-3.6 6.1.4.7 2.2 1.2 3.5 3.6 1.7 3.1.7 6.2-2.2 7.8-3.5 2-7.1.4-8.9-2.8-2.6-4.5-1.7-12.5 9.4-18.9 13.6-7.7 19.4.2 24.7 10l8 14.5c1.6 3 3.2 3.7 4.5 2.9 1.2-.7 1.4-1.9 1.6-2.5.1-.4.4-.5.6-.5l1.8.3c.3.1.4.2.4.7.2 2.5-.2 7.1-4.3 9.4-3.2 1.8-6.5.9-9.1-1.5l-.7.3zm-9.1-14.9l-6.2 7c-2.2 2.5-3.8 5.6-1.9 8.9 1.7 3.1 5 3.8 8.6 1.8 3-1.7 4.6-4.4 5.7-6.8l-6.2-10.9zM627.1 127.6c-3.1-5.5-5.4-4.6-8.5-3.3-.5.2-.6.1-.8-.3l-.9-1.7 8.4-12.6 1.7-1c.4-.2.5-.2.8.2l3.6 6.4.6-.3c.7-6.5 2.6-11.1 6.4-13.2 3.4-1.9 7.2-1.3 9.4 2.5 1.9 3.3 1.2 6.7-1.9 8.5-1.9 1.1-3.6.9-5 0-.6-.4-1.3-.9-2-.5-1.9 1.1-3.5 5.2-3.9 9.1l10.5 18.5c3.1 5.5 6.3 4.4 9 3.1.4-.2.5-.2.8.2l1.3 2.2c.2.4.2.5-.2.8l-19.5 11c-.4.2-.5.2-.8-.2l-1.3-2.2c-.2-.4-.2-.5.2-.8 2.6-1.7 5.1-3.9 2-9.3l-9.9-17.1zM663.7 87.4c2.6-1.5 5.3-2.4 7.8-2.9l13.3-7.5c.4-.2.5-.2.8.2l2.7 4.8c.2.4.2.5-.2.8l-5.8 3.3c2.2 1.2 4.7 3.2 6.4 6.2 4.5 8 1.6 17.5-9 23.5-2 1.1-3.8 1.9-5.7 2.5-.3 1.6-.3 3.3.2 4.2.7 1.2 2.1 1.3 3.5.5l11.6-6.5c8.5-4.8 15.1-5.5 19 1.6 4.8 8.7.5 21.5-13 29.2-10 5.7-17.4 5.5-20.6-.2-1.5-2.7-.5-8.1 1.5-12.3-3.8 1-6.3-.1-7.8-2.7-1.6-2.8-1.2-7.3 1-12.8-6.1.4-11.1-2.3-14.3-7.9-4.4-7.9-1.8-18.1 8.6-24zm13.8 24.1c4.2-2.4 5.3-7.7 1.7-14.1-3.5-6.1-8.4-8.8-13.2-6.1-4.5 2.5-5 8.3-1.6 14.4 3.7 6.5 8.1 8.7 13.1 5.8zm3.3 21.2c-.3 2.4-.2 4.5 1 6.5 2 3.6 6.1 6.1 13.6 1.8 5.9-3.3 9.8-10.3 7.1-15.1-1.6-2.8-4.1-3.1-9.9.2l-11.1 6.3-.7.3zM733.2 84.4c.8-.3 2.1-.4 2.7-.4 1.9 5.3 2.7 17.1-8.4 23.4-9.8 5.5-22 3-29.4-10.2-7.2-12.8-4.8-26.5 6.4-32.9 10.7-6 20.4-.3 26.3 10 .1.2.1.5-.3.7l-26.1 14.8c5.6 9.1 13.4 11.8 20.7 7.7 6.5-3.7 7.8-9.9 8.1-13.1zm-14.6-8.8c-3.2-5.6-8-8.4-13-5.6-4.2 2.4-6.5 7.6-3.6 15l16.6-9.4zM741.3 72.3s-.1-.4-.8-1.3c-11.5-18.4-18.4-23.1-20.8-27.4-3.4-6-1.7-9.9 1.7-11.9 3.4-1.9 7.7-1.3 11 4.7 2.4 4.3 2.9 12.6 12.7 32l.7 1.3-4.5 2.6zm7.6 8c3.2-1.8 7.1-.7 8.9 2.5 1.8 3.1.7 7-2.5 8.8-3.1 1.8-7 .7-8.8-2.4-1.8-3.3-.7-7.1 2.4-8.9z"/></g></svg>